<?xml version="1.0" encoding="UTF-8" standalone="no"?>
<!-- Created with Inkscape (http://www.inkscape.org/) -->

<svg
   version="1.1"
   id="svg2"
   xml:space="preserve"
   width="277.74344"
   height="219.71613"
   viewBox="0 0 277.74344 219.71612"
   sodipodi:docname="hmc902lp3e_response.svg"
   inkscape:version="1.1 (c4e8f9ed74, 2021-05-24)"
   xmlns:inkscape="http://www.inkscape.org/namespaces/inkscape"
   xmlns:sodipodi="http://sodipodi.sourceforge.net/DTD/sodipodi-0.dtd"
   xmlns="http://www.w3.org/2000/svg"
   xmlns:svg="http://www.w3.org/2000/svg"><defs
     id="defs6"><clipPath
       clipPathUnits="userSpaceOnUse"
       id="clipPath62"><path
         d="M 46.58,521.92 H 268.479 V 689.67 H 46.58 Z"
         id="path60" /></clipPath><clipPath
       clipPathUnits="userSpaceOnUse"
       id="clipPath182"><path
         d="M 46.58,521.92 H 268.479 V 689.67 H 46.58 Z"
         id="path180" /></clipPath><clipPath
       clipPathUnits="userSpaceOnUse"
       id="clipPath250"><path
         d="M 46.58,521.92 H 268.479 V 689.67 H 46.58 Z"
         id="path248" /></clipPath><clipPath
       clipPathUnits="userSpaceOnUse"
       id="clipPath262"><path
         d="M 30.6,521.22 H 284.4 V 692.64 H 30.6 Z"
         id="path260" /></clipPath><clipPath
       clipPathUnits="userSpaceOnUse"
       id="clipPath276"><path
         d="M 46.58,323.52 H 268.479 V 491.27 H 46.58 Z"
         id="path274" /></clipPath><clipPath
       clipPathUnits="userSpaceOnUse"
       id="clipPath416"><path
         d="M 46.58,323.52 H 268.479 V 491.27 H 46.58 Z"
         id="path414" /></clipPath><clipPath
       clipPathUnits="userSpaceOnUse"
       id="clipPath472"><path
         d="M 46.58,323.52 H 268.479 V 491.27 H 46.58 Z"
         id="path470" /></clipPath><clipPath
       clipPathUnits="userSpaceOnUse"
       id="clipPath484"><path
         d="M 30.6,323.52 H 284.4 V 494.219 H 30.6 Z"
         id="path482" /></clipPath><clipPath
       clipPathUnits="userSpaceOnUse"
       id="clipPath496"><path
         d="m 46.58,125.87 h 221.899 v 167.7 H 46.58 Z"
         id="path494" /></clipPath><clipPath
       clipPathUnits="userSpaceOnUse"
       id="clipPath606"><path
         d="m 46.58,125.87 h 221.899 v 167.7 H 46.58 Z"
         id="path604" /></clipPath><clipPath
       clipPathUnits="userSpaceOnUse"
       id="clipPath654"><path
         d="m 46.58,125.87 h 221.899 v 167.7 H 46.58 Z"
         id="path652" /></clipPath><clipPath
       clipPathUnits="userSpaceOnUse"
       id="clipPath710"><path
         d="m 46.58,125.87 h 221.899 v 167.7 H 46.58 Z"
         id="path708" /></clipPath><clipPath
       clipPathUnits="userSpaceOnUse"
       id="clipPath722"><path
         d="M 30.6,124.2 H 284.4 V 296.52 H 30.6 Z"
         id="path720" /></clipPath><clipPath
       clipPathUnits="userSpaceOnUse"
       id="clipPath736"><path
         d="m 325.579,521.97 h 221.9 v 167.7 h -221.9 z"
         id="path734" /></clipPath><clipPath
       clipPathUnits="userSpaceOnUse"
       id="clipPath826"><path
         d="m 325.579,521.97 h 221.9 v 167.7 h -221.9 z"
         id="path824" /></clipPath><clipPath
       clipPathUnits="userSpaceOnUse"
       id="clipPath844"><path
         d="m 325.579,521.97 h 221.9 v 167.7 h -221.9 z"
         id="path842" /></clipPath><clipPath
       clipPathUnits="userSpaceOnUse"
       id="clipPath896"><path
         d="m 325.579,521.97 h 221.9 v 167.7 h -221.9 z"
         id="path894" /></clipPath><clipPath
       clipPathUnits="userSpaceOnUse"
       id="clipPath908"><path
         d="m 309.6,521.94 h 253.8 v 170.7 H 309.6 Z"
         id="path906" /></clipPath><clipPath
       clipPathUnits="userSpaceOnUse"
       id="clipPath922"><path
         d="m 325.579,324.32 h 221.9 v 167.7 h -221.9 z"
         id="path920" /></clipPath><clipPath
       clipPathUnits="userSpaceOnUse"
       id="clipPath1022"><path
         d="m 325.579,324.32 h 221.9 v 167.7 h -221.9 z"
         id="path1020" /></clipPath><clipPath
       clipPathUnits="userSpaceOnUse"
       id="clipPath1074"><path
         d="m 325.579,324.32 h 221.9 v 167.7 h -221.9 z"
         id="path1072" /></clipPath><clipPath
       clipPathUnits="userSpaceOnUse"
       id="clipPath1086"><path
         d="M 309.6,323.52 H 563.4 V 495 H 309.6 Z"
         id="path1084" /></clipPath><clipPath
       clipPathUnits="userSpaceOnUse"
       id="clipPath1098"><path
         d="m 325.579,125.87 h 221.9 v 167.7 h -221.9 z"
         id="path1096" /></clipPath><clipPath
       clipPathUnits="userSpaceOnUse"
       id="clipPath1188"><path
         d="m 325.579,125.87 h 221.9 v 167.7 h -221.9 z"
         id="path1186" /></clipPath><clipPath
       clipPathUnits="userSpaceOnUse"
       id="clipPath1206"><path
         d="m 325.579,125.87 h 221.9 v 167.7 h -221.9 z"
         id="path1204" /></clipPath><clipPath
       clipPathUnits="userSpaceOnUse"
       id="clipPath1258"><path
         d="m 325.579,125.87 h 221.9 v 167.7 h -221.9 z"
         id="path1256" /></clipPath><clipPath
       clipPathUnits="userSpaceOnUse"
       id="clipPath1270"><path
         d="m 309.6,123.72 h 253.8 v 172.8 H 309.6 Z"
         id="path1268" /></clipPath></defs><sodipodi:namedview
     id="namedview4"
     pagecolor="#ffffff"
     bordercolor="#666666"
     borderopacity="1.0"
     inkscape:pageshadow="2"
     inkscape:pageopacity="0.0"
     inkscape:pagecheckerboard="0"
     showgrid="false"
     inkscape:zoom="1.166176"
     inkscape:cx="217.80589"
     inkscape:cy="3.0012622"
     inkscape:window-width="1366"
     inkscape:window-height="740"
     inkscape:window-x="0"
     inkscape:window-y="0"
     inkscape:window-maximized="1"
     inkscape:current-layer="g8" /><g
     id="g8"
     inkscape:groupmode="layer"
     inkscape:label="hmc902lp3e"
     transform="matrix(1.3333333,0,0,-1.3333333,350.08265,884.52455)"><g
       id="g56"
       transform="translate(-309.90544,-25.999993)"><g
         id="g58"
         clip-path="url(#clipPath62)"><text
           transform="matrix(0.99646085,0,0,-1,63.8989,685.0677)"
           style="font-variant:normal;font-weight:bold;font-stretch:normal;font-size:6.0184px;font-family:Arial;-inkscape-font-specification:Arial-BoldMT;writing-mode:lr-tb;fill:#000000;fill-opacity:1;fill-rule:nonzero;stroke:none"
           id="text66"><tspan
             x="0 3.2619729"
             y="0"
             sodipodi:role="line"
             id="tspan64">25</tspan></text><text
           transform="matrix(0.99646085,0,0,-1,60.5635,541.8113)"
           style="font-variant:normal;font-weight:bold;font-stretch:normal;font-size:6.0184px;font-family:Arial;-inkscape-font-specification:Arial-BoldMT;writing-mode:lr-tb;fill:#000000;fill-opacity:1;fill-rule:nonzero;stroke:none"
           id="text70"><tspan
             x="0 3.2619729 6.5239458"
             y="0"
             sodipodi:role="line"
             id="tspan68">–25</tspan></text><text
           transform="matrix(0.99646085,0,0,-1,60.5635,570.4627)"
           style="font-variant:normal;font-weight:bold;font-stretch:normal;font-size:6.0184px;font-family:Arial;-inkscape-font-specification:Arial-BoldMT;writing-mode:lr-tb;fill:#000000;fill-opacity:1;fill-rule:nonzero;stroke:none"
           id="text74"><tspan
             x="0 3.2619729 6.5239458"
             y="0"
             sodipodi:role="line"
             id="tspan72">–15</tspan></text><text
           transform="matrix(0.99646085,0,0,-1,63.8989,599.1143)"
           style="font-variant:normal;font-weight:bold;font-stretch:normal;font-size:6.0184px;font-family:Arial;-inkscape-font-specification:Arial-BoldMT;writing-mode:lr-tb;fill:#000000;fill-opacity:1;fill-rule:nonzero;stroke:none"
           id="text78"><tspan
             x="0 3.2619729"
             y="0"
             sodipodi:role="line"
             id="tspan76">–5</tspan></text><text
           transform="matrix(0.99646085,0,0,-1,67.2342,627.7653)"
           style="font-variant:normal;font-weight:bold;font-stretch:normal;font-size:6.0184px;font-family:Arial;-inkscape-font-specification:Arial-BoldMT;writing-mode:lr-tb;fill:#000000;fill-opacity:1;fill-rule:nonzero;stroke:none"
           id="text82"><tspan
             x="0"
             y="0"
             id="tspan80">5</tspan></text><text
           transform="matrix(0.99646085,0,0,-1,63.8989,656.4167)"
           style="font-variant:normal;font-weight:bold;font-stretch:normal;font-size:6.0184px;font-family:Arial;-inkscape-font-specification:Arial-BoldMT;writing-mode:lr-tb;fill:#000000;fill-opacity:1;fill-rule:nonzero;stroke:none"
           id="text86"><tspan
             x="0 3.2619729"
             y="0"
             sodipodi:role="line"
             id="tspan84">15</tspan></text><text
           transform="matrix(0.99646085,0,0,-1,71.8287,535.3187)"
           style="font-variant:normal;font-weight:bold;font-stretch:normal;font-size:6.0184px;font-family:Arial;-inkscape-font-specification:Arial-BoldMT;writing-mode:lr-tb;fill:#000000;fill-opacity:1;fill-rule:nonzero;stroke:none"
           id="text90"><tspan
             x="0"
             y="0"
             id="tspan88">3</tspan></text><text
           transform="matrix(0.99646085,0,0,-1,107.6612,535.3188)"
           style="font-variant:normal;font-weight:bold;font-stretch:normal;font-size:6.0184px;font-family:Arial;-inkscape-font-specification:Arial-BoldMT;writing-mode:lr-tb;fill:#000000;fill-opacity:1;fill-rule:nonzero;stroke:none"
           id="text94"><tspan
             x="0"
             y="0"
             id="tspan92">5</tspan></text><text
           transform="matrix(0.99646085,0,0,-1,143.4937,535.3188)"
           style="font-variant:normal;font-weight:bold;font-stretch:normal;font-size:6.0184px;font-family:Arial;-inkscape-font-specification:Arial-BoldMT;writing-mode:lr-tb;fill:#000000;fill-opacity:1;fill-rule:nonzero;stroke:none"
           id="text98"><tspan
             x="0"
             y="0"
             id="tspan96">7</tspan></text><text
           transform="matrix(0.99646085,0,0,-1,179.3257,535.3189)"
           style="font-variant:normal;font-weight:bold;font-stretch:normal;font-size:6.0184px;font-family:Arial;-inkscape-font-specification:Arial-BoldMT;writing-mode:lr-tb;fill:#000000;fill-opacity:1;fill-rule:nonzero;stroke:none"
           id="text102"><tspan
             x="0"
             y="0"
             id="tspan100">9</tspan></text><text
           transform="matrix(0.99646085,0,0,-1,213.4905,535.319)"
           style="font-variant:normal;font-weight:bold;font-stretch:normal;font-size:6.0184px;font-family:Arial;-inkscape-font-specification:Arial-BoldMT;writing-mode:lr-tb;fill:#000000;fill-opacity:1;fill-rule:nonzero;stroke:none"
           id="text106"><tspan
             x="0 3.2619729"
             y="0"
             sodipodi:role="line"
             id="tspan104">11</tspan></text><text
           transform="matrix(0.99646085,0,0,-1,249.323,535.319)"
           style="font-variant:normal;font-weight:bold;font-stretch:normal;font-size:6.0184px;font-family:Arial;-inkscape-font-specification:Arial-BoldMT;writing-mode:lr-tb;fill:#000000;fill-opacity:1;fill-rule:nonzero;stroke:none"
           id="text110"><tspan
             x="0 3.2619729"
             y="0"
             sodipodi:role="line"
             id="tspan108">13</tspan></text><text
           transform="matrix(0,1,0.99646085,0,51.7095,591.9769)"
           style="font-variant:normal;font-weight:bold;font-stretch:normal;font-size:6.0184px;font-family:Arial;-inkscape-font-specification:Arial-BoldMT;writing-mode:lr-tb;fill:#000000;fill-opacity:1;fill-rule:nonzero;stroke:none"
           id="text114"><tspan
             x="0 4.2628326 8.2771053 12.291378 16.305651 21.070419 25.333252 29.347525 33.361797 35.119171 37.123295 40.884796 45.147629"
             y="0"
             sodipodi:role="line"
             id="tspan112">RESPONSE (dB)</tspan></text><text
           transform="matrix(0.99646085,0,0,-1,135.5493,525.8729)"
           style="font-variant:normal;font-weight:bold;font-stretch:normal;font-size:6.0184px;font-family:Arial;-inkscape-font-specification:Arial-BoldMT;writing-mode:lr-tb;fill:#000000;fill-opacity:1;fill-rule:nonzero;stroke:none"
           id="text118"><tspan
             x="0 3.7614999 8.0225267 12.034994 16.799761 21.060789 25.073256 29.334284 33.59531 37.607777 39.36515 41.371685 46.136452 50.39748 53.406681"
             y="0"
             sodipodi:role="line"
             id="tspan116">FREQUENCY (GHz)</tspan></text></g></g><g
       id="g120"
       transform="matrix(0.2498806,0,0,-0.2507654,-309.90533,-25.998955)"><path
         d="m 293.409,-2743.261 h 720 v 576 h -720 z"
         style="fill:none;stroke:#000000;stroke-width:3;stroke-linecap:butt;stroke-linejoin:miter;stroke-miterlimit:4;stroke-dasharray:none;stroke-opacity:1"
         id="path122" /></g><g
       id="g124"
       transform="matrix(0.2498806,0,0,-0.2507654,-309.90533,-25.998963)"><g
         id="g126"
         transform="translate(293.409,-2282.2607)"><path
           d="M 0,0 H 720"
           style="fill:none;stroke:#000000;stroke-width:2;stroke-linecap:butt;stroke-linejoin:miter;stroke-miterlimit:4;stroke-dasharray:none;stroke-opacity:1"
           id="path128" /></g></g><g
       id="g130"
       transform="matrix(0.2498806,0,0,-0.2507654,-309.90533,-25.998971)"><g
         id="g132"
         transform="translate(293.409,-2397.2607)"><path
           d="M 0,0 H 720"
           style="fill:none;stroke:#000000;stroke-width:2;stroke-linecap:butt;stroke-linejoin:miter;stroke-miterlimit:4;stroke-dasharray:none;stroke-opacity:1"
           id="path134" /></g></g><g
       id="g136"
       transform="matrix(0.2498806,0,0,-0.2507654,-309.90533,-25.998978)"><g
         id="g138"
         transform="translate(293.409,-2513.2607)"><path
           d="M 0,0 H 720"
           style="fill:none;stroke:#000000;stroke-width:2;stroke-linecap:butt;stroke-linejoin:miter;stroke-miterlimit:4;stroke-dasharray:none;stroke-opacity:1"
           id="path140" /></g></g><g
       id="g142"
       transform="matrix(0.2498806,0,0,-0.2507654,-309.90533,-25.998986)"><g
         id="g144"
         transform="translate(293.409,-2628.2607)"><path
           d="M 0,0 H 720"
           style="fill:none;stroke:#000000;stroke-width:2;stroke-linecap:butt;stroke-linejoin:miter;stroke-miterlimit:4;stroke-dasharray:none;stroke-opacity:1"
           id="path146" /></g></g><g
       id="g148"
       transform="matrix(0.2498806,0,0,-0.2507654,-309.90533,-25.998993)"><g
         id="g150"
         transform="translate(869.409,-2743.2607)"><path
           d="M 0,0 V 576"
           style="fill:none;stroke:#000000;stroke-width:2;stroke-linecap:butt;stroke-linejoin:miter;stroke-miterlimit:4;stroke-dasharray:none;stroke-opacity:1"
           id="path152" /></g></g><g
       id="g154"
       transform="matrix(0.2498806,0,0,-0.2507654,-309.90534,-25.999001)"><g
         id="g156"
         transform="translate(725.409,-2743.2607)"><path
           d="M 0,0 V 576"
           style="fill:none;stroke:#000000;stroke-width:2;stroke-linecap:butt;stroke-linejoin:miter;stroke-miterlimit:4;stroke-dasharray:none;stroke-opacity:1"
           id="path158" /></g></g><g
       id="g160"
       transform="matrix(0.2498806,0,0,-0.2507654,-309.90534,-25.999009)"><g
         id="g162"
         transform="translate(581.409,-2743.2607)"><path
           d="M 0,0 V 576"
           style="fill:none;stroke:#000000;stroke-width:2;stroke-linecap:butt;stroke-linejoin:miter;stroke-miterlimit:4;stroke-dasharray:none;stroke-opacity:1"
           id="path164" /></g></g><g
       id="g166"
       transform="matrix(0.2498806,0,0,-0.2507654,-309.90534,-25.999016)"><g
         id="g168"
         transform="translate(437.409,-2743.2607)"><path
           d="M 0,0 V 576"
           style="fill:none;stroke:#000000;stroke-width:2;stroke-linecap:butt;stroke-linejoin:miter;stroke-miterlimit:4;stroke-dasharray:none;stroke-opacity:1"
           id="path170" /></g></g><g
       id="g172"
       transform="matrix(0.2498806,0,0,-0.2507654,-309.90534,-25.999024)"><path
         d="m 835.409,-2556.261 h 161 v 87 h -161 z"
         style="fill:#ffffff;fill-opacity:1;fill-rule:nonzero;stroke:none"
         id="path174" /></g><g
       id="g176"
       transform="translate(-309.90544,-25.999993)"><g
         id="g178"
         clip-path="url(#clipPath182)"><text
           transform="matrix(0.99646085,0,0,-1,235.7856,633.6094)"
           style="font-variant:normal;font-weight:bold;font-stretch:normal;font-size:6.0184px;font-family:Arial;-inkscape-font-specification:Arial-BoldMT;writing-mode:lr-tb;fill:#000000;fill-opacity:1;fill-rule:nonzero;stroke:none"
           id="text186"><tspan
             x="0 4.0124674 7.2744403"
             y="0"
             sodipodi:role="line"
             id="tspan184">S11</tspan></text><text
           transform="matrix(0.99646085,0,0,-1,235.7856,627.5911)"
           style="font-variant:normal;font-weight:bold;font-stretch:normal;font-size:6.0184px;font-family:Arial;-inkscape-font-specification:Arial-BoldMT;writing-mode:lr-tb;fill:#000000;fill-opacity:1;fill-rule:nonzero;stroke:none"
           id="text190"><tspan
             x="0 4.0124674 7.2744403"
             y="0"
             sodipodi:role="line"
             id="tspan188">S21</tspan></text><text
           transform="matrix(0.99646085,0,0,-1,235.7856,621.5728)"
           style="font-variant:normal;font-weight:bold;font-stretch:normal;font-size:6.0184px;font-family:Arial;-inkscape-font-specification:Arial-BoldMT;writing-mode:lr-tb;fill:#000000;fill-opacity:1;fill-rule:nonzero;stroke:none"
           id="text194"><tspan
             x="0 4.0124674 7.2744403"
             y="0"
             sodipodi:role="line"
             id="tspan192">S22</tspan></text></g></g><g
       id="g196"
       transform="matrix(0.2498806,0,0,-0.2507654,-309.9053,-25.998833)"><g
         id="g198"
         transform="translate(846.409,-2509.2607)"><path
           d="M 0,0 H 87"
           style="fill:none;stroke:#01ff00;stroke-width:5;stroke-linecap:round;stroke-linejoin:round;stroke-miterlimit:4;stroke-dasharray:none;stroke-opacity:1"
           id="path200" /></g></g><g
       id="g202"
       transform="matrix(0.2498806,0,0,-0.2507654,-309.9053,-25.998841)"><g
         id="g204"
         transform="translate(933.409,-2533.2607)"><path
           d="M 0,0 H -87"
           style="fill:none;stroke:#ff0000;stroke-width:5;stroke-linecap:round;stroke-linejoin:round;stroke-miterlimit:4;stroke-dasharray:none;stroke-opacity:1"
           id="path206" /></g></g><g
       id="g208"
       transform="matrix(0.2498806,0,0,-0.2507654,-309.9053,-25.998849)"><g
         id="g210"
         transform="translate(933.409,-2486.2607)"><path
           d="M 0,0 H -87"
           style="fill:none;stroke:#0000ff;stroke-width:5;stroke-linecap:round;stroke-linejoin:round;stroke-miterlimit:4;stroke-dasharray:none;stroke-opacity:1"
           id="path212" /></g></g><g
       id="g214"
       transform="matrix(0.2498806,0,0,-0.2507654,-309.9053,-25.998856)"><g
         id="g216"
         transform="translate(1010.409,-2612.2607)"><path
           d="m 0,0 -4,-2 -7,-5 -7,-4 -7,-4 -7,-4 -8,-3 -7,-3 -7,-2 -7,-3 -8,-3 -7,-2 -7,-1 -7,-3 -7,-1 -7,-2 -7,-1 -7,-2 -8,-2 -7,-1 -7,-2 -7,-2 -7,-2 -8,-2 -7,-2 -7,-2 -7,-2 -7,-2 -7,-2 -7,-2 -8,-1 -7,-2 -7,-1 -7,-2 -7,-1 -8,-1 h -7 l -7,-1 -7,-1 h -7 -7 -7 -4 -3 l -8,-1 h -3 -4 -7 -4 -3 -4 -3 -4 -4 -3 -6 -5 -4 l -7,1 h -3 -4 -3 -4 -7 -7 -4 -4 l -7,1 h -7 -7 l -7,1 h -8 l -7,1 -7,1 -7,1 -7,1 -7,1 -7,1 -7,1 -8,1 -7,1 -7,2 -7,1 -8,1 -7,1 -7,1 -7,1 -7,2 -7,1 -7,1 -7,1 -8,1 -7,1 -7,2 -7,1 -7,1 -8,3 -7,2 -7,2 -7,4 -7,4 -7,5 -7,7 -8,9 -7,11 -7,13 -7,14 -7,17 -8,17 -7,20 -5,15"
           style="fill:none;stroke:#01ff00;stroke-width:5;stroke-linecap:round;stroke-linejoin:round;stroke-miterlimit:4;stroke-dasharray:none;stroke-opacity:1"
           id="path218" /></g></g><g
       id="g220"
       transform="matrix(0.2498806,0,0,-0.2507654,-309.9053,-25.998864)"><g
         id="g222"
         transform="translate(1011.409,-2384.2607)"><path
           d="m 0,0 h -2 l -7,8 -7,8 -7,9 -7,11 -7,12 -8,13 -7,13 -7,14 -7,12 -7,11 -7,8 -8,3 -3,1 -7,-2 -7,-3 -7,-2 -7,-2 -8,-1 h -4 l -7,2 -7,2 -7,3 -7,5 -7,7 -8,9 -7,12 -7,15 -7,22 -6,23 v 2"
           style="fill:none;stroke:#ff0000;stroke-width:5;stroke-linecap:round;stroke-linejoin:round;stroke-miterlimit:4;stroke-dasharray:none;stroke-opacity:1"
           id="path224" /></g></g><g
       id="g226"
       transform="matrix(0.2498806,0,0,-0.2507654,-309.9053,-25.998871)"><g
         id="g228"
         transform="translate(591.409,-2169.2607)"><path
           d="m 0,0 v -2 -6 l -8,-35 -7,-27 -7,-20 -7,-17 -7,-14 -7,-12 -7,-10 -8,-8 -7,-7 -7,-5 -7,-5 -7,-3 -7,-3 -8,-2 -7,-1 h -4 -3 -4 l -7,1 -7,1 -7,3 -7,3 -7,4 -8,5 -7,7 -7,9 -7,11 -7,15 -8,18 -7,25 -6,23 -4,-2 -7,-34 -7,-40 -8,-31 -7,-24 -7,-20 -7,-15 -7,-13 -7,-9 -8,-8 -7,-5 -7,-5 h -2"
           style="fill:none;stroke:#ff0000;stroke-width:5;stroke-linecap:round;stroke-linejoin:round;stroke-miterlimit:4;stroke-dasharray:none;stroke-opacity:1"
           id="path230" /></g></g><g
       id="g232"
       transform="matrix(0.2498806,0,0,-0.2507654,-309.90531,-25.998879)"><g
         id="g234"
         transform="translate(1011.409,-2391.2607)"><path
           d="m 0,0 h -5 l -7,-4 h -7 l -7,-3 h -4 -3 l -8,-2 h -4 -4 l -6,-1 h -4 -5 -6 -3 -7 l -8,1 h -7 l -7,2 -7,1 -7,2 -7,1 -8,3 -7,1 -7,4 -7,1 -7,4 -7,3 -8,4 -7,4 -7,4 -7,6 -7,5 -7,7 -7,6 -8,10 -7,7 -7,11 -7,11 -7,15 -8,14 -7,18 -7,22 -7,24 -7,39 v 2"
           style="fill:none;stroke:#0000ff;stroke-width:5;stroke-linecap:round;stroke-linejoin:round;stroke-miterlimit:4;stroke-dasharray:none;stroke-opacity:1"
           id="path236" /></g></g><g
       id="g238"
       transform="matrix(0.2498806,0,0,-0.2507654,-309.90531,-25.998887)"><g
         id="g240"
         transform="translate(687.409,-2169.2607)"><path
           d="m 0,0 v -2 l -3,-16 -7,-22 -8,-14 -7,-16 -7,-5 -7,-10 -7,-2 -7,-6 -7,-1 -8,-3 -7,-1 h -4 -3 l -7,-2 h -4 l -5,1 -6,-1 h -3 -5 l -6,-1 -7,-1 -7,-3 -7,-3 -7,-2 -8,-6 -7,-2 -7,-5 -7,-3 -7,-4 -7,-3 -8,-4 -7,-4 -7,-2 -7,-5 -7,-3 -7,-6 -8,-3 -7,-6 -7,-4 -7,-5 -7,-4 -7,-5 -7,-4 -8,-3 -7,-4 -7,-3 -7,-3 -7,-2 -7,-2 -8,-2 -7,-1 -7,-2 -7,-2 -7,-3 -7,-2 -8,-3 -7,-3 -7,-3 h -2"
           style="fill:none;stroke:#0000ff;stroke-width:5;stroke-linecap:round;stroke-linejoin:round;stroke-miterlimit:4;stroke-dasharray:none;stroke-opacity:1"
           id="path242" /></g></g><g
       id="g256"><g
         id="g258"
         clip-path="url(#clipPath262)" /></g><g
       id="g478"><g
         id="g480"
         clip-path="url(#clipPath484)" /></g><g
       id="g716"><g
         id="g718"
         clip-path="url(#clipPath722)" /></g><g
       id="g902"><g
         id="g904"
         clip-path="url(#clipPath908)" /></g><g
       id="g1080"><g
         id="g1082"
         clip-path="url(#clipPath1086)" /></g><g
       id="g1264"><g
         id="g1266"
         clip-path="url(#clipPath1270)" /></g></g></svg>
