<?xml version="1.0" encoding="UTF-8" standalone="no"?>
<!-- Created with Inkscape (http://www.inkscape.org/) -->

<svg
   version="1.1"
   id="svg2"
   xml:space="preserve"
   width="276.79749"
   height="219.6557"
   viewBox="0 0 276.79749 219.6557"
   sodipodi:docname="hmc902lp3e_gain.svg"
   inkscape:version="1.1 (c4e8f9ed74, 2021-05-24)"
   xmlns:inkscape="http://www.inkscape.org/namespaces/inkscape"
   xmlns:sodipodi="http://sodipodi.sourceforge.net/DTD/sodipodi-0.dtd"
   xmlns="http://www.w3.org/2000/svg"
   xmlns:svg="http://www.w3.org/2000/svg"><defs
     id="defs6"><clipPath
       clipPathUnits="userSpaceOnUse"
       id="clipPath62"><path
         d="M 46.58,521.92 H 268.479 V 689.67 H 46.58 Z"
         id="path60" /></clipPath><clipPath
       clipPathUnits="userSpaceOnUse"
       id="clipPath182"><path
         d="M 46.58,521.92 H 268.479 V 689.67 H 46.58 Z"
         id="path180" /></clipPath><clipPath
       clipPathUnits="userSpaceOnUse"
       id="clipPath250"><path
         d="M 46.58,521.92 H 268.479 V 689.67 H 46.58 Z"
         id="path248" /></clipPath><clipPath
       clipPathUnits="userSpaceOnUse"
       id="clipPath262"><path
         d="M 30.6,521.22 H 284.4 V 692.64 H 30.6 Z"
         id="path260" /></clipPath><clipPath
       clipPathUnits="userSpaceOnUse"
       id="clipPath276"><path
         d="M 46.58,323.52 H 268.479 V 491.27 H 46.58 Z"
         id="path274" /></clipPath><clipPath
       clipPathUnits="userSpaceOnUse"
       id="clipPath416"><path
         d="M 46.58,323.52 H 268.479 V 491.27 H 46.58 Z"
         id="path414" /></clipPath><clipPath
       clipPathUnits="userSpaceOnUse"
       id="clipPath472"><path
         d="M 46.58,323.52 H 268.479 V 491.27 H 46.58 Z"
         id="path470" /></clipPath><clipPath
       clipPathUnits="userSpaceOnUse"
       id="clipPath484"><path
         d="M 30.6,323.52 H 284.4 V 494.219 H 30.6 Z"
         id="path482" /></clipPath><clipPath
       clipPathUnits="userSpaceOnUse"
       id="clipPath496"><path
         d="m 46.58,125.87 h 221.899 v 167.7 H 46.58 Z"
         id="path494" /></clipPath><clipPath
       clipPathUnits="userSpaceOnUse"
       id="clipPath606"><path
         d="m 46.58,125.87 h 221.899 v 167.7 H 46.58 Z"
         id="path604" /></clipPath><clipPath
       clipPathUnits="userSpaceOnUse"
       id="clipPath654"><path
         d="m 46.58,125.87 h 221.899 v 167.7 H 46.58 Z"
         id="path652" /></clipPath><clipPath
       clipPathUnits="userSpaceOnUse"
       id="clipPath710"><path
         d="m 46.58,125.87 h 221.899 v 167.7 H 46.58 Z"
         id="path708" /></clipPath><clipPath
       clipPathUnits="userSpaceOnUse"
       id="clipPath722"><path
         d="M 30.6,124.2 H 284.4 V 296.52 H 30.6 Z"
         id="path720" /></clipPath><clipPath
       clipPathUnits="userSpaceOnUse"
       id="clipPath736"><path
         d="m 325.579,521.97 h 221.9 v 167.7 h -221.9 z"
         id="path734" /></clipPath><clipPath
       clipPathUnits="userSpaceOnUse"
       id="clipPath826"><path
         d="m 325.579,521.97 h 221.9 v 167.7 h -221.9 z"
         id="path824" /></clipPath><clipPath
       clipPathUnits="userSpaceOnUse"
       id="clipPath844"><path
         d="m 325.579,521.97 h 221.9 v 167.7 h -221.9 z"
         id="path842" /></clipPath><clipPath
       clipPathUnits="userSpaceOnUse"
       id="clipPath896"><path
         d="m 325.579,521.97 h 221.9 v 167.7 h -221.9 z"
         id="path894" /></clipPath><clipPath
       clipPathUnits="userSpaceOnUse"
       id="clipPath908"><path
         d="m 309.6,521.94 h 253.8 v 170.7 H 309.6 Z"
         id="path906" /></clipPath><clipPath
       clipPathUnits="userSpaceOnUse"
       id="clipPath922"><path
         d="m 325.579,324.32 h 221.9 v 167.7 h -221.9 z"
         id="path920" /></clipPath><clipPath
       clipPathUnits="userSpaceOnUse"
       id="clipPath1022"><path
         d="m 325.579,324.32 h 221.9 v 167.7 h -221.9 z"
         id="path1020" /></clipPath><clipPath
       clipPathUnits="userSpaceOnUse"
       id="clipPath1074"><path
         d="m 325.579,324.32 h 221.9 v 167.7 h -221.9 z"
         id="path1072" /></clipPath><clipPath
       clipPathUnits="userSpaceOnUse"
       id="clipPath1086"><path
         d="M 309.6,323.52 H 563.4 V 495 H 309.6 Z"
         id="path1084" /></clipPath><clipPath
       clipPathUnits="userSpaceOnUse"
       id="clipPath1098"><path
         d="m 325.579,125.87 h 221.9 v 167.7 h -221.9 z"
         id="path1096" /></clipPath><clipPath
       clipPathUnits="userSpaceOnUse"
       id="clipPath1188"><path
         d="m 325.579,125.87 h 221.9 v 167.7 h -221.9 z"
         id="path1186" /></clipPath><clipPath
       clipPathUnits="userSpaceOnUse"
       id="clipPath1206"><path
         d="m 325.579,125.87 h 221.9 v 167.7 h -221.9 z"
         id="path1204" /></clipPath><clipPath
       clipPathUnits="userSpaceOnUse"
       id="clipPath1258"><path
         d="m 325.579,125.87 h 221.9 v 167.7 h -221.9 z"
         id="path1256" /></clipPath><clipPath
       clipPathUnits="userSpaceOnUse"
       id="clipPath1270"><path
         d="m 309.6,123.72 h 253.8 v 172.8 H 309.6 Z"
         id="path1268" /></clipPath></defs><sodipodi:namedview
     id="namedview4"
     pagecolor="#ffffff"
     bordercolor="#666666"
     borderopacity="1.0"
     inkscape:pageshadow="2"
     inkscape:pageopacity="0.0"
     inkscape:pagecheckerboard="0"
     showgrid="false"
     inkscape:zoom="1.166176"
     inkscape:cx="208.37335"
     inkscape:cy="-195.93955"
     inkscape:window-width="1366"
     inkscape:window-height="740"
     inkscape:window-x="0"
     inkscape:window-y="0"
     inkscape:window-maximized="1"
     inkscape:current-layer="g8" /><g
     id="g8"
     inkscape:groupmode="layer"
     inkscape:label="hmc902lp3e"
     transform="matrix(1.3333333,0,0,-1.3333333,340.32549,623.67059)"><g
       id="g258"
       clip-path="url(#clipPath262)" /><g
       id="g480"
       clip-path="url(#clipPath484)" /><g
       id="g718"
       clip-path="url(#clipPath722)" /><g
       id="g732"
       clip-path="url(#clipPath736)"
       transform="translate(-581.58737,-221.64058)"><text
         transform="matrix(0.99675897,0,0,-1,342.8988,685.0691)"
         style="font-variant:normal;font-weight:bold;font-stretch:normal;font-size:6.0166px;font-family:Arial;-inkscape-font-specification:Arial-BoldMT;writing-mode:lr-tb;fill:#000000;fill-opacity:1;fill-rule:nonzero;stroke:none"
         id="text750"><tspan
           x="0 3.2609973"
           y="0"
           sodipodi:role="line"
           id="tspan738">25</tspan><tspan
           x="0 3.2609973"
           y="28.645033"
           sodipodi:role="line"
           id="tspan740">23</tspan><tspan
           x="0 3.2609973"
           y="85.929085"
           sodipodi:role="line"
           id="tspan742">19</tspan><tspan
           x="0 3.2609973"
           y="57.28405"
           sodipodi:role="line"
           id="tspan744">21</tspan><tspan
           x="0 3.2609973"
           y="114.5681"
           sodipodi:role="line"
           id="tspan746">17</tspan><tspan
           x="0 3.2609973"
           y="143.21313"
           sodipodi:role="line"
           id="tspan748">15</tspan></text><text
         transform="matrix(0,1,0.99675897,0,330.7093,601.2016)"
         style="font-variant:normal;font-weight:bold;font-stretch:normal;font-size:6.0166px;font-family:Arial;-inkscape-font-specification:Arial-BoldMT;writing-mode:lr-tb;fill:#000000;fill-opacity:1;fill-rule:nonzero;stroke:none"
         id="text754"><tspan
           x="0 4.7633424 9.0230951 10.778137 15.03789 16.794737 18.80007 22.560446 26.820198"
           y="0"
           sodipodi:role="line"
           id="tspan752">GAIN (dB)</tspan></text></g><path
       d="M -229.27019,466.27455 H -49.356155 V 321.87677 H -229.27019 Z"
       style="fill:none;stroke:#000000;stroke-width:0.750856;stroke-linecap:butt;stroke-linejoin:miter;stroke-miterlimit:4;stroke-dasharray:none;stroke-opacity:1"
       id="path758" /><g
       id="g762"
       transform="matrix(0.2498806,0,0,-0.2506906,-229.27026,350.7061)"><path
         d="M 0,0 H 720"
         style="fill:none;stroke:#000000;stroke-width:2;stroke-linecap:butt;stroke-linejoin:miter;stroke-miterlimit:4;stroke-dasharray:none;stroke-opacity:1"
         id="path764" /></g><g
       id="g768"
       transform="matrix(0.2498806,0,0,-0.2506906,-229.27026,379.53551)"><path
         d="M 0,0 H 720"
         style="fill:none;stroke:#000000;stroke-width:2;stroke-linecap:butt;stroke-linejoin:miter;stroke-miterlimit:4;stroke-dasharray:none;stroke-opacity:1"
         id="path770" /></g><g
       id="g774"
       transform="matrix(0.2498806,0,0,-0.2506906,-229.27026,408.61562)"><path
         d="M 0,0 H 720"
         style="fill:none;stroke:#000000;stroke-width:2;stroke-linecap:butt;stroke-linejoin:miter;stroke-miterlimit:4;stroke-dasharray:none;stroke-opacity:1"
         id="path776" /></g><g
       id="g780"
       transform="matrix(0.2498806,0,0,-0.2506906,-229.27026,437.44505)"><path
         d="M 0,0 H 720"
         style="fill:none;stroke:#000000;stroke-width:2;stroke-linecap:butt;stroke-linejoin:miter;stroke-miterlimit:4;stroke-dasharray:none;stroke-opacity:1"
         id="path782" /></g><g
       id="g786"
       transform="matrix(0.2498806,0,0,-0.2506906,-75.093932,466.27447)"><path
         d="M 0,0 V 576"
         style="fill:none;stroke:#000000;stroke-width:2;stroke-linecap:butt;stroke-linejoin:miter;stroke-miterlimit:4;stroke-dasharray:none;stroke-opacity:1"
         id="path788" /></g><g
       id="g792"
       transform="matrix(0.2498806,0,0,-0.2506906,-100.83163,466.27447)"><path
         d="M 0,0 V 576"
         style="fill:none;stroke:#000000;stroke-width:2;stroke-linecap:butt;stroke-linejoin:miter;stroke-miterlimit:4;stroke-dasharray:none;stroke-opacity:1"
         id="path794" /></g><g
       id="g798"
       transform="matrix(0.2498806,0,0,-0.2506906,-126.56934,466.27448)"><path
         d="M 0,0 V 576"
         style="fill:none;stroke:#000000;stroke-width:2;stroke-linecap:butt;stroke-linejoin:miter;stroke-miterlimit:4;stroke-dasharray:none;stroke-opacity:1"
         id="path800" /></g><g
       id="g804"
       transform="matrix(0.2498806,0,0,-0.2506906,-152.30704,466.27448)"><path
         d="M 0,0 V 576"
         style="fill:none;stroke:#000000;stroke-width:2;stroke-linecap:butt;stroke-linejoin:miter;stroke-miterlimit:4;stroke-dasharray:none;stroke-opacity:1"
         id="path806" /></g><g
       id="g810"
       transform="matrix(0.2498806,0,0,-0.2506906,-178.04474,466.27449)"><path
         d="M 0,0 V 576"
         style="fill:none;stroke:#000000;stroke-width:2;stroke-linecap:butt;stroke-linejoin:miter;stroke-miterlimit:4;stroke-dasharray:none;stroke-opacity:1"
         id="path812" /></g><g
       id="g816"
       transform="matrix(0.2498806,0,0,-0.2506906,-203.53256,466.27449)"><path
         d="M 0,0 V 576"
         style="fill:none;stroke:#000000;stroke-width:2;stroke-linecap:butt;stroke-linejoin:miter;stroke-miterlimit:4;stroke-dasharray:none;stroke-opacity:1"
         id="path818" /></g><g
       id="g822"
       clip-path="url(#clipPath826)"
       transform="translate(-581.58737,-221.64058)"><text
         transform="matrix(0.99675897,0,0,-1,350.8286,535.364)"
         style="font-variant:normal;font-weight:bold;font-stretch:normal;font-size:6.0166px;font-family:Arial;-inkscape-font-specification:Arial-BoldMT;writing-mode:lr-tb;fill:#000000;fill-opacity:1;fill-rule:nonzero;stroke:none"
         id="text832"><tspan
           x="0 25.678848 51.357697 77.036545 102.71539 128.39424 152.40048 155.66147 178.07933 181.34032"
           y="0"
           sodipodi:role="line"
           id="tspan828">4567891011</tspan><tspan
           x="63.938408 67.698784 71.958534 75.9692 80.732544 84.992294 89.003563 93.263313 97.523071 101.53434 103.29118 105.29712 110.06046 114.32021 117.32851"
           y="9.4460621"
           sodipodi:role="line"
           id="tspan830">FREQUENCY (GHz)</tspan></text></g><path
       d="m -226.52147,461.51113 h 45.97803 v -22.06077 h -45.97803 z"
       style="fill:#ffffff;fill-opacity:1;fill-rule:nonzero;stroke:none;stroke-width:0.250285"
       id="path836" /><g
       id="g840"
       clip-path="url(#clipPath844)"
       transform="translate(-581.58737,-221.64058)"><text
         transform="matrix(0.99675897,0,0,-1,382.192,675.5844)"
         style="font-variant:normal;font-weight:bold;font-stretch:normal;font-size:6.0166px;font-family:Arial;-inkscape-font-specification:Arial-BoldMT;writing-mode:lr-tb;fill:#000000;fill-opacity:1;fill-rule:nonzero;stroke:none"
         id="text852"><tspan
           x="0 3.5094829 6.7704802 10.031477 12.538594"
           y="0"
           sodipodi:role="line"
           id="tspan846">+85°C</tspan><tspan
           x="0 3.5094829 6.7704802 10.031477 12.538594"
           y="6.0166001"
           sodipodi:role="line"
           id="tspan848">+25°C</tspan><tspan
           x="0 3.2609973 6.5219946 9.7829914 12.290109"
           y="12.0332"
           sodipodi:role="line"
           id="tspan850">–40°C</tspan></text></g><g
       id="g856"
       transform="matrix(0.2498806,0,0,-0.2506906,-223.77286,449.72851)"><path
         d="M 0,0 H 87"
         style="fill:none;stroke:#01ff00;stroke-width:5;stroke-linecap:round;stroke-linejoin:round;stroke-miterlimit:4;stroke-dasharray:none;stroke-opacity:1"
         id="path858" /></g><g
       id="g862"
       transform="matrix(0.2498806,0,0,-0.2506906,-202.03325,455.4944)"><path
         d="M 0,0 H -87"
         style="fill:none;stroke:#ff0000;stroke-width:5;stroke-linecap:round;stroke-linejoin:round;stroke-miterlimit:4;stroke-dasharray:none;stroke-opacity:1"
         id="path864" /></g><g
       id="g868"
       transform="matrix(0.2498806,0,0,-0.2506906,-202.03325,443.71194)"><path
         d="M 0,0 H -87"
         style="fill:none;stroke:#0000ff;stroke-width:5;stroke-linecap:round;stroke-linejoin:round;stroke-miterlimit:4;stroke-dasharray:none;stroke-opacity:1"
         id="path870" /></g><g
       id="g874"
       transform="matrix(0.2498806,0,0,-0.2506906,-49.855961,365.74717)"><path
         d="m 0,0 -9,-7 -11,-11 -12,-11 -11,-11 -11,-11 -12,-10 -11,-9 -11,-10 -12,-8 -11,-8 -12,-7 -11,-7 -11,-6 -12,-5 -11,-4 -12,-4 -11,-2 -11,-3 -11,-2 -12,-1 -11,-1 -12,-1 h -11 -11 -4 -8 -4 -11 -11 l -12,1 -11,1 -11,1 -12,1 -11,1 -11,2 -12,2 -11,3 -12,3 -11,3 -11,4 -12,4 -11,5 -12,5 -11,6 -11,6 -12,6 -11,6 -11,6 -12,7 -11,6 -11,7 -12,6 -11,7 -11,7 -12,7 -11,7 -12,8 -11,9 -11,10 -12,13 -11,15 -12,17 -11,22 -11,27 -11,31"
         style="fill:none;stroke:#01ff00;stroke-width:5;stroke-linecap:round;stroke-linejoin:round;stroke-miterlimit:4;stroke-dasharray:none;stroke-opacity:1"
         id="path876" /></g><g
       id="g880"
       transform="matrix(0.2498806,0,0,-0.2506906,-49.855961,351.7085)"><path
         d="m 0,0 -9,-8 -11,-10 -12,-11 -11,-11 -11,-11 -12,-11 -11,-10 -11,-9 -12,-9 -11,-8 -12,-8 -11,-8 -11,-6 -12,-6 -11,-5 -12,-4 -11,-4 -11,-3 -11,-3 -12,-2 -11,-2 -12,-1 -11,-1 -11,-1 -12,-1 h -11 l -11,-1 h -12 -4 l -11,1 h -11 l -12,1 -11,1 -11,1 -12,2 -11,2 -12,2 -11,3 -11,4 -12,4 -11,5 -12,5 -11,5 -11,6 -12,6 -11,6 -11,7 -12,7 -11,6 -11,7 -12,7 -11,6 -11,7 -12,7 -11,7 -12,8 -11,9 -11,10 -12,12 -11,15 -12,18 -11,21 -11,27 -10,28"
         style="fill:none;stroke:#ff0000;stroke-width:5;stroke-linecap:round;stroke-linejoin:round;stroke-miterlimit:4;stroke-dasharray:none;stroke-opacity:1"
         id="path882" /></g><g
       id="g886"
       transform="matrix(0.2498806,0,0,-0.2506906,-49.855961,379.28446)"><path
         d="m 0,0 -9,-8 -11,-11 -12,-11 -11,-11 -11,-11 -12,-10 -11,-9 -11,-8 -12,-8 -11,-7 -12,-6 -11,-6 -11,-5 -12,-4 -11,-3 -12,-2 -11,-2 -11,-2 h -11 l -12,-1 h -11 -4 -8 -3 -8 -4 -11 l -12,1 h -11 l -11,1 -12,2 -11,1 -11,1 -12,1 -11,2 -11,2 -12,3 -11,3 -12,3 -11,4 -11,4 -12,5 -11,5 -12,5 -11,6 -11,6 -12,6 -11,6 -11,7 -12,6 -11,7 -11,6 -12,6 -11,7 -11,6 -12,7 -11,7 -12,8 -11,9 -11,10 -12,12 -11,14 -12,18 -11,22 -11,27 -10,29"
         style="fill:none;stroke:#0000ff;stroke-width:5;stroke-linecap:round;stroke-linejoin:round;stroke-miterlimit:4;stroke-dasharray:none;stroke-opacity:1"
         id="path888" /></g><g
       id="g904"
       clip-path="url(#clipPath908)" /><g
       id="g1082"
       clip-path="url(#clipPath1086)" /><g
       id="g1266"
       clip-path="url(#clipPath1270)" /></g></svg>
