<?xml version="1.0" encoding="UTF-8" standalone="no"?>
<!-- Created with Inkscape (http://www.inkscape.org/) -->

<svg
   version="1.1"
   id="svg2"
   xml:space="preserve"
   width="197.58826"
   height="188.44128"
   viewBox="0 0 197.58826 188.44128"
   sodipodi:docname="hmc902lp3e_functional_block_diagram.svg"
   inkscape:version="1.1 (c4e8f9ed74, 2021-05-24)"
   xmlns:inkscape="http://www.inkscape.org/namespaces/inkscape"
   xmlns:sodipodi="http://sodipodi.sourceforge.net/DTD/sodipodi-0.dtd"
   xmlns="http://www.w3.org/2000/svg"
   xmlns:svg="http://www.w3.org/2000/svg"><defs
     id="defs6"><clipPath
       clipPathUnits="userSpaceOnUse"
       id="clipPath16"><path
         d="m 54.03,704.07 h 160.25 v 46.2 H 54.03 Z"
         id="path14" /></clipPath><clipPath
       clipPathUnits="userSpaceOnUse"
       id="clipPath34"><path
         d="M 219.66,698.4 H 581.4 V 756 H 219.66 Z"
         id="path32" /></clipPath><clipPath
       clipPathUnits="userSpaceOnUse"
       id="clipPath42"><path
         d="M 219.66,698.4 H 581.4 V 756 H 219.66 Z"
         id="path40" /></clipPath><clipPath
       clipPathUnits="userSpaceOnUse"
       id="clipPath54"><path
         d="M 219.66,698.4 H 581.4 V 756 H 219.66 Z"
         id="path52" /></clipPath><clipPath
       clipPathUnits="userSpaceOnUse"
       id="clipPath66"><path
         d="m 234.42,668.94 h 346.5 v 27 h -346.5 z"
         id="path64" /></clipPath><clipPath
       clipPathUnits="userSpaceOnUse"
       id="clipPath78"><path
         d="m 234.42,668.94 h 346.5 v 27 h -346.5 z"
         id="path76" /></clipPath><clipPath
       clipPathUnits="userSpaceOnUse"
       id="clipPath124"><path
         d="M 48.6,33.3 H 304.38 V 79.2 H 48.6 Z"
         id="path122" /></clipPath><clipPath
       clipPathUnits="userSpaceOnUse"
       id="clipPath136"><path
         d="M 48.6,33.3 H 304.38 V 79.2 H 48.6 Z"
         id="path134" /></clipPath><clipPath
       clipPathUnits="userSpaceOnUse"
       id="clipPath144"><path
         d="M 48.6,33.3 H 304.38 V 79.2 H 48.6 Z"
         id="path142" /></clipPath><clipPath
       clipPathUnits="userSpaceOnUse"
       id="clipPath156"><path
         d="M 48.6,33.3 H 304.38 V 79.2 H 48.6 Z"
         id="path154" /></clipPath><clipPath
       clipPathUnits="userSpaceOnUse"
       id="clipPath164"><path
         d="M 48.6,33.3 H 304.38 V 79.2 H 48.6 Z"
         id="path162" /></clipPath><clipPath
       clipPathUnits="userSpaceOnUse"
       id="clipPath176"><path
         d="M 48.6,33.3 H 304.38 V 79.2 H 48.6 Z"
         id="path174" /></clipPath><clipPath
       clipPathUnits="userSpaceOnUse"
       id="clipPath190"><path
         d="M 48.6,33.3 H 304.38 V 79.2 H 48.6 Z"
         id="path188" /></clipPath><clipPath
       clipPathUnits="userSpaceOnUse"
       id="clipPath206"><path
         d="M 48.6,33.3 H 304.38 V 79.2 H 48.6 Z"
         id="path204" /></clipPath><clipPath
       clipPathUnits="userSpaceOnUse"
       id="clipPath218"><path
         d="M 48.6,33.3 H 304.38 V 79.2 H 48.6 Z"
         id="path216" /></clipPath><clipPath
       clipPathUnits="userSpaceOnUse"
       id="clipPath226"><path
         d="m 304.38,33.3 h 21.3 v 45.9 h -21.3 z"
         id="path224" /></clipPath><clipPath
       clipPathUnits="userSpaceOnUse"
       id="clipPath240"><path
         d="M 325.62,33.3 H 581.4 V 79.2 H 325.62 Z"
         id="path238" /></clipPath><clipPath
       clipPathUnits="userSpaceOnUse"
       id="clipPath252"><path
         d="M 325.62,33.3 H 581.4 V 79.2 H 325.62 Z"
         id="path250" /></clipPath><clipPath
       clipPathUnits="userSpaceOnUse"
       id="clipPath260"><path
         d="M 325.62,33.3 H 581.4 V 79.2 H 325.62 Z"
         id="path258" /></clipPath><clipPath
       clipPathUnits="userSpaceOnUse"
       id="clipPath272"><path
         d="M 325.62,33.3 H 581.4 V 79.2 H 325.62 Z"
         id="path270" /></clipPath><clipPath
       clipPathUnits="userSpaceOnUse"
       id="clipPath280"><path
         d="M 325.62,33.3 H 581.4 V 79.2 H 325.62 Z"
         id="path278" /></clipPath><clipPath
       clipPathUnits="userSpaceOnUse"
       id="clipPath350"><path
         d="M 374.33,481.42 H 534.68 V 641.77 H 374.33 Z"
         id="path348" /></clipPath></defs><sodipodi:namedview
     id="namedview4"
     pagecolor="#ffffff"
     bordercolor="#666666"
     borderopacity="1.0"
     inkscape:pageshadow="2"
     inkscape:pageopacity="0.0"
     inkscape:pagecheckerboard="0"
     showgrid="false"
     inkscape:zoom="1.6581447"
     inkscape:cx="205.04845"
     inkscape:cy="96.191845"
     inkscape:window-width="1366"
     inkscape:window-height="740"
     inkscape:window-x="0"
     inkscape:window-y="0"
     inkscape:window-maximized="1"
     inkscape:current-layer="g8" /><g
     id="g8"
     inkscape:groupmode="layer"
     inkscape:label="hmc902lp3e"
     transform="matrix(1.3333333,0,0,-1.3333333,-1135.6822,685.48981)"><g
       id="g28"><g
         id="g30"
         clip-path="url(#clipPath34)" /></g><g
       id="g48"><g
         id="g50"
         clip-path="url(#clipPath54)" /></g><g
       id="g72"><g
         id="g74"
         clip-path="url(#clipPath78)" /></g><g
       id="g130"><g
         id="g132"
         clip-path="url(#clipPath136)" /></g><g
       id="g150"><g
         id="g152"
         clip-path="url(#clipPath156)" /></g><g
       id="g170"><g
         id="g172"
         clip-path="url(#clipPath176)" /></g><g
       id="g212"><g
         id="g214"
         clip-path="url(#clipPath218)" /></g><g
       id="g220"><g
         id="g222"
         clip-path="url(#clipPath226)" /></g><g
       id="g246"><g
         id="g248"
         clip-path="url(#clipPath252)" /></g><g
       id="g266"><g
         id="g268"
         clip-path="url(#clipPath272)" /></g><g
       id="g274"><g
         id="g276"
         clip-path="url(#clipPath280)" /></g><path
       d="m 945.12247,403.34543 h 0.50188 v 2.00751 h -0.50188 z m 0,3.51314 h 0.50188 v 2.00751 h -0.50188 z m -2.00751,4.26596 c 0.75281,-0.25094 1.25469,-0.50188 1.50563,-1.00375 l 0.50188,0.25094 c -0.50188,0.50187 -1.00376,1.00375 -1.75657,1.25469 z m -2.76033,-1.00375 c 0.25094,0.50187 1.00375,0.75281 1.50563,1.00375 v 0.50188 c -0.75281,-0.25094 -1.50563,-0.50188 -2.00751,-1.25469 z m -0.50188,-1.2547 h -0.50188 v -2.00751 h 0.50188 z m 0,-3.2622 h -0.50188 v -2.00751 h 0.50188 z"
       style="fill:#b4b4b4;fill-opacity:1;fill-rule:nonzero;stroke:none;stroke-width:0.250939"
       id="path354" /><path
       d="m 927.55669,401.33781 v -1.50563 H 926.302 v -0.50188 h 1.75657 v 2.00751 z"
       style="fill:#b4b4b4;fill-opacity:1;fill-rule:nonzero;stroke:none;stroke-width:0.250939"
       id="path360" /><path
       d="m 923.7926,399.83218 h -1.25469 v 1.50563 h -0.50188 v -2.00751 h 1.75657 z"
       style="fill:#b4b4b4;fill-opacity:1;fill-rule:nonzero;stroke:none;stroke-width:0.250939"
       id="path366" /><path
       d="m 927.55674,403.34543 h 0.50188 v 2.00751 h -0.50188 z m 0,3.51314 h 0.50188 v 2.00751 h -0.50188 z m -1.75657,4.26596 c 0.50187,-0.25094 1.00375,-0.50188 1.25469,-1.00375 l 0.50188,0.25094 c -0.25094,0.50187 -1.00376,1.00375 -1.75657,1.25469 z m -3.01127,-1.00375 c 0.50188,0.50187 1.00375,0.75281 1.50563,1.00375 v 0.50188 c -0.75281,-0.25094 -1.50563,-0.50188 -1.75657,-1.25469 z m -0.25094,-1.2547 h -0.50188 v -2.00751 h 0.50188 z m 0,-3.2622 h -0.50188 v -2.00751 h 0.50188 z"
       style="fill:#b4b4b4;fill-opacity:1;fill-rule:nonzero;stroke:none;stroke-width:0.250939"
       id="path370" /><path
       d="m 909.99096,401.33781 v -1.50563 h -1.2547 v -0.50188 h 1.75658 v 2.00751 z"
       style="fill:#b4b4b4;fill-opacity:1;fill-rule:nonzero;stroke:none;stroke-width:0.250939"
       id="path376" /><path
       d="m 906.22687,399.83218 h -1.2547 v 1.50563 h -0.50187 v -2.00751 h 1.75657 z"
       style="fill:#b4b4b4;fill-opacity:1;fill-rule:nonzero;stroke:none;stroke-width:0.250939"
       id="path382" /><path
       d="m 909.99101,403.34543 h 0.50188 v 2.00751 h -0.50188 z m 0,3.51314 h 0.50188 v 2.00751 h -0.50188 z m -1.75657,4.26596 c 0.50187,-0.25094 1.00375,-0.50188 1.50563,-1.00375 l 0.25094,0.25094 c -0.25094,0.50187 -1.00376,1.00375 -1.75657,1.25469 z m -2.76033,-1.00375 c 0.25094,0.50187 0.75281,0.75281 1.50563,1.00375 l -0.25094,0.50188 c -0.75281,-0.25094 -1.25469,-0.50188 -1.75657,-1.25469 z m -0.50188,-1.2547 h -0.50188 v -2.00751 h 0.50188 z m 0,-3.2622 h -0.50188 v -2.00751 h 0.50188 z"
       style="fill:#b4b4b4;fill-opacity:1;fill-rule:nonzero;stroke:none;stroke-width:0.250939"
       id="path386" /><path
       d="m 892.42523,401.33781 v -1.50563 h -1.25469 v -0.50188 h 1.75657 v 2.00751 z"
       style="fill:#b4b4b4;fill-opacity:1;fill-rule:nonzero;stroke:none;stroke-width:0.250939"
       id="path392" /><path
       d="m 888.66114,399.83218 h -1.25469 v 1.50563 h -0.50188 v -2.00751 h 1.75657 z"
       style="fill:#b4b4b4;fill-opacity:1;fill-rule:nonzero;stroke:none;stroke-width:0.250939"
       id="path398" /><path
       d="m 892.42528,403.34543 h 0.50188 v 2.00751 h -0.50188 z m 0,3.51314 h 0.50188 v 2.00751 h -0.50188 z m -1.75657,4.26596 c 0.75281,-0.25094 1.25469,-0.50188 1.50563,-1.00375 l 0.50188,0.25094 c -0.50188,0.50187 -1.00376,1.00375 -1.75657,1.25469 z m -2.76033,-1.00375 c 0.25094,0.50187 0.75281,0.75281 1.50563,1.00375 l -0.25094,0.50188 c -0.75281,-0.25094 -1.25469,-0.50188 -1.75657,-1.25469 z m -0.50188,-1.2547 h -0.50188 v -2.00751 h 0.50188 z m 0,-3.2622 h -0.50188 v -2.00751 h 0.50188 z"
       style="fill:#b4b4b4;fill-opacity:1;fill-rule:nonzero;stroke:none;stroke-width:0.250939"
       id="path402" /><path
       d="m 945.6243,495.4399 v 1.75657 h -2.00751 v -0.50188 h 1.50563 v -1.25469 z"
       style="fill:#b4b4b4;fill-opacity:1;fill-rule:nonzero;stroke:none;stroke-width:0.250939"
       id="path408" /><path
       d="m 941.1074,497.19647 h -1.75657 v -1.75657 h 0.50188 v 1.25469 h 1.25469 z"
       style="fill:#b4b4b4;fill-opacity:1;fill-rule:nonzero;stroke:none;stroke-width:0.250939"
       id="path414" /><path
       d="m 945.62435,493.18155 h -0.50188 v -1.75657 h 0.50188 z m 0,-3.2622 h -0.50188 v -2.00751 h 0.50188 z m -2.25845,-4.76784 c 0.75281,0.25094 1.25469,0.50188 1.75657,1.25469 l -0.50188,0.25094 c -0.25094,-0.50188 -0.75282,-0.75282 -1.50563,-1.00375 z m -3.51315,1.00375 c 0.50188,-0.50187 1.2547,-1.00375 2.00751,-1.00375 v 0.50188 c -0.50188,0 -1.25469,0.50187 -1.50563,0.75281 z m -0.50188,1.50564 h 0.50188 v 2.00751 h -0.50188 z m 0,3.51314 h 0.50188 v 2.00751 h -0.50188 z"
       style="fill:#b4b4b4;fill-opacity:1;fill-rule:nonzero;stroke:none;stroke-width:0.250939"
       id="path418" /><path
       d="m 928.05857,495.4399 v 1.75657 H 926.302 v -0.50188 h 1.25469 v -1.25469 z"
       style="fill:#b4b4b4;fill-opacity:1;fill-rule:nonzero;stroke:none;stroke-width:0.250939"
       id="path424" /><path
       d="m 923.7926,497.19647 h -1.75657 v -1.75657 h 0.50188 v 1.25469 h 1.25469 z"
       style="fill:#b4b4b4;fill-opacity:1;fill-rule:nonzero;stroke:none;stroke-width:0.250939"
       id="path430" /><path
       d="m 928.05862,493.18155 h -0.50188 v -1.75657 h 0.50188 z m 0,-3.2622 h -0.50188 v -2.00751 h 0.50188 z m -2.25845,-4.76784 c 0.75281,0.25094 1.50563,0.50188 1.75657,1.25469 l -0.50188,0.25094 c -0.25094,-0.50188 -0.75282,-0.75282 -1.25469,-1.00375 z m -3.26221,1.00375 c 0.25094,-0.50187 1.00376,-1.00375 1.75657,-1.00375 v 0.50188 c -0.50188,0 -1.00375,0.50187 -1.50563,0.75281 z m -0.50188,1.50564 h 0.50188 v 2.00751 h -0.50188 z m 0,3.51314 h 0.50188 v 2.00751 h -0.50188 z"
       style="fill:#b4b4b4;fill-opacity:1;fill-rule:nonzero;stroke:none;stroke-width:0.250939"
       id="path434" /><path
       d="m 910.49284,495.4399 v 1.75657 h -1.75657 v -0.50188 h 1.25469 v -1.25469 z"
       style="fill:#b4b4b4;fill-opacity:1;fill-rule:nonzero;stroke:none;stroke-width:0.250939"
       id="path440" /><path
       d="m 906.22687,497.19647 h -1.75657 v -1.75657 h 0.50187 v 1.25469 h 1.2547 z"
       style="fill:#b4b4b4;fill-opacity:1;fill-rule:nonzero;stroke:none;stroke-width:0.250939"
       id="path446" /><path
       d="m 910.49289,493.18155 h -0.50188 v -1.75657 h 0.50188 z m 0,-3.2622 h -0.50188 v -2.00751 h 0.50188 z m -2.25845,-4.76784 c 0.75281,0.25094 1.50563,0.50188 1.75657,1.25469 l -0.25094,0.25094 c -0.50188,-0.50188 -1.00376,-0.75282 -1.50563,-1.00375 z m -3.26221,1.00375 c 0.50188,-0.50187 1.00376,-1.00375 1.75657,-1.00375 l 0.25094,0.50188 c -0.75282,0 -1.25469,0.50187 -1.50563,0.75281 z m -0.50188,1.50564 h 0.50188 v 2.00751 h -0.50188 z m 0,3.51314 h 0.50188 v 2.00751 h -0.50188 z"
       style="fill:#b4b4b4;fill-opacity:1;fill-rule:nonzero;stroke:none;stroke-width:0.250939"
       id="path450" /><path
       d="m 892.92711,495.4399 v 1.75657 h -1.75657 v -0.50188 h 1.25469 v -1.25469 z"
       style="fill:#b4b4b4;fill-opacity:1;fill-rule:nonzero;stroke:none;stroke-width:0.250939"
       id="path456" /><path
       d="m 888.66114,497.19647 h -1.75657 v -1.75657 h 0.50188 v 1.25469 h 1.25469 z"
       style="fill:#b4b4b4;fill-opacity:1;fill-rule:nonzero;stroke:none;stroke-width:0.250939"
       id="path462" /><path
       d="m 892.92716,493.18155 h -0.50188 v -1.75657 h 0.50188 z m 0,-3.2622 h -0.50188 v -2.00751 h 0.50188 z m -2.00751,-4.76784 c 0.75281,0.25094 1.25469,0.50188 1.75657,1.25469 l -0.50188,0.25094 c -0.25094,-0.50188 -0.75282,-0.75282 -1.50563,-1.00375 z m -3.51315,1.00375 c 0.50188,-0.50187 1.00376,-1.00375 1.75657,-1.00375 l 0.25094,0.50188 c -0.75282,0 -1.25469,0.50187 -1.50563,0.75281 z m -0.50188,1.50564 h 0.50188 v 2.00751 h -0.50188 z m 0,3.51314 h 0.50188 v 2.00751 h -0.50188 z"
       style="fill:#b4b4b4;fill-opacity:1;fill-rule:nonzero;stroke:none;stroke-width:0.250939"
       id="path466" /><path
       d="m 869.0879,419.65635 h -1.25469 v 1.25469 h -0.50188 v -1.75657 h 1.75657 z"
       style="fill:#b4b4b4;fill-opacity:1;fill-rule:nonzero;stroke:none;stroke-width:0.250939"
       id="path472" /><path
       d="m 867.83321,423.42044 v 1.25469 h 1.25469 v 0.50188 h -1.75657 v -1.75657 z"
       style="fill:#b4b4b4;fill-opacity:1;fill-rule:nonzero;stroke:none;stroke-width:0.250939"
       id="path478" /><path
       d="m 873.35392,419.65645 h -2.00752 v -0.50187 h 2.00752 z m 3.51314,0 h -2.00751 v -0.50187 h 2.00751 z m 2.50939,1.75658 c -0.25094,-0.75282 -0.75282,-1.2547 -1.25469,-1.50564 l 0.25094,-0.50187 c 0.75281,0.50187 1.25469,1.00375 1.25469,1.75657 z m -1.00375,2.76033 c 0.50187,-0.25094 0.75281,-0.75282 1.00375,-1.50564 l 0.50188,0.25094 c -0.25094,0.75282 -0.75282,1.2547 -1.2547,1.75657 z m -3.26221,0.50187 h 2.00751 v 0.50188 h -2.00751 z m -3.51315,0 h 2.00751 v 0.50188 h -2.00751 z"
       style="fill:#b4b4b4;fill-opacity:1;fill-rule:nonzero;stroke:none;stroke-width:0.250939"
       id="path482" /><path
       d="m 869.0879,436.97114 h -1.25469 v 1.50563 h -0.50188 v -2.00751 h 1.75657 z"
       style="fill:#b4b4b4;fill-opacity:1;fill-rule:nonzero;stroke:none;stroke-width:0.250939"
       id="path488" /><path
       d="m 867.83321,440.98616 v 1.25469 h 1.25469 v 0.50188 h -1.75657 v -1.75657 z"
       style="fill:#b4b4b4;fill-opacity:1;fill-rule:nonzero;stroke:none;stroke-width:0.250939"
       id="path494" /><path
       d="m 873.35392,436.97124 h -2.00752 v -0.50188 h 2.00752 z m 3.51314,0 h -2.00751 v -0.50188 h 2.00751 z m 2.50939,2.00751 c -0.25094,-0.75282 -0.75282,-1.25469 -1.25469,-1.50563 l 0.25094,-0.50188 c 0.75281,0.50188 1.25469,1.00375 1.25469,1.75657 z m -1.00375,2.76033 c 0.50187,-0.25094 0.75281,-0.75282 1.00375,-1.50564 h 0.50188 c -0.25094,0.75282 -0.75282,1.50564 -1.2547,2.00752 z m -3.26221,0.50188 h 2.00751 v 0.50187 h -2.00751 z m -3.51315,0 h 2.00751 v 0.50187 h -2.00751 z"
       style="fill:#b4b4b4;fill-opacity:1;fill-rule:nonzero;stroke:none;stroke-width:0.250939"
       id="path498" /><path
       d="m 869.0879,454.53686 h -1.25469 v 1.25469 h -0.50188 v -1.75657 h 1.75657 z"
       style="fill:#b4b4b4;fill-opacity:1;fill-rule:nonzero;stroke:none;stroke-width:0.250939"
       id="path504" /><path
       d="m 867.83321,458.30095 v 1.25469 h 1.25469 v 0.50188 h -1.75657 v -1.75657 z"
       style="fill:#b4b4b4;fill-opacity:1;fill-rule:nonzero;stroke:none;stroke-width:0.250939"
       id="path510" /><path
       d="m 873.35392,454.53696 h -2.00752 v -0.50188 h 2.00752 z m 3.51314,0 h -2.00751 v -0.50188 h 2.00751 z m 2.50939,1.75657 c -0.25094,-0.50187 -0.75282,-1.00375 -1.25469,-1.50563 l 0.25094,-0.25094 c 0.75281,0.25094 1.25469,1.00376 1.25469,1.75657 z m -1.00375,3.01127 c 0.50187,-0.50188 0.75281,-1.00375 1.00375,-1.50563 h 0.50188 c -0.25094,0.75281 -0.75282,1.50563 -1.2547,1.75657 z m -3.26221,0.25094 h 2.00751 v 0.50188 h -2.00751 z m -3.51315,0 h 2.00751 v 0.50188 h -2.00751 z"
       style="fill:#b4b4b4;fill-opacity:1;fill-rule:nonzero;stroke:none;stroke-width:0.250939"
       id="path514" /><path
       d="m 869.0879,472.10258 h -1.25469 v 1.25469 h -0.50188 v -1.75657 h 1.75657 z"
       style="fill:#b4b4b4;fill-opacity:1;fill-rule:nonzero;stroke:none;stroke-width:0.250939"
       id="path520" /><path
       d="m 867.83321,475.86667 v 1.25469 h 1.25469 v 0.50188 h -1.75657 v -1.75657 z"
       style="fill:#b4b4b4;fill-opacity:1;fill-rule:nonzero;stroke:none;stroke-width:0.250939"
       id="path526" /><path
       d="m 873.35392,472.10269 h -2.00752 v -0.50188 h 2.00752 z m 3.51314,0 h -2.00751 v -0.50188 h 2.00751 z m 2.50939,1.75657 c -0.25094,-0.50188 -0.75282,-1.00376 -1.25469,-1.50564 l 0.25094,-0.25093 c 0.75281,0.25093 1.25469,1.00375 1.25469,1.75657 z m -1.00375,3.01126 c 0.50187,-0.50187 0.75281,-1.00375 1.00375,-1.50563 h 0.50188 c -0.25094,0.75282 -0.75282,1.50563 -1.2547,1.75657 z m -3.26221,0.25094 h 2.00751 v 0.50188 h -2.00751 z m -3.51315,0 h 2.00751 v 0.50188 h -2.00751 z"
       style="fill:#b4b4b4;fill-opacity:1;fill-rule:nonzero;stroke:none;stroke-width:0.250939"
       id="path530" /><path
       d="m 963.19003,419.15448 h 1.75657 v 1.75657 h -0.50188 v -1.25469 h -1.25469 z"
       style="fill:#b4b4b4;fill-opacity:1;fill-rule:nonzero;stroke:none;stroke-width:0.250939"
       id="path536" /><path
       d="m 964.9466,423.42044 v 1.75657 h -1.75657 v -0.50188 h 1.25469 v -1.25469 z"
       style="fill:#b4b4b4;fill-opacity:1;fill-rule:nonzero;stroke:none;stroke-width:0.250939"
       id="path542" /><path
       d="m 958.92411,419.15458 h 2.00752 v 0.50187 h -2.00752 z m -3.2622,0 h 2.00751 v 0.50187 h -2.00751 z m -2.76033,2.00751 c 0,-0.75282 0.50188,-1.2547 1.00375,-1.75657 l 0.50188,0.50187 c -0.50188,0.25094 -1.00375,0.75282 -1.25469,1.50564 z m 1.00375,3.51314 c -0.50187,-0.50187 -1.00375,-1.00375 -1.25469,-1.75657 l 0.50188,-0.25094 c 0.25094,0.75282 0.50188,1.2547 1.00375,1.50564 z m 3.51315,0.50188 h -2.00751 v -0.50188 h 2.00751 z m 3.51315,0 h -2.00752 v -0.50188 h 2.00752 z"
       style="fill:#b4b4b4;fill-opacity:1;fill-rule:nonzero;stroke:none;stroke-width:0.250939"
       id="path546" /><path
       d="m 963.19003,436.46926 h 1.75657 v 2.00751 h -0.50188 v -1.50563 h -1.25469 z"
       style="fill:#b4b4b4;fill-opacity:1;fill-rule:nonzero;stroke:none;stroke-width:0.250939"
       id="path552" /><path
       d="m 964.9466,440.98616 v 1.75657 h -1.75657 v -0.50188 h 1.25469 v -1.25469 z"
       style="fill:#b4b4b4;fill-opacity:1;fill-rule:nonzero;stroke:none;stroke-width:0.250939"
       id="path558" /><path
       d="m 958.92411,436.46936 h 2.00752 v 0.50188 h -2.00752 z m -3.2622,0 h 2.00751 v 0.50188 h -2.00751 z m -2.76033,2.25845 c 0,-0.75282 0.50188,-1.25469 1.00375,-1.75657 l 0.50188,0.50188 c -0.50188,0.25094 -1.00375,0.75281 -1.25469,1.50563 z m 1.00375,3.51315 c -0.50187,-0.50188 -1.00375,-1.2547 -1.25469,-2.00752 h 0.50188 c 0.25094,0.50188 0.50188,1.2547 1.00375,1.50564 z m 3.51315,0.50187 h -2.00751 v -0.50187 h 2.00751 z m 3.51315,0 h -2.00752 v -0.50187 h 2.00752 z"
       style="fill:#b4b4b4;fill-opacity:1;fill-rule:nonzero;stroke:none;stroke-width:0.250939"
       id="path562" /><path
       d="m 963.19003,454.03498 h 1.75657 v 1.75657 h -0.50188 v -1.25469 h -1.25469 z"
       style="fill:#b4b4b4;fill-opacity:1;fill-rule:nonzero;stroke:none;stroke-width:0.250939"
       id="path568" /><path
       d="m 964.9466,458.30095 v 1.75657 h -1.75657 v -0.50188 h 1.25469 v -1.25469 z"
       style="fill:#b4b4b4;fill-opacity:1;fill-rule:nonzero;stroke:none;stroke-width:0.250939"
       id="path574" /><path
       d="m 958.92411,454.03508 h 2.00752 v 0.50188 h -2.00752 z m -3.2622,0 h 2.00751 v 0.50188 h -2.00751 z m -2.76033,2.25845 c 0,-0.75281 0.50188,-1.50563 1.00375,-1.75657 l 0.50188,0.50188 c -0.50188,0.25094 -1.00375,0.75282 -1.25469,1.25469 z m 1.00375,3.26221 c -0.50187,-0.25094 -1.00375,-1.00376 -1.25469,-1.75657 h 0.50188 c 0.25094,0.50188 0.50188,1.00375 1.00375,1.50563 z m 3.51315,0.50188 h -2.00751 v -0.50188 h 2.00751 z m 3.51315,0 h -2.00752 v -0.50188 h 2.00752 z"
       style="fill:#b4b4b4;fill-opacity:1;fill-rule:nonzero;stroke:none;stroke-width:0.250939"
       id="path578" /><path
       d="m 963.19003,471.60071 h 1.75657 v 1.75657 h -0.50188 v -1.25469 h -1.25469 z"
       style="fill:#b4b4b4;fill-opacity:1;fill-rule:nonzero;stroke:none;stroke-width:0.250939"
       id="path584" /><path
       d="m 964.9466,475.86667 v 1.75657 h -1.75657 v -0.50188 h 1.25469 v -1.25469 z"
       style="fill:#b4b4b4;fill-opacity:1;fill-rule:nonzero;stroke:none;stroke-width:0.250939"
       id="path590" /><path
       d="m 958.92411,471.60081 h 2.00752 v 0.50188 h -2.00752 z m -3.2622,0 h 2.00751 v 0.50188 h -2.00751 z m -2.76033,2.25845 c 0,-0.75282 0.50188,-1.50564 1.00375,-1.75657 l 0.50188,0.25093 c -0.50188,0.50188 -1.00375,1.00376 -1.25469,1.50564 z m 1.00375,3.2622 c -0.50187,-0.50187 -1.00375,-1.00375 -1.25469,-1.75657 h 0.50188 c 0.25094,0.50188 0.50188,1.00376 1.00375,1.50563 z m 3.51315,0.50188 h -2.00751 v -0.50188 h 2.00751 z m 3.51315,0 h -2.00752 v -0.50188 h 2.00752 z"
       style="fill:#b4b4b4;fill-opacity:1;fill-rule:nonzero;stroke:none;stroke-width:0.250939"
       id="path594" /><path
       d="m 867.33138,496.94564 h 97.86621 V 399.3304 h -97.86621 z"
       style="fill:none;stroke:#000000;stroke-width:1.00376;stroke-linecap:round;stroke-linejoin:round;stroke-miterlimit:10;stroke-dasharray:none;stroke-opacity:1"
       id="path598" /><text
       transform="scale(1,-1)"
       style="font-variant:normal;font-weight:bold;font-stretch:normal;font-size:6.0225px;font-family:Arial;-inkscape-font-specification:Arial-BoldMT;writing-mode:lr-tb;fill:#000000;fill-opacity:1;fill-rule:nonzero;stroke:none"
       id="text602"
       x="854.48468"
       y="-472.01202"><tspan
         x="854.48468 858.7486 860.50537"
         y="-472.01202"
         sodipodi:role="line"
         id="tspan600">NIC</tspan></text><text
       transform="scale(1,-1)"
       style="font-variant:normal;font-weight:bold;font-stretch:normal;font-size:6.0225px;font-family:Arial;-inkscape-font-specification:Arial-BoldMT;writing-mode:lr-tb;fill:#000000;fill-opacity:1;fill-rule:nonzero;stroke:none"
       id="text606"
       x="854.48468"
       y="-454.41373"><tspan
         x="854.48468 858.7486 860.50537"
         y="-454.41373"
         sodipodi:role="line"
         id="tspan604">NIC</tspan></text><text
       transform="scale(1,-1)"
       style="font-variant:normal;font-weight:bold;font-stretch:normal;font-size:6.0225px;font-family:Arial;-inkscape-font-specification:Arial-BoldMT;writing-mode:lr-tb;fill:#000000;fill-opacity:1;fill-rule:nonzero;stroke:none"
       id="text610"
       x="851.80957"
       y="-436.94812"><tspan
         x="851.80957 856.07349"
         y="-436.94812"
         sodipodi:role="line"
         id="tspan608">RF</tspan></text><text
       transform="scale(1,-1)"
       style="font-variant:normal;font-weight:bold;font-stretch:normal;font-size:5.0188px;font-family:Arial;-inkscape-font-specification:Arial-BoldMT;writing-mode:lr-tb;fill:#000000;fill-opacity:1;fill-rule:nonzero;stroke:none"
       id="text614"
       x="859.83765"
       y="-435.4425"><tspan
         x="859.83765 861.34326"
         y="-435.4425"
         sodipodi:role="line"
         id="tspan612">IN</tspan></text><text
       transform="scale(1,-1)"
       style="font-variant:normal;font-weight:bold;font-stretch:normal;font-size:6.0225px;font-family:Arial;-inkscape-font-specification:Arial-BoldMT;writing-mode:lr-tb;fill:#000000;fill-opacity:1;fill-rule:nonzero;stroke:none"
       id="text618"
       x="851.47345"
       y="-419.22092"><tspan
         x="851.47345 856.24146 860.50537"
         y="-419.22092"
         sodipodi:role="line"
         id="tspan616">GND</tspan></text><text
       transform="scale(1,-1)"
       style="font-variant:normal;font-weight:bold;font-stretch:normal;font-size:6.0225px;font-family:Arial;-inkscape-font-specification:Arial-BoldMT;writing-mode:lr-tb;fill:#000000;fill-opacity:1;fill-rule:nonzero;stroke:none"
       id="text622"
       x="967.28748"
       y="-471.28931"><tspan
         x="967.28748 971.55139 973.30817"
         y="-471.28931"
         sodipodi:role="line"
         id="tspan620">NIC</tspan></text><text
       transform="matrix(0,1,1,0,0,0)"
       style="font-variant:normal;font-weight:bold;font-stretch:normal;font-size:6.0225px;font-family:Arial;-inkscape-font-specification:Arial-BoldMT;writing-mode:lr-tb;fill:#000000;fill-opacity:1;fill-rule:nonzero;stroke:none"
       id="text626"
       x="499.80502"
       y="945.70966"><tspan
         x="499.80502 504.06894 505.82571"
         y="945.70966"
         sodipodi:role="line"
         id="tspan624">NIC</tspan></text><text
       transform="matrix(0,1,1,0,0,0)"
       style="font-variant:normal;font-weight:bold;font-stretch:normal;font-size:6.0225px;font-family:Arial;-inkscape-font-specification:Arial-BoldMT;writing-mode:lr-tb;fill:#000000;fill-opacity:1;fill-rule:nonzero;stroke:none"
       id="text630"
       x="499.80502"
       y="927.65942"><tspan
         x="499.80502"
         y="927.65942"
         id="tspan628">V</tspan></text><text
       transform="matrix(0,1,1,0,0,0)"
       style="font-variant:normal;font-weight:bold;font-stretch:normal;font-size:5.0188px;font-family:Arial;-inkscape-font-specification:Arial-BoldMT;writing-mode:lr-tb;fill:#000000;fill-opacity:1;fill-rule:nonzero;stroke:none"
       id="text634"
       x="503.82202"
       y="929.16504"><tspan
         x="503.82202 507.33517"
         y="929.16504"
         sodipodi:role="line"
         id="tspan632">DD</tspan></text><text
       transform="matrix(0,1,1,0,0,0)"
       style="font-variant:normal;font-weight:bold;font-stretch:normal;font-size:6.0225px;font-family:Arial;-inkscape-font-specification:Arial-BoldMT;writing-mode:lr-tb;fill:#000000;fill-opacity:1;fill-rule:nonzero;stroke:none"
       id="text638"
       x="511.07083"
       y="927.65942"><tspan
         x="511.07083"
         y="927.65942"
         id="tspan636">2</tspan></text><text
       transform="matrix(0,1,1,0,0,0)"
       style="font-variant:normal;font-weight:bold;font-stretch:normal;font-size:6.0225px;font-family:Arial;-inkscape-font-specification:Arial-BoldMT;writing-mode:lr-tb;fill:#000000;fill-opacity:1;fill-rule:nonzero;stroke:none"
       id="text642"
       x="499.80502"
       y="910.96893"><tspan
         x="499.80502"
         y="910.96893"
         id="tspan640">V</tspan></text><text
       transform="matrix(0,1,1,0,0,0)"
       style="font-variant:normal;font-weight:bold;font-stretch:normal;font-size:5.0188px;font-family:Arial;-inkscape-font-specification:Arial-BoldMT;writing-mode:lr-tb;fill:#000000;fill-opacity:1;fill-rule:nonzero;stroke:none"
       id="text646"
       x="503.82202"
       y="912.47467"><tspan
         x="503.82202 507.33517"
         y="912.47467"
         sodipodi:role="line"
         id="tspan644">DD</tspan></text><text
       transform="matrix(0,1,1,0,0,0)"
       style="font-variant:normal;font-weight:bold;font-stretch:normal;font-size:6.0225px;font-family:Arial;-inkscape-font-specification:Arial-BoldMT;writing-mode:lr-tb;fill:#000000;fill-opacity:1;fill-rule:nonzero;stroke:none"
       id="text650"
       x="511.07083"
       y="910.96893"><tspan
         x="511.07083"
         y="910.96893"
         id="tspan648">1</tspan></text><text
       transform="matrix(0,1,1,0,0,0)"
       style="font-variant:normal;font-weight:bold;font-stretch:normal;font-size:6.0225px;font-family:Arial;-inkscape-font-specification:Arial-BoldMT;writing-mode:lr-tb;fill:#000000;fill-opacity:1;fill-rule:nonzero;stroke:none"
       id="text654"
       x="499.80502"
       y="893.11334"><tspan
         x="499.80502 504.06894 505.82571"
         y="893.11334"
         sodipodi:role="line"
         id="tspan652">NIC</tspan></text><text
       transform="scale(1,-1)"
       style="font-variant:normal;font-weight:bold;font-stretch:normal;font-size:6.0225px;font-family:Arial;-inkscape-font-specification:Arial-BoldMT;writing-mode:lr-tb;fill:#000000;fill-opacity:1;fill-rule:nonzero;stroke:none"
       id="text658"
       x="967.28754"
       y="-453.69101"><tspan
         x="967.28754 971.55145 973.30823"
         y="-453.69101"
         sodipodi:role="line"
         id="tspan656">NIC</tspan></text><text
       transform="scale(1,-1)"
       style="font-variant:normal;font-weight:bold;font-stretch:normal;font-size:6.0225px;font-family:Arial;-inkscape-font-specification:Arial-BoldMT;writing-mode:lr-tb;fill:#000000;fill-opacity:1;fill-rule:nonzero;stroke:none"
       id="text662"
       x="967.28754"
       y="-436.22552"><tspan
         x="967.28754 971.55145"
         y="-436.22552"
         sodipodi:role="line"
         id="tspan660">RF</tspan></text><text
       transform="scale(1,-1)"
       style="font-variant:normal;font-weight:bold;font-stretch:normal;font-size:5.0188px;font-family:Arial;-inkscape-font-specification:Arial-BoldMT;writing-mode:lr-tb;fill:#000000;fill-opacity:1;fill-rule:nonzero;stroke:none"
       id="text666"
       x="975.31567"
       y="-434.71982"><tspan
         x="975.31567 979.33069 982.84387"
         y="-434.71982"
         sodipodi:role="line"
         id="tspan664">OUT</tspan></text><text
       transform="scale(1,-1)"
       style="font-variant:normal;font-weight:bold;font-stretch:normal;font-size:6.0225px;font-family:Arial;-inkscape-font-specification:Arial-BoldMT;writing-mode:lr-tb;fill:#000000;fill-opacity:1;fill-rule:nonzero;stroke:none"
       id="text670"
       x="967.28766"
       y="-418.49832"><tspan
         x="967.28766 972.05566 976.31958"
         y="-418.49832"
         sodipodi:role="line"
         id="tspan668">GND</tspan></text><text
       transform="scale(1,-1)"
       style="font-variant:normal;font-weight:bold;font-stretch:normal;font-size:6.0225px;font-family:Arial;-inkscape-font-specification:Arial-BoldMT;writing-mode:lr-tb;fill:#000000;fill-opacity:1;fill-rule:nonzero;stroke:none"
       id="text674"
       x="973.03223"
       y="-372.85992"><tspan
         x="973.03223 977.80029 982.06421"
         y="-372.85992"
         sodipodi:role="line"
         id="tspan672">GND</tspan></text><text
       transform="matrix(0,1,1,0,0,0)"
       style="font-variant:normal;font-weight:bold;font-stretch:normal;font-size:6.0225px;font-family:Arial;-inkscape-font-specification:Arial-BoldMT;writing-mode:lr-tb;fill:#000000;fill-opacity:1;fill-rule:nonzero;stroke:none"
       id="text678"
       x="386.77173"
       y="892.31555"><tspan
         x="386.77173 391.03564 392.79242"
         y="892.31555"
         sodipodi:role="line"
         id="tspan676">NIC</tspan></text><text
       transform="matrix(0,1,1,0,0,0)"
       style="font-variant:normal;font-weight:bold;font-stretch:normal;font-size:6.0225px;font-family:Arial;-inkscape-font-specification:Arial-BoldMT;writing-mode:lr-tb;fill:#000000;fill-opacity:1;fill-rule:nonzero;stroke:none"
       id="text682"
       x="381.96951"
       y="910.04175"><tspan
         x="381.96951"
         y="910.04175"
         id="tspan680">V</tspan></text><text
       transform="matrix(0,1,1,0,0,0)"
       style="font-variant:normal;font-weight:bold;font-stretch:normal;font-size:5.0188px;font-family:Arial;-inkscape-font-specification:Arial-BoldMT;writing-mode:lr-tb;fill:#000000;fill-opacity:1;fill-rule:nonzero;stroke:none"
       id="text686"
       x="385.98651"
       y="911.54742"><tspan
         x="385.98651 390.00156"
         y="911.54742"
         sodipodi:role="line"
         id="tspan684">GG</tspan></text><text
       transform="matrix(0,1,1,0,0,0)"
       style="font-variant:normal;font-weight:bold;font-stretch:normal;font-size:6.0225px;font-family:Arial;-inkscape-font-specification:Arial-BoldMT;writing-mode:lr-tb;fill:#000000;fill-opacity:1;fill-rule:nonzero;stroke:none"
       id="text690"
       x="393.79401"
       y="910.04175"><tspan
         x="393.79401"
         y="910.04175"
         id="tspan688">1</tspan></text><text
       transform="matrix(0,1,1,0,0,0)"
       style="font-variant:normal;font-weight:bold;font-stretch:normal;font-size:6.0225px;font-family:Arial;-inkscape-font-specification:Arial-BoldMT;writing-mode:lr-tb;fill:#000000;fill-opacity:1;fill-rule:nonzero;stroke:none"
       id="text694"
       x="381.96951"
       y="928.02826"><tspan
         x="381.96951"
         y="928.02826"
         id="tspan692">V</tspan></text><text
       transform="matrix(0,1,1,0,0,0)"
       style="font-variant:normal;font-weight:bold;font-stretch:normal;font-size:5.0188px;font-family:Arial;-inkscape-font-specification:Arial-BoldMT;writing-mode:lr-tb;fill:#000000;fill-opacity:1;fill-rule:nonzero;stroke:none"
       id="text698"
       x="385.98651"
       y="929.53394"><tspan
         x="385.98651 390.00156"
         y="929.53394"
         sodipodi:role="line"
         id="tspan696">GG</tspan></text><text
       transform="matrix(0,1,1,0,0,0)"
       style="font-variant:normal;font-weight:bold;font-stretch:normal;font-size:6.0225px;font-family:Arial;-inkscape-font-specification:Arial-BoldMT;writing-mode:lr-tb;fill:#000000;fill-opacity:1;fill-rule:nonzero;stroke:none"
       id="text702"
       x="393.79413"
       y="928.02826"><tspan
         x="393.79413"
         y="928.02826"
         id="tspan700">2</tspan></text><text
       transform="matrix(0,1,1,0,0,0)"
       style="font-variant:normal;font-weight:bold;font-stretch:normal;font-size:6.0225px;font-family:Arial;-inkscape-font-specification:Arial-BoldMT;writing-mode:lr-tb;fill:#000000;fill-opacity:1;fill-rule:nonzero;stroke:none"
       id="text706"
       x="386.77173"
       y="945.23865"><tspan
         x="386.77173 391.03564 392.79242"
         y="945.23865"
         sodipodi:role="line"
         id="tspan704">NIC</tspan></text><path
       d="m 879.62755,487.41005 c 0,-1.75657 -1.50563,-3.26221 -3.51315,-3.26221 -1.75657,0 -3.2622,1.50564 -3.2622,3.26221 0,2.00751 1.50563,3.51314 3.2622,3.51314 2.00752,0 3.51315,-1.50563 3.51315,-3.51314"
       style="fill:#ffffff;fill-opacity:1;fill-rule:nonzero;stroke:none;stroke-width:0.250939"
       id="path712" /><path
       d="m 879.62755,487.41005 c 0,-1.75657 -1.50563,-3.26221 -3.51315,-3.26221 -1.75657,0 -3.2622,1.50564 -3.2622,3.26221 0,2.00751 1.50563,3.51314 3.2622,3.51314 2.00752,0 3.51315,-1.50563 3.51315,-3.51314 z"
       style="fill:none;stroke:#000000;stroke-width:0.752817;stroke-linecap:butt;stroke-linejoin:miter;stroke-miterlimit:14;stroke-dasharray:none;stroke-opacity:1"
       id="path718" /><path
       d="m 879.62755,439.73166 h 29.10892 44.16527 z"
       style="fill:#ffffff;fill-opacity:1;fill-rule:nonzero;stroke:none;stroke-width:0.250939"
       id="path724" /><path
       d="m 879.62755,439.73166 h 29.10892 44.16527"
       style="fill:none;stroke:#000000;stroke-width:0.752817;stroke-linecap:butt;stroke-linejoin:miter;stroke-miterlimit:4;stroke-dasharray:none;stroke-opacity:1"
       id="path730" /><path
       d="m 906.47802,450.52203 v -22.08262 l 19.82418,11.04131 z"
       style="fill:#ffffff;fill-opacity:1;fill-rule:nonzero;stroke:none;stroke-width:0.250939"
       id="path736" /><path
       d="m 906.47802,450.52203 v -22.08262 l 19.82418,11.04131 z"
       style="fill:none;stroke:#000000;stroke-width:0.752817;stroke-linecap:butt;stroke-linejoin:miter;stroke-miterlimit:14;stroke-dasharray:none;stroke-opacity:1"
       id="path742" /><path
       d="m 907.73272,411.37556 v 1.50563 c 0,0.25094 0,0.50188 -0.25094,0.50188 -0.25094,0 -0.50188,-0.25094 -0.50188,-0.50188 v -1.50563 c 0,-0.25094 0.25094,-0.25094 0.50188,-0.25094 0.25094,0 0.25094,0 0.25094,0.25094"
       style="fill:#000000;fill-opacity:1;fill-rule:nonzero;stroke:none;stroke-width:0.250939"
       id="path748" /><path
       d="m 907.73272,414.13589 v 1.75657 c 0,0.25094 0,0.25094 -0.25094,0.25094 -0.25094,0 -0.50188,0 -0.50188,-0.25094 v -1.75657 c 0,-0.25094 0.25094,-0.50188 0.50188,-0.50188 0.25094,0 0.25094,0.25094 0.25094,0.50188"
       style="fill:#000000;fill-opacity:1;fill-rule:nonzero;stroke:none;stroke-width:0.250939"
       id="path754" /><path
       d="m 907.73272,417.14716 v 1.00376 h 1.25469 c 0.25094,0 0.25094,0.25093 0.25094,0.50187 0,0.25094 0,0.25094 -0.25094,0.25094 h -1.50563 -0.25094 l -0.25094,-0.25094 v -1.50563 c 0,-0.25094 0.25094,-0.50188 0.50188,-0.50188 0.25094,0 0.25094,0.25094 0.25094,0.50188"
       style="fill:#000000;fill-opacity:1;fill-rule:nonzero;stroke:none;stroke-width:0.250939"
       id="path760" /><path
       d="m 911.4968,418.15091 h 1.50563 c 0.25094,0 0.25094,0 0.50188,0.25094 v 0.25094 1.50563 c 0,0.25094 -0.25094,0.25094 -0.50188,0.25094 0,0 -0.25094,0 -0.25094,-0.25094 v -1.25469 h -1.25469 c 0,0 -0.25094,0 -0.25094,-0.25094 0,-0.25094 0.25094,-0.50188 0.25094,-0.50188"
       style="fill:#000000;fill-opacity:1;fill-rule:nonzero;stroke:none;stroke-width:0.250939"
       id="path766" /><path
       d="m 913.50432,426.18096 v 2.76033 c 0,0.25094 -0.25094,0.25094 -0.50188,0.25094 0,0 -0.25094,0 -0.25094,-0.25094 v -2.76033 c 0,-0.25094 0.25094,-0.25094 0.25094,-0.25094 0.25094,0 0.50188,0 0.50188,0.25094 m 0,-4.26596 v 2.50939 c 0,0.25094 -0.25094,0.50188 -0.50188,0.50188 0,0 -0.25094,-0.25094 -0.25094,-0.50188 V 421.915 c 0,-0.25094 0.25094,-0.50188 0.25094,-0.50188 0.25094,0 0.50188,0.25094 0.50188,0.50188"
       style="fill:#000000;fill-opacity:1;fill-rule:nonzero;stroke:none;stroke-width:0.250939"
       id="path772" /><path
       d="m 913.50432,430.69786 v 1.50563 c 0,0.25094 -0.25094,0.25094 -0.50188,0.25094 0,0 -0.25094,0 -0.25094,-0.25094 v -1.50563 c 0,-0.25094 0.25094,-0.50188 0.25094,-0.50188 0.25094,0 0.50188,0.25094 0.50188,0.50188"
       style="fill:#000000;fill-opacity:1;fill-rule:nonzero;stroke:none;stroke-width:0.250939"
       id="path778" /><path
       d="m 925.29845,411.37556 v 1.50563 c 0,0.25094 0,0.50188 -0.25094,0.50188 -0.25094,0 -0.50188,-0.25094 -0.50188,-0.50188 v -1.50563 c 0,-0.25094 0.25094,-0.25094 0.50188,-0.25094 0.25094,0 0.25094,0 0.25094,0.25094"
       style="fill:#000000;fill-opacity:1;fill-rule:nonzero;stroke:none;stroke-width:0.250939"
       id="path784" /><path
       d="m 925.29845,414.13589 v 1.75657 c 0,0.25094 0,0.25094 -0.25094,0.25094 -0.25094,0 -0.50188,0 -0.50188,-0.25094 v -1.75657 c 0,-0.25094 0.25094,-0.50188 0.50188,-0.50188 0.25094,0 0.25094,0.25094 0.25094,0.50188"
       style="fill:#000000;fill-opacity:1;fill-rule:nonzero;stroke:none;stroke-width:0.250939"
       id="path790" /><path
       d="m 925.29845,417.14716 v 1.50563 0.25094 h -0.25094 -1.50563 c -0.25094,0 -0.50188,0 -0.50188,-0.25094 0,-0.25094 0.25094,-0.50187 0.50188,-0.50187 h 1.00375 v -1.00376 c 0,-0.25094 0.25094,-0.50188 0.50188,-0.50188 0.25094,0 0.25094,0.25094 0.25094,0.50188"
       style="fill:#000000;fill-opacity:1;fill-rule:nonzero;stroke:none;stroke-width:0.250939"
       id="path796" /><path
       d="m 921.28342,418.90373 h -1.00376 v 1.25469 c 0,0.25094 -0.25094,0.25094 -0.50187,0.25094 -0.25094,0 -0.25094,0 -0.25094,-0.25094 v -1.50563 -0.25094 c 0,-0.25094 0.25094,-0.25094 0.25094,-0.25094 h 1.50563 c 0.25094,0 0.50188,0.25094 0.50188,0.50188 0,0.25094 -0.25094,0.25094 -0.50188,0.25094"
       style="fill:#000000;fill-opacity:1;fill-rule:nonzero;stroke:none;stroke-width:0.250939"
       id="path802" /><path
       d="m 920.27967,428.18847 v 3.51314 c 0,0.25094 -0.25094,0.50188 -0.50188,0.50188 -0.25094,0 -0.25094,-0.25094 -0.25094,-0.50188 v -3.51314 c 0,0 0,-0.25094 0.25094,-0.25094 0.25094,0 0.50188,0.25094 0.50188,0.25094 m 0,-5.77159 v 3.51314 c 0,0.25094 -0.25094,0.50188 -0.50188,0.50188 -0.25094,0 -0.25094,-0.25094 -0.25094,-0.50188 v -3.51314 c 0,-0.25094 0,-0.25094 0.25094,-0.25094 0.25094,0 0.50188,0 0.50188,0.25094"
       style="fill:#000000;fill-opacity:1;fill-rule:nonzero;stroke:none;stroke-width:0.250939"
       id="path808" /><path
       d="m 920.27967,434.211 v 1.50563 c 0,0.25094 -0.25094,0.25094 -0.50188,0.25094 -0.25094,0 -0.25094,0 -0.25094,-0.25094 V 434.211 c 0,-0.25094 0,-0.50188 0.25094,-0.50188 0.25094,0 0.50188,0.25094 0.50188,0.50188"
       style="fill:#000000;fill-opacity:1;fill-rule:nonzero;stroke:none;stroke-width:0.250939"
       id="path814" /><path
       d="m 907.48178,485.1516 v -27.1014 h 5.52066 v -11.04131"
       style="fill:none;stroke:#000000;stroke-width:0.752817;stroke-linecap:butt;stroke-linejoin:miter;stroke-miterlimit:14;stroke-dasharray:none;stroke-opacity:1"
       id="path820" /><path
       d="m 925.04751,485.1516 v -27.1014 h -5.26972 v -14.8054"
       style="fill:none;stroke:#000000;stroke-width:0.752817;stroke-linecap:butt;stroke-linejoin:miter;stroke-miterlimit:14;stroke-dasharray:none;stroke-opacity:1"
       id="path826" /><path
       d="m 965.19778,401.33803 h 34.37864 v -20.57699 h -39.64836 v 18.56948"
       style="fill:none;stroke:#000000;stroke-width:0.752817;stroke-linecap:butt;stroke-linejoin:miter;stroke-miterlimit:4;stroke-dasharray:none;stroke-opacity:1"
       id="path836" /><text
       transform="scale(1,-1)"
       style="font-variant:normal;font-weight:bold;font-stretch:normal;font-size:5.0188px;font-family:Arial;-inkscape-font-specification:Arial-BoldMT;writing-mode:lr-tb;fill:#000000;fill-opacity:1;fill-rule:nonzero;stroke:none"
       id="text840"
       x="967.17767"
       y="-391.97733"><tspan
         x="967.17767 970.43988 973.953 977.46619 980.97937 984.49249 988.50757"
         y="-391.97733"
         sodipodi:role="line"
         id="tspan838">PACKAGE</tspan></text><text
       transform="scale(1,-1)"
       style="font-variant:normal;font-weight:bold;font-stretch:normal;font-size:5.0188px;font-family:Arial;-inkscape-font-specification:Arial-BoldMT;writing-mode:lr-tb;fill:#000000;fill-opacity:1;fill-rule:nonzero;stroke:none"
       id="text844"
       x="972.75427"
       y="-386.95853"><tspan
         x="972.75427 976.2674 979.78058 983.04279"
         y="-386.95853"
         sodipodi:role="line"
         id="tspan842">BASE</tspan></text><text
       transform="matrix(-4.9812698e-4,0.99999988,0.99999988,4.9812698e-4,0,0)"
       style="font-variant:normal;font-weight:bold;font-stretch:normal;font-size:5.0188px;font-family:Arial;-inkscape-font-specification:Arial-BoldMT;writing-mode:lr-tb;fill:#000000;fill-opacity:1;fill-rule:nonzero;stroke:none"
       id="text854"
       x="488.35336"
       y="892.198"><tspan
         x="488.35336 491.11368"
         y="892.198"
         sodipodi:role="line"
         id="tspan846">16</tspan><tspan
         x="488.16263 490.92297"
         y="909.87927"
         sodipodi:role="line"
         id="tspan848">15</tspan><tspan
         x="488.15259 490.91293"
         y="927.0285"
         sodipodi:role="line"
         id="tspan850">14</tspan><tspan
         x="488.27304 491.03339"
         y="944.74988"
         sodipodi:role="line"
         id="tspan852">13</tspan></text><text
       transform="scale(1,-1)"
       style="font-variant:normal;font-weight:bold;font-stretch:normal;font-size:5.0188px;font-family:Arial;-inkscape-font-specification:Arial-BoldMT;writing-mode:lr-tb;fill:#000000;fill-opacity:1;fill-rule:nonzero;stroke:none"
       id="text858"
       x="956.85486"
       y="-472.91953"><tspan
         x="956.85486 959.61517"
         y="-472.91953"
         sodipodi:role="line"
         id="tspan856">12</tspan></text><text
       transform="scale(1,-1)"
       style="font-variant:normal;font-weight:bold;font-stretch:normal;font-size:5.0188px;font-family:Arial;-inkscape-font-specification:Arial-BoldMT;writing-mode:lr-tb;fill:#000000;fill-opacity:1;fill-rule:nonzero;stroke:none"
       id="text862"
       x="956.76257"
       y="-455.46442"><tspan
         x="956.76257 959.52289"
         y="-455.46442"
         sodipodi:role="line"
         id="tspan860">11</tspan></text><text
       transform="scale(1,-1)"
       style="font-variant:normal;font-weight:bold;font-stretch:normal;font-size:5.0188px;font-family:Arial;-inkscape-font-specification:Arial-BoldMT;writing-mode:lr-tb;fill:#000000;fill-opacity:1;fill-rule:nonzero;stroke:none"
       id="text866"
       x="956.62933"
       y="-438.39761"><tspan
         x="956.62933 959.38971"
         y="-438.39761"
         sodipodi:role="line"
         id="tspan864">10</tspan></text><text
       transform="scale(1,-1)"
       style="font-variant:normal;font-weight:bold;font-stretch:normal;font-size:5.0188px;font-family:Arial;-inkscape-font-specification:Arial-BoldMT;writing-mode:lr-tb;fill:#000000;fill-opacity:1;fill-rule:nonzero;stroke:none"
       id="text870"
       x="958.34778"
       y="-420.83313"><tspan
         x="958.34778"
         y="-420.83313"
         id="tspan868">9</tspan></text><text
       transform="scale(1,-1)"
       style="font-variant:normal;font-weight:bold;font-stretch:normal;font-size:5.0188px;font-family:Arial;-inkscape-font-specification:Arial-BoldMT;writing-mode:lr-tb;fill:#000000;fill-opacity:1;fill-rule:nonzero;stroke:none"
       id="text874"
       x="870.96472"
       y="-473.19641"><tspan
         x="870.96472"
         y="-473.19641"
         id="tspan872">1</tspan></text><text
       transform="scale(1,-1)"
       style="font-variant:normal;font-weight:bold;font-stretch:normal;font-size:5.0188px;font-family:Arial;-inkscape-font-specification:Arial-BoldMT;writing-mode:lr-tb;fill:#000000;fill-opacity:1;fill-rule:nonzero;stroke:none"
       id="text878"
       x="871.45508"
       y="-438.07983"><tspan
         x="871.45508"
         y="-438.07983"
         id="tspan876">3</tspan></text><text
       transform="scale(1,-1)"
       style="font-variant:normal;font-weight:bold;font-stretch:normal;font-size:5.0188px;font-family:Arial;-inkscape-font-specification:Arial-BoldMT;writing-mode:lr-tb;fill:#000000;fill-opacity:1;fill-rule:nonzero;stroke:none"
       id="text882"
       x="871.12805"
       y="-420.84921"><tspan
         x="871.12805"
         y="-420.84921"
         id="tspan880">4</tspan></text><text
       transform="scale(1,-1)"
       style="font-variant:normal;font-weight:bold;font-stretch:normal;font-size:5.0188px;font-family:Arial;-inkscape-font-specification:Arial-BoldMT;writing-mode:lr-tb;fill:#000000;fill-opacity:1;fill-rule:nonzero;stroke:none"
       id="text886"
       x="871.45508"
       y="-455.54721"><tspan
         x="871.45508"
         y="-455.54721"
         id="tspan884">2</tspan></text><text
       transform="matrix(-4.9812698e-4,0.99999988,0.99999988,4.9812698e-4,0,0)"
       style="font-variant:normal;font-weight:bold;font-stretch:normal;font-size:5.0188px;font-family:Arial;-inkscape-font-specification:Arial-BoldMT;writing-mode:lr-tb;fill:#000000;fill-opacity:1;fill-rule:nonzero;stroke:none"
       id="text896"
       x="403.05121"
       y="909.72473"><tspan
         x="403.05121"
         y="909.72473"
         id="tspan888">6</tspan><tspan
         x="403.06125"
         y="892.12885"
         id="tspan890">5</tspan><tspan
         x="403.38245"
         y="927.66693"
         id="tspan892">7</tspan><tspan
         x="403.5029"
         y="944.55017"
         id="tspan894">8</tspan></text><path
       d="m 891.92369,439.732 h 2.76033"
       style="fill:none;stroke:#ffffff;stroke-width:1.00376;stroke-linecap:butt;stroke-linejoin:miter;stroke-miterlimit:4;stroke-dasharray:none;stroke-opacity:1"
       id="path902" /><path
       d="m 892.17463,439.732 h -4.76784 m 4.76784,3.51314 v -7.27722 m 2.50939,7.27722 v -7.27722 m 4.76784,3.76408 h -4.76784"
       style="fill:none;stroke:#000000;stroke-width:0.752817;stroke-linecap:butt;stroke-linejoin:miter;stroke-miterlimit:14;stroke-dasharray:none;stroke-opacity:1"
       id="path908" /><path
       d="m 939.85304,439.732 h 2.50939"
       style="fill:none;stroke:#ffffff;stroke-width:1.00376;stroke-linecap:butt;stroke-linejoin:miter;stroke-miterlimit:4;stroke-dasharray:none;stroke-opacity:1"
       id="path914" /><path
       d="m 939.85304,439.732 h -4.76784 m 4.76784,3.51314 v -7.27722 m 2.50939,7.27722 v -7.27722 m 4.76784,3.76408 h -4.76784"
       style="fill:none;stroke:#000000;stroke-width:0.752817;stroke-linecap:butt;stroke-linejoin:miter;stroke-miterlimit:14;stroke-dasharray:none;stroke-opacity:1"
       id="path920" /></g></svg>
