G04 CAM350/DFMSTREAM V12.1 (Build 1022) Date:  Fri Nov 06 13:38:25 2015 *
G04 Database: C:\Projects\3894_EVB_TGP2105_MArnold_102015\Gerbers\110615\GBR_1138089-A.cam *
G04 Layer 2: METAL_1_TOP *
%FSLAX24Y24*%
%MOIN*%
%SFA1.000B1.000*%

%MIA0B0*%
%IPPOS*%
%ADD10C,0.07800*%
%ADD11C,0.08600*%
%ADD12C,0.10000*%
%ADD13C,0.12000*%
%ADD14C,0.06400*%
%ADD15C,0.03000*%
%ADD16C,0.02200*%
%ADD17C,0.00800*%
%ADD18C,0.01000*%
%LNMETAL_1_TOP*%
%LPD*%
G36*
X-43Y11244D02*
G01Y11289D01*
X-42*
X-41Y11290*
X-39Y11291*
X-36Y11292*
X-33Y11294*
X-29Y11296*
X-19Y11302*
X-8Y11308*
X3Y11316*
X15Y11325*
X26Y11334*
X27Y11335*
X29Y11337*
X31Y11339*
X36Y11344*
X43Y11351*
X50Y11359*
X57Y11367*
X63Y11376*
X68Y11386*
X99*
Y11000*
X52*
Y11300*
X51*
X49Y11297*
X45Y11294*
X40Y11290*
X34Y11285*
X26Y11280*
X17Y11274*
X7Y11268*
X6*
Y11267*
X2Y11265*
X-3Y11262*
X-10Y11259*
X-18Y11255*
X-26Y11251*
X-34Y11247*
X-43Y11244*
G37*
G36*
X214Y-1243D02*
G01Y-1063D01*
X246*
Y-768*
X344*
Y-1063*
X375*
Y-1243*
X214*
G37*
G36*
X-509Y11000D02*
G01Y11384D01*
X-458*
Y11046*
X-269*
Y11000*
X-509*
G37*
G36*
X-1550D02*
G01Y11384D01*
X-1272*
Y11339*
X-1499*
Y11221*
X-1287*
Y11176*
X-1499*
Y11046*
X-1264*
Y11000*
X-1550*
G37*
G36*
X1134D02*
G01Y11384D01*
X1292*
X1300*
X1309Y11383*
X1319Y11382*
X1329Y11381*
X1337Y11380*
X1338*
X1342Y11379*
X1347Y11378*
X1354Y11376*
X1361Y11374*
X1369Y11370*
X1377Y11366*
X1384Y11362*
X1385Y11361*
X1388Y11360*
X1391Y11356*
X1395Y11352*
X1400Y11347*
X1405Y11341*
X1411Y11334*
X1415Y11325*
X1416Y11324*
X1417Y11321*
X1419Y11316*
X1422Y11310*
X1423Y11302*
X1425Y11293*
X1427Y11283*
Y11273*
Y11272*
Y11270*
Y11268*
Y11264*
X1426Y11260*
X1425Y11255*
X1424Y11250*
X1423Y11244*
X1419Y11231*
X1417Y11224*
X1414Y11217*
X1410Y11210*
X1406Y11203*
X1401Y11196*
X1395Y11190*
Y11189*
X1394Y11188*
X1392Y11186*
X1389Y11185*
X1386Y11182*
X1382Y11179*
X1376Y11176*
X1370Y11173*
X1363Y11170*
X1354Y11166*
X1346Y11164*
X1335Y11162*
X1324Y11159*
X1312Y11158*
X1298Y11157*
X1283Y11156*
X1185*
Y11000*
X1134*
G37*
G36*
X360Y11339D02*
G01Y11384D01*
X664*
Y11339*
X537*
Y11000*
X486*
Y11339*
X360*
G37*
G36*
X-1222D02*
G01Y11384D01*
X-918*
Y11339*
X-1044*
Y11000*
X-1095*
Y11339*
X-1222*
G37*
G36*
X-907Y11000D02*
G01X-761Y11384D01*
X-705*
X-548Y11000*
X-606*
X-651Y11117*
X-812*
X-853Y11000*
X-907*
G37*
G36*
X246Y768D02*
G01Y1063D01*
X310Y1243*
X470*
X541Y1063*
Y768*
X442*
Y1063*
X344*
Y768*
X246*
G37*
G36*
X-2000Y11000D02*
G01Y11384D01*
X-1924*
X-1833Y11112*
Y11111*
X-1832Y11110*
Y11108*
X-1831Y11105*
X-1829Y11099*
X-1826Y11090*
X-1823Y11081*
X-1820Y11072*
X-1817Y11063*
X-1815Y11055*
X-1814Y11056*
Y11059*
X-1812Y11064*
X-1810Y11070*
X-1807Y11079*
X-1803Y11090*
X-1799Y11102*
X-1794Y11117*
X-1702Y11384*
X-1634*
Y11000*
X-1683*
Y11321*
X-1795Y11000*
X-1840*
X-1951Y11327*
Y11000*
X-2000*
G37*
G36*
X701Y11186D02*
G01Y11187D01*
Y11188*
Y11191*
X702Y11196*
Y11203*
X703Y11210*
X704Y11220*
X706Y11230*
X708Y11241*
X710Y11253*
X713Y11265*
X718Y11278*
X723Y11290*
X728Y11302*
X736Y11315*
X743Y11326*
X752Y11336*
X753Y11337*
X754Y11339*
X758Y11341*
X762Y11345*
X767Y11349*
X773Y11354*
X780Y11359*
X788Y11364*
X797Y11369*
X807Y11374*
X818Y11378*
X830Y11382*
X843Y11386*
X856Y11388*
X870Y11390*
X885Y11391*
X890*
X894Y11390*
X899*
X904*
X910Y11388*
X917Y11387*
X932Y11385*
X948Y11380*
X964Y11374*
X973Y11370*
X981Y11365*
X983Y11364*
X985Y11362*
X988Y11361*
X991Y11358*
X996Y11355*
X1005Y11347*
X1015Y11337*
X1026Y11325*
X1037Y11310*
X1046Y11294*
X1047Y11292*
X1048Y11290*
X1049Y11286*
X1051Y11282*
X1053Y11277*
X1055Y11271*
X1057Y11264*
X1059Y11257*
X1061Y11249*
X1064Y11240*
X1065Y11231*
X1067Y11212*
X1069Y11191*
Y11190*
Y11188*
Y11185*
X1068Y11181*
Y11176*
X1067Y11170*
X1066Y11163*
Y11156*
X1063Y11140*
X1059Y11122*
X1053Y11104*
X1049Y11095*
X1045Y11087*
Y11086*
X1044Y11084*
X1043Y11082*
X1040Y11079*
X1038Y11075*
X1035Y11071*
X1028Y11061*
X1018Y11049*
X1007Y11038*
X994Y11027*
X978Y11017*
X976Y11016*
X974Y11014*
X970Y11013*
X966Y11011*
X962Y11009*
X956Y11007*
X950Y11005*
X944Y11003*
X936Y11001*
X920Y10997*
X903Y10994*
X885Y10993*
X879*
X876Y10994*
X871*
X865Y10995*
X859Y10996*
X852Y10997*
X837Y11000*
X821Y11004*
X804Y11011*
X796Y11015*
X788Y11019*
X787Y11020*
X786Y11021*
X784Y11022*
X781Y11024*
X777Y11027*
X773Y11030*
X764Y11038*
X753Y11048*
X742Y11061*
X732Y11074*
X723Y11090*
Y11091*
X722Y11093*
X721Y11095*
X720Y11098*
X718Y11103*
X716Y11108*
X714Y11113*
X712Y11119*
X710Y11127*
X708Y11134*
X705Y11150*
X702Y11168*
X701Y11186*
G37*
G36*
X2387Y8150D02*
G01Y8650D01*
X3737*
Y8150*
X2387*
G37*
G36*
Y7150D02*
G01Y7650D01*
X3737*
Y7150*
X2387*
G37*
G36*
Y-7650D02*
G01Y-7150D01*
X3737*
Y-7650*
X2387*
G37*
G36*
Y-8650D02*
G01Y-8150D01*
X3737*
Y-8650*
X2387*
G37*
G36*
X537Y8150D02*
G01Y8650D01*
X1887*
Y8150*
X537*
G37*
G36*
Y7150D02*
G01Y7650D01*
X1887*
Y7150*
X537*
G37*
G36*
Y-7650D02*
G01Y-7150D01*
X1887*
Y-7650*
X537*
G37*
G36*
X383Y3909D02*
G01Y4409D01*
X1733*
Y3909*
X383*
G37*
G36*
Y-4409D02*
G01Y-3909D01*
X1733*
Y-4409*
X383*
G37*
G36*
X-1467Y3909D02*
G01Y4409D01*
X-117*
Y3909*
X-1467*
G37*
G36*
Y-4409D02*
G01Y-3909D01*
X-117*
Y-4409*
X-1467*
G37*
G36*
X-1954Y7150D02*
G01Y7650D01*
X-604*
Y7150*
X-1954*
G37*
G36*
Y-7650D02*
G01Y-7150D01*
X-604*
Y-7650*
X-1954*
G37*
G36*
X-3804Y7150D02*
G01Y7650D01*
X-2454*
Y7150*
X-3804*
G37*
G36*
Y-7650D02*
G01Y-7150D01*
X-2454*
Y-7650*
X-3804*
G37*
G36*
X768Y-541D02*
G01Y-443D01*
X1063*
X1183Y-387*
X3229*
X3272Y-386*
X3401Y-380*
X3499Y-373*
X3529Y-370*
X3572Y-365*
X3614Y-360*
X3657Y-353*
X3700Y-347*
X3742Y-339*
X3768Y-334*
X3826Y-323*
X3869Y-314*
X3911Y-305*
X3952Y-295*
X4005Y-282*
X4036Y-274*
X4118Y-250*
X4241Y-211*
X4282Y-197*
X4322Y-183*
X4404Y-155*
X4444Y-141*
X4485Y-126*
X4526Y-112*
X4566Y-98*
X4607Y-84*
X4648Y-71*
X4689Y-57*
X4730Y-44*
X4771Y-32*
X4812Y-19*
X4853Y-8*
X4884Y0*
X4936Y14*
X4978Y24*
X5062Y42*
X5120Y53*
X5147Y58*
X5189Y65*
X5232Y72*
X5274Y78*
X5317Y84*
X5360Y88*
X5390Y91*
X5445Y96*
X5488Y99*
X5574Y103*
X5660Y105*
X6732*
X8720Y71*
Y-70*
X6732Y-105*
X5660*
X5617Y-106*
X5575Y-107*
X5493Y-111*
X5453Y-114*
X5402Y-118*
X5375Y-120*
X5335Y-125*
X5296Y-130*
X5257Y-136*
X5217Y-142*
X5177Y-149*
X5152Y-154*
X5097Y-164*
X5058Y-172*
X5018Y-181*
X4979Y-190*
X4930Y-203*
X4902Y-210*
X4863Y-221*
X4746Y-257*
X4707Y-270*
X4667Y-283*
X4628Y-297*
X4548Y-325*
X4466Y-353*
X4425Y-368*
X4384Y-382*
X4258Y-424*
X4215Y-438*
X4172Y-451*
X4128Y-464*
X4051Y-485*
X3995Y-499*
X3950Y-510*
X3906Y-520*
X3861Y-529*
X3800Y-541*
X3772Y-546*
X3727Y-554*
X3682Y-561*
X3636Y-568*
X3590Y-574*
X3544Y-579*
X3510Y-582*
X3452Y-587*
X3406Y-590*
X3360Y-592*
X3272Y-596*
X3229Y-597*
X1183*
X1063Y-541*
X768*
G37*
G36*
X-8720Y-70D02*
G01Y71D01*
X-6733Y105*
X-5660*
X-5574Y103*
X-5488Y99*
X-5445Y96*
X-5390Y91*
X-5360Y88*
X-5317Y84*
X-5274Y78*
X-5232Y72*
X-5189Y65*
X-5147Y58*
X-5120Y53*
X-5062Y42*
X-4978Y24*
X-4936Y14*
X-4884Y0*
X-4853Y-8*
X-4812Y-19*
X-4771Y-32*
X-4730Y-44*
X-4689Y-57*
X-4648Y-71*
X-4607Y-84*
X-4566Y-98*
X-4526Y-112*
X-4485Y-126*
X-4444Y-141*
X-4404Y-155*
X-4322Y-183*
X-4282Y-197*
X-4241Y-211*
X-4118Y-250*
X-4036Y-274*
X-4005Y-282*
X-3952Y-295*
X-3911Y-305*
X-3869Y-314*
X-3826Y-323*
X-3768Y-334*
X-3742Y-339*
X-3700Y-347*
X-3657Y-353*
X-3614Y-360*
X-3572Y-365*
X-3529Y-370*
X-3499Y-373*
X-3401Y-380*
X-3272Y-386*
X-3229Y-387*
X-1183*
X-1063Y-443*
X-768*
Y-541*
X-1063*
X-1183Y-597*
X-3229*
X-3272Y-596*
X-3360Y-592*
X-3406Y-590*
X-3452Y-587*
X-3510Y-582*
X-3544Y-579*
X-3590Y-574*
X-3636Y-568*
X-3682Y-561*
X-3727Y-554*
X-3772Y-546*
X-3800Y-541*
X-3861Y-529*
X-3906Y-520*
X-3950Y-510*
X-3995Y-499*
X-4051Y-485*
X-4128Y-464*
X-4172Y-451*
X-4215Y-438*
X-4258Y-424*
X-4384Y-382*
X-4425Y-368*
X-4466Y-353*
X-4548Y-325*
X-4628Y-297*
X-4667Y-283*
X-4707Y-270*
X-4746Y-257*
X-4863Y-221*
X-4902Y-210*
X-4930Y-203*
X-4979Y-190*
X-5018Y-181*
X-5058Y-172*
X-5097Y-164*
X-5152Y-154*
X-5177Y-149*
X-5217Y-142*
X-5257Y-136*
X-5296Y-130*
X-5335Y-125*
X-5375Y-120*
X-5402Y-118*
X-5453Y-114*
X-5493Y-111*
X-5575Y-107*
X-5617Y-106*
X-5660Y-105*
X-6733*
X-8720Y-70*
G37*
G36*
X-1467Y4909D02*
G01Y5409D01*
X-117*
Y5037*
X74*
Y2524*
X-49Y1790*
Y768*
X-148*
Y1804*
X-26Y2532*
Y4937*
X-117*
Y4909*
X-1467*
G37*
G36*
Y-5409D02*
G01Y-4909D01*
X-117*
Y-4937*
X-26*
Y-2532*
X-148Y-1804*
Y-767*
X-49*
Y-1790*
X74Y-2524*
Y-5037*
X-117*
Y-5409*
X-1467*
G37*
G36*
X49Y768D02*
G01Y1804D01*
X190Y2531*
X192Y5037*
X383*
Y5409*
X1733*
Y4909*
X383*
Y4937*
X292*
X290Y2522*
X148Y1790*
Y768*
X49*
G37*
G36*
Y-1804D02*
G01Y-767D01*
X148*
Y-1790*
X290Y-2522*
X292Y-4937*
X383*
Y-4909*
X1733*
Y-5409*
X383*
Y-5037*
X192*
X190Y-2531*
X49Y-1804*
G37*
G36*
X443Y-1633D02*
G01Y-768D01*
X541*
Y-1600*
X2077Y-3885*
Y-8277*
X1887*
Y-8650*
X537*
Y-8150*
X1887*
Y-8177*
X1977*
Y-3915*
X443Y-1633*
G37*
G36*
X-2144Y4408D02*
G01Y8277D01*
X-1954*
Y8650*
X-604*
Y8150*
X-1954*
Y8177*
X-2044*
Y4438*
X-246Y1767*
Y768*
X-345*
Y1735*
X-2144Y4408*
G37*
G36*
Y-8277D02*
G01Y-4408D01*
X-345Y-1735*
Y-767*
X-246*
Y-1767*
X-2044Y-4438*
Y-8177*
X-1954*
Y-8150*
X-604*
Y-8650*
X-1954*
Y-8277*
X-2144*
G37*
G36*
X-8720Y-3217D02*
G01Y-112D01*
X-8650Y-114*
X-8200Y-132*
X-7950Y-147*
X-7800Y-159*
X-7550Y-184*
X-7500Y-190*
X-7350Y-211*
X-7250Y-229*
X-7150Y-251*
X-7100Y-266*
X-7050Y-284*
X-7000Y-309*
X-6950Y-342*
X-6900Y-386*
X-6850Y-445*
X-6800Y-523*
X-6750Y-616*
Y-923*
X-1172*
X-1063Y-822*
Y-640*
X-768*
Y-767*
X-640*
Y-1062*
X-738*
Y-1149*
X-1255Y-1398*
Y-1813*
X-1757*
Y-2726*
X-2399Y-3217*
X-8720*
G37*
G36*
X639Y-1063D02*
G01Y-768D01*
X768*
Y-640*
X1083*
X1359Y-923*
X6750*
Y-616*
X6800Y-523*
X6850Y-445*
X6900Y-386*
X6950Y-342*
X7000Y-309*
X7050Y-284*
X7100Y-266*
X7150Y-251*
X7250Y-229*
X7350Y-211*
X7500Y-190*
X7550Y-184*
X7800Y-159*
X7950Y-147*
X8200Y-132*
X8650Y-114*
X8720Y-112*
Y-3217*
X2399*
X1847Y-2920*
Y-2210*
X1485*
Y-1813*
X1255*
Y-1398*
X738Y-1149*
Y-1063*
X639*
G37*
G36*
X-3804Y8150D02*
G01Y8650D01*
X-2454*
Y8277*
X-2263*
Y4337*
X-443Y1633*
Y768*
X-541*
Y1600*
X-2363Y4306*
Y8177*
X-2454*
Y8150*
X-3804*
G37*
G36*
Y-8650D02*
G01Y-8150D01*
X-2454*
Y-8177*
X-2363*
Y-4306*
X-541Y-1600*
Y-767*
X-443*
Y-1633*
X-2263Y-4337*
Y-8277*
X-2454*
Y-8650*
X-3804*
G37*
G36*
Y9150D02*
G01Y9650D01*
X-2454*
Y9500*
X-1954*
Y9650*
X-604*
Y9500*
X537*
Y9650*
X1887*
Y9500*
X2387*
Y9650*
X3737*
Y9150*
X2387*
Y9300*
X1887*
Y9150*
X537*
Y9300*
X197*
Y6259*
X383*
Y6409*
X1733*
Y5909*
X383*
Y6059*
X-117*
Y5909*
X-1467*
Y6409*
X-117*
Y6259*
X69*
Y9300*
X-604*
Y9150*
X-1954*
Y9300*
X-2454*
Y9150*
X-3804*
G37*
G36*
Y-9650D02*
G01Y-9150D01*
X-2454*
Y-9300*
X-1954*
Y-9150*
X-604*
Y-9300*
X69*
Y-6259*
X-117*
Y-6409*
X-1467*
Y-5909*
X-117*
Y-6059*
X383*
Y-5909*
X1733*
Y-6409*
X383*
Y-6259*
X197*
Y-9300*
X537*
Y-9150*
X1887*
Y-9300*
X2387*
Y-9150*
X3737*
Y-9650*
X2387*
Y-9500*
X1887*
Y-9650*
X537*
Y-9500*
X-604*
Y-9650*
X-1954*
Y-9500*
X-2454*
Y-9650*
X-3804*
G37*
G36*
X4106Y3477D02*
G01Y9970D01*
X8720*
Y3477*
X4106*
G37*
G36*
Y-9970D02*
G01Y-3477D01*
X8720*
Y-9970*
X4106*
G37*
G36*
X-8720Y3477D02*
G01Y9970D01*
X-4106*
Y3477*
X-8720*
G37*
G36*
Y-9970D02*
G01Y-3477D01*
X-4106*
Y-9970*
X-8720*
G37*
G36*
Y113D02*
G01Y3218D01*
X-2399*
X-1874Y2963*
Y1377*
X-1237Y1378*
X-738Y1150*
Y1063*
X-640*
Y768*
X-768*
Y641*
X-1063*
Y542*
X-768*
Y444*
X-1063*
Y345*
X-768*
Y247*
X-1063*
Y148*
X-768*
Y50*
X-1063*
Y-49*
X-768*
Y-147*
X-869*
Y-246*
X-696*
Y696*
X696*
Y-246*
X869*
Y-147*
X768*
Y-49*
X1063*
Y50*
X768*
Y148*
X1063*
Y247*
X768*
Y345*
X1063*
Y444*
X767*
Y542*
X1063*
Y641*
X768*
Y769*
X639*
Y1064*
X738*
Y1150*
X1237Y1378*
X1874Y1377*
Y2963*
X2399Y3218*
X8720*
Y113*
X8650Y115*
X8200Y133*
X8150Y136*
X8100Y138*
X8050Y141*
X8000Y145*
X7950Y148*
X7800Y160*
X7700Y170*
X7650Y174*
X7600Y180*
X7550Y185*
X7500Y191*
X7350Y212*
X7250Y230*
X7150Y252*
X7100Y266*
X7050Y285*
X7000Y310*
X6950Y343*
X6900Y387*
X6850Y446*
X6800Y524*
X6750Y617*
Y924*
X1659*
Y246*
X1275Y-147*
X971*
Y-246*
X1063*
Y-344*
X696*
Y-695*
X-696*
Y-344*
X-1063*
Y-246*
X-971*
Y-147*
X-1275*
X-1659Y246*
Y924*
X-6750*
Y617*
X-6800Y524*
X-6850Y446*
X-6900Y387*
X-6950Y343*
X-7000Y310*
X-7050Y285*
X-7100Y266*
X-7150Y252*
X-7250Y230*
X-7350Y212*
X-7500Y191*
X-7550Y185*
X-7600Y180*
X-7650Y174*
X-7700Y170*
X-7800Y160*
X-7950Y148*
X-8000Y145*
X-8050Y141*
X-8100Y138*
X-8150Y136*
X-8200Y133*
X-8650Y115*
X-8720Y113*
G37*
%LPC*%
G36*
X1288Y11201D02*
G01X1292Y11202D01*
X1296*
X1301Y11203*
X1311Y11204*
X1323Y11206*
X1334Y11209*
X1345Y11214*
X1350Y11216*
X1354Y11220*
X1355Y11221*
X1357Y11223*
X1361Y11228*
X1364Y11233*
X1368Y11240*
X1372Y11249*
X1374Y11259*
X1375Y11271*
Y11272*
Y11275*
X1374Y11280*
X1373Y11285*
X1372Y11291*
X1370Y11299*
X1367Y11305*
X1363Y11312*
X1362*
X1361Y11315*
X1358Y11317*
X1354Y11321*
X1349Y11325*
X1344Y11329*
X1338Y11332*
X1331Y11335*
X1330*
X1328*
X1324Y11336*
X1320Y11337*
X1313*
X1305Y11338*
X1295Y11339*
X1185*
Y11201*
X1288*
G37*
G36*
X-667Y11158D02*
G01X-707Y11264D01*
Y11266*
X-709Y11269*
X-710Y11272*
X-711Y11276*
X-713Y11281*
X-715Y11286*
X-717Y11292*
X-721Y11305*
X-726Y11318*
X-730Y11331*
X-734Y11344*
X-735Y11342*
Y11340*
X-736Y11338*
Y11334*
X-737Y11330*
X-740Y11321*
X-742Y11310*
X-746Y11297*
X-750Y11284*
X-755Y11270*
X-797Y11158*
X-667*
G37*
G36*
X754Y11174D02*
G01Y11169D01*
X756Y11162*
X757Y11154*
X758Y11147*
X762Y11129*
X766Y11120*
X769Y11110*
X773Y11102*
X778Y11093*
X784Y11084*
X791Y11077*
Y11076*
X792Y11075*
X794Y11073*
X797Y11070*
X801Y11067*
X806Y11064*
X811Y11061*
X816Y11057*
X823Y11053*
X830Y11049*
X838Y11046*
X846Y11043*
X855Y11041*
X864Y11038*
X874Y11037*
X884*
X887*
X890*
X894*
X899Y11038*
X904Y11039*
X911Y11040*
X918Y11042*
X925Y11044*
X933Y11047*
X941Y11049*
X949Y11053*
X956Y11058*
X964Y11063*
X972Y11069*
X979Y11077*
X980*
X981Y11078*
X983Y11081*
X985Y11084*
X988Y11088*
X991Y11093*
X994Y11099*
X998Y11106*
X1001Y11114*
X1005Y11123*
X1008Y11132*
X1011Y11142*
X1013Y11153*
X1015Y11165*
X1016Y11178*
Y11191*
Y11192*
Y11194*
Y11196*
Y11199*
Y11203*
Y11208*
X1015Y11213*
X1014Y11219*
X1013Y11232*
X1010Y11245*
X1006Y11260*
X1000Y11273*
Y11274*
Y11275*
X999Y11276*
X998Y11279*
X994Y11285*
X989Y11293*
X982Y11302*
X974Y11311*
X964Y11320*
X954Y11327*
X953*
Y11329*
X951*
X948Y11331*
X945Y11332*
X942Y11334*
X934Y11337*
X924Y11341*
X912Y11344*
X899Y11346*
X885Y11347*
X880*
X876Y11346*
X871*
X866Y11345*
X860Y11344*
X853Y11342*
X839Y11338*
X831Y11335*
X823Y11331*
X815Y11327*
X807Y11322*
X799Y11316*
X792Y11310*
Y11309*
X791Y11308*
X789Y11306*
X786Y11302*
X783Y11299*
X780Y11294*
X777Y11287*
X773Y11280*
X769Y11273*
X766Y11263*
X762Y11253*
X759Y11242*
X757Y11230*
X755Y11216*
X754Y11201*
X753Y11186*
Y11185*
Y11183*
Y11179*
X754Y11174*
G37*
%LPD*%
G54D10*
X-7680Y1875D03*
Y-1875D03*
X7680Y1875D03*
Y-1875D03*
G54D11*
X-5250Y7250D03*
X5250D03*
Y-7250D03*
X-5250D03*
G54D12*
X-2500Y-2500D03*
Y2500D03*
X2500D03*
Y-2500D03*
G54D13*
X-7680Y-8840D03*
X7680D03*
Y8840D03*
X-7680D03*
G54D14*
X-2630Y3750D03*
X2630Y-3750D03*
G54D15*
X-3036Y3025D03*
X-3465Y2923D03*
X-3965D03*
X-4465D03*
X-4965D03*
X-5465D03*
X-5965D03*
X-6465D03*
Y2423D03*
X-5965D03*
X-5465D03*
X-4965D03*
X-4465D03*
X-3965D03*
X-3465D03*
Y1923D03*
Y1423D03*
X-2965Y1923D03*
X-2556Y1651D03*
X-2965Y1423D03*
X-2131Y1415D03*
Y1915D03*
X-3965Y1923D03*
Y1423D03*
X-4465D03*
Y1923D03*
X-4965D03*
Y1423D03*
X-5465D03*
Y1923D03*
X-5965D03*
Y1423D03*
X-6465D03*
Y1923D03*
X-6965Y2994D03*
X-7465D03*
X-7965D03*
X-8465D03*
X2130Y1415D03*
X2556Y1651D03*
X2130Y1915D03*
X2965Y1923D03*
Y1423D03*
X3465D03*
Y1923D03*
Y2423D03*
Y2923D03*
X3036Y3025D03*
X-1224Y4153D03*
X-806Y4156D03*
X-389Y4153D03*
X626D03*
X1044Y4156D03*
X1461Y4153D03*
X3965Y2923D03*
Y2423D03*
Y1923D03*
Y1423D03*
X4465D03*
Y1923D03*
Y2423D03*
Y2923D03*
X4965D03*
Y2423D03*
Y1923D03*
Y1423D03*
X5465D03*
Y1923D03*
Y2423D03*
Y2923D03*
X5965D03*
X6465D03*
Y2423D03*
X5965D03*
Y1923D03*
X6465D03*
Y1423D03*
X5965D03*
X6965Y2994D03*
X7465D03*
X7965D03*
X8465D03*
X8550Y325D03*
X8150Y353D03*
X7750Y393D03*
X7353Y455D03*
X6945Y641D03*
Y-641D03*
X7353Y-454D03*
X7750Y-392D03*
X8150Y-353D03*
X8550Y-325D03*
X-6945Y641D03*
X-7353Y455D03*
X-7750Y393D03*
X-8151Y353D03*
X-8550Y325D03*
Y-325D03*
X-8151Y-353D03*
X-7750Y-392D03*
X-7353Y-454D03*
X-6945Y-641D03*
X-6465Y-1423D03*
X-5965D03*
X-5465D03*
X-4965D03*
X-4465D03*
X-3965D03*
X-3465D03*
X-2965D03*
Y-1923D03*
X-2556Y-1651D03*
X-2131Y-1415D03*
Y-1915D03*
X-1585Y-1523D03*
X-3465Y-1923D03*
X-3965D03*
X-4465D03*
X-4965D03*
X-5465D03*
X-5965D03*
X-6465D03*
Y-2423D03*
X-5965D03*
X-5465D03*
X-4965D03*
X-4465D03*
X-3965D03*
X-3465D03*
X-3036Y-3025D03*
X-3465Y-2923D03*
X-3965D03*
X-4465D03*
X-4965D03*
X-5465D03*
X-5965D03*
X-6465D03*
X-6965Y-2994D03*
X-7465D03*
X-7965D03*
X-8465D03*
X-8437Y-3691D03*
X-7937D03*
X-7437D03*
X-6937D03*
X-6437D03*
X-5937D03*
X-5437D03*
X-4937D03*
X-4437D03*
Y-4191D03*
Y-4691D03*
Y-5191D03*
Y-5691D03*
Y-6191D03*
X-1224Y-4153D03*
X-806Y-4156D03*
X-389Y-4153D03*
X626D03*
X1044Y-4156D03*
X1461Y-4153D03*
X-8437Y-4191D03*
X-7937D03*
X-7437D03*
X-6937D03*
X-6437D03*
X-5937D03*
X-5437D03*
X-4937D03*
Y-4691D03*
X-5437D03*
X-5937D03*
X-6437D03*
X-6937D03*
X-7437D03*
X-7937D03*
X-8437D03*
Y-5191D03*
X-7937D03*
X-7437D03*
X-6937D03*
X-6437D03*
X-5937D03*
X-5437D03*
X-4937D03*
Y-5691D03*
X-5437D03*
X-5937D03*
X-6437D03*
X-6937D03*
X-7437D03*
X-7937D03*
X-8437D03*
Y-6191D03*
X-7937D03*
X-7437D03*
X-6937D03*
X-6437D03*
X-5937D03*
X-5437D03*
X-4937D03*
X-4437Y-6691D03*
X-3560Y-7393D03*
X-3143Y-7396D03*
X-2726Y-7393D03*
X-1710D03*
X-1293Y-7396D03*
X-876Y-7393D03*
X-4437Y-7191D03*
Y-7691D03*
Y-8191D03*
X-4937D03*
X-5437D03*
X-5937D03*
Y-7691D03*
Y-7191D03*
Y-6691D03*
X-6437D03*
Y-7191D03*
Y-7691D03*
Y-8191D03*
Y-8691D03*
X-5937D03*
X-5437D03*
X-4937D03*
X-4437D03*
Y-9191D03*
X-4937D03*
X-5437D03*
X-5937D03*
X-6437D03*
X-6937D03*
X-8437D03*
Y-8191D03*
X-6937D03*
Y-7691D03*
Y-7191D03*
Y-6691D03*
X-7437D03*
Y-7191D03*
Y-7691D03*
X-7937D03*
Y-7191D03*
Y-6691D03*
X-8437D03*
Y-7191D03*
Y-7691D03*
Y-9691D03*
X-7937D03*
X-7437D03*
X-6937D03*
X-6437D03*
X-5937D03*
X-5437D03*
X-4937D03*
X-4437D03*
X3493Y-7393D03*
X3076Y-7396D03*
X2659Y-7393D03*
X1643D03*
X1226Y-7396D03*
X809Y-7393D03*
X8437Y-9691D03*
Y-9191D03*
X7937Y-9691D03*
X7437D03*
X6937D03*
X6437D03*
X5937D03*
X5437D03*
X4937D03*
X4437D03*
Y-9191D03*
X4937D03*
X5437D03*
X5937D03*
X6437D03*
X6937D03*
X8437Y-8191D03*
X6937D03*
X6437Y-8691D03*
Y-8191D03*
X5937D03*
Y-8691D03*
X5437D03*
Y-8191D03*
X4937D03*
Y-8691D03*
X4437D03*
Y-8191D03*
Y-7691D03*
Y-7191D03*
Y-6691D03*
Y-6191D03*
X4937D03*
X5437D03*
X5937D03*
Y-6691D03*
Y-7191D03*
Y-7691D03*
X6437D03*
Y-7191D03*
Y-6691D03*
Y-6191D03*
X6937D03*
Y-6691D03*
Y-7191D03*
Y-7691D03*
X7437D03*
X7937D03*
X8437D03*
Y-7191D03*
Y-6691D03*
Y-6191D03*
X7437D03*
Y-6691D03*
Y-7191D03*
X7937D03*
Y-6691D03*
Y-6191D03*
X8437Y-5691D03*
Y-5191D03*
Y-4691D03*
Y-4191D03*
Y-3691D03*
X7937D03*
Y-4191D03*
Y-4691D03*
Y-5191D03*
Y-5691D03*
X7437D03*
Y-5191D03*
Y-4691D03*
Y-4191D03*
Y-3691D03*
X6937D03*
Y-4191D03*
Y-4691D03*
Y-5191D03*
Y-5691D03*
X6437D03*
Y-5191D03*
Y-4691D03*
Y-4191D03*
Y-3691D03*
X5937D03*
Y-4191D03*
Y-4691D03*
Y-5191D03*
Y-5691D03*
X5437D03*
Y-5191D03*
Y-4691D03*
Y-4191D03*
Y-3691D03*
X4937D03*
Y-4191D03*
Y-4691D03*
Y-5191D03*
Y-5691D03*
X4437D03*
Y-5191D03*
Y-4691D03*
Y-4191D03*
Y-3691D03*
X8465Y-2994D03*
X7965D03*
X7465D03*
X6965D03*
X6461Y-2923D03*
Y-2423D03*
Y-1923D03*
Y-1423D03*
X5961D03*
Y-1923D03*
Y-2423D03*
Y-2923D03*
X5461D03*
Y-2423D03*
Y-1923D03*
Y-1423D03*
X4961D03*
Y-1923D03*
Y-2423D03*
Y-2923D03*
X4461D03*
Y-2423D03*
Y-1923D03*
Y-1423D03*
X3961D03*
Y-1923D03*
Y-2423D03*
Y-2923D03*
X3461D03*
X3032Y-3025D03*
X3461Y-2423D03*
Y-1923D03*
Y-1423D03*
X2961D03*
Y-1923D03*
X2552Y-1651D03*
X2127Y-1915D03*
Y-1415D03*
X1581Y-1523D03*
X1714Y-2002D03*
X-4420Y3692D03*
X-4937Y3691D03*
Y4191D03*
X-4437D03*
Y4691D03*
Y5191D03*
Y5691D03*
Y6191D03*
X-4937D03*
Y5691D03*
Y5191D03*
Y4691D03*
X-5437Y3691D03*
Y4191D03*
Y4691D03*
Y5191D03*
Y5691D03*
Y6191D03*
X-5937Y6691D03*
Y6191D03*
Y5691D03*
Y5191D03*
Y4691D03*
Y4191D03*
Y3691D03*
X-6437D03*
Y4191D03*
Y4691D03*
Y5191D03*
Y5691D03*
Y6191D03*
Y6691D03*
Y7191D03*
X-5937D03*
X-4437D03*
Y6691D03*
X-6937Y3691D03*
Y4191D03*
Y4691D03*
Y5191D03*
Y5691D03*
Y6191D03*
Y6691D03*
Y7191D03*
X-7437D03*
Y6691D03*
Y6191D03*
Y5691D03*
Y5191D03*
Y4691D03*
Y4191D03*
Y3691D03*
X-7937D03*
Y4191D03*
Y4691D03*
Y5191D03*
Y5691D03*
Y6191D03*
Y6691D03*
Y7191D03*
X-8437D03*
Y6691D03*
X-8401Y6116D03*
X-8437Y5691D03*
Y5191D03*
Y4691D03*
Y4191D03*
Y3691D03*
X-4437Y7691D03*
Y8191D03*
X-4937D03*
X-5437D03*
X-5937D03*
Y7691D03*
X-6437D03*
Y8191D03*
X-6937D03*
Y7691D03*
X-7437D03*
X-7937D03*
X-8437D03*
Y8191D03*
Y9191D03*
Y9691D03*
X-7937D03*
X-7437D03*
X-6937D03*
Y9191D03*
X-6437Y9691D03*
Y9191D03*
Y8691D03*
X-5937D03*
Y9191D03*
Y9691D03*
X-5437D03*
X-4937D03*
X-4437D03*
Y9191D03*
Y8691D03*
X-4937D03*
X-5437D03*
Y9191D03*
X-4937D03*
X-3560Y7393D03*
X-3143Y7396D03*
X-2726Y7393D03*
X-1710D03*
X-1293Y7396D03*
X-876Y7393D03*
X809D03*
X1226Y7396D03*
X1643Y7393D03*
X2659D03*
X3076Y7396D03*
X3493Y7393D03*
X8437Y3691D03*
Y4191D03*
Y4691D03*
Y5191D03*
Y5691D03*
Y6191D03*
Y6691D03*
Y7191D03*
Y7691D03*
Y8191D03*
X7937Y7691D03*
Y7191D03*
Y6691D03*
Y6191D03*
Y5691D03*
Y5191D03*
Y4691D03*
Y4191D03*
Y3691D03*
X7437D03*
Y4191D03*
Y4691D03*
Y5191D03*
Y5691D03*
Y6191D03*
Y7191D03*
Y6691D03*
Y7691D03*
X6937Y3691D03*
Y4191D03*
Y4691D03*
Y5191D03*
Y5691D03*
Y6191D03*
Y6691D03*
Y7191D03*
Y7691D03*
Y8191D03*
X6437Y8691D03*
Y8191D03*
Y7691D03*
Y7191D03*
Y6691D03*
Y6191D03*
Y5691D03*
Y5191D03*
Y4691D03*
Y4191D03*
Y3691D03*
X5937D03*
Y4191D03*
Y4691D03*
Y5191D03*
Y5691D03*
Y6191D03*
Y6691D03*
Y7191D03*
Y7691D03*
Y8191D03*
Y8691D03*
X5437D03*
X4937D03*
X4437D03*
Y8191D03*
X4937D03*
X5437D03*
X4437Y7691D03*
Y7191D03*
Y6691D03*
Y6191D03*
X4937D03*
X5437D03*
Y5691D03*
Y5191D03*
Y4691D03*
Y4191D03*
Y3691D03*
X4937D03*
Y4191D03*
Y4691D03*
Y5191D03*
Y5691D03*
X4437D03*
Y5191D03*
Y4691D03*
Y4191D03*
Y3691D03*
Y9191D03*
Y9691D03*
X4937D03*
Y9191D03*
X5437D03*
Y9691D03*
X5937D03*
Y9191D03*
X6437D03*
Y9691D03*
X6937D03*
Y9191D03*
X7437Y9691D03*
X7937D03*
X8437D03*
Y9191D03*
G54D16*
X-556Y-554D03*
Y-332D03*
Y-110D03*
Y112D03*
Y334D03*
Y556D03*
X-334D03*
Y334D03*
Y112D03*
Y-110D03*
Y-332D03*
Y-554D03*
X-112D03*
Y-332D03*
Y-110D03*
Y112D03*
Y334D03*
Y556D03*
X110D03*
Y334D03*
Y112D03*
Y-110D03*
Y-332D03*
Y-554D03*
X332D03*
Y-332D03*
Y-110D03*
Y112D03*
Y334D03*
Y556D03*
X554D03*
Y334D03*
Y112D03*
Y-110D03*
Y-332D03*
Y-554D03*
G54D17*
X-1176Y-67D03*
X-1169Y138D03*
Y324D03*
X-1176Y518D03*
X-1169Y722D03*
X-1068Y874D03*
X-868D03*
X-1346Y99D03*
X-1348Y333D03*
X-1341Y537D03*
X-1344Y740D03*
X-1249Y895D03*
X-1317Y1045D03*
X-1068Y1074D03*
X-868D03*
X-1157Y1223D03*
X-1329Y1280D03*
X-1527Y1277D03*
X-1518Y1045D03*
X-1509Y862D03*
X-1510Y696D03*
X-1517Y492D03*
X-1510Y263D03*
X390Y1151D03*
X868Y1074D03*
Y874D03*
X1068D03*
Y1074D03*
X1157Y1223D03*
X1329Y1280D03*
X1527Y1277D03*
X1518Y1045D03*
X1509Y862D03*
X1317Y1045D03*
X1249Y895D03*
X1169Y722D03*
X1344Y740D03*
X1510Y696D03*
X1517Y492D03*
X1341Y537D03*
X1176Y518D03*
X1169Y324D03*
X1348Y333D03*
X1510Y263D03*
X1346Y99D03*
X1169Y138D03*
X1176Y-67D03*
X1643Y-1018D03*
X1430Y-1036D03*
X1407Y-1208D03*
X1231Y-1295D03*
X1242Y-1152D03*
X1250Y-959D03*
X1097Y-797D03*
X1075Y-963D03*
X1068Y-1156D03*
X884Y-1111D03*
X855Y-924D03*
X932Y-737D03*
X295Y-1151D03*
X-907Y-737D03*
X-859Y-924D03*
Y-1111D03*
X-1072Y-1156D03*
X-1079Y-963D03*
X-1254Y-1005D03*
X-1246Y-1152D03*
X-1238Y-1295D03*
X-1418Y-1208D03*
X-1441Y-1036D03*
X-1647Y-1018D03*
G54D18*
X-1920Y-1045D03*
X-2121D03*
X-2322D03*
X-2522D03*
X-2723D03*
X-2924D03*
X-3125D03*
X-3326D03*
X-3527D03*
X-3728D03*
X-3929D03*
X-4130D03*
X-4331D03*
X-4532D03*
X-4733D03*
X-4934D03*
X-5135D03*
X-5336D03*
X-5537D03*
X-5737D03*
X-5938D03*
X-6139D03*
X-6340D03*
X-6541D03*
X-6902Y-1071D03*
Y-1270D03*
Y-1469D03*
Y-1668D03*
Y-1867D03*
Y-2066D03*
Y-2265D03*
Y-2463D03*
Y-2662D03*
X-7090Y-2663D03*
X-7295Y-2664D03*
X-7492Y-2663D03*
X-7693D03*
X-7894D03*
X-8095D03*
X-8296D03*
X-8497D03*
X-8515Y-2427D03*
Y-2228D03*
Y-2029D03*
Y-1830D03*
Y-1631D03*
Y-1432D03*
Y-1233D03*
Y-1035D03*
Y-836D03*
Y-637D03*
Y637D03*
Y836D03*
Y1035D03*
Y1234D03*
Y1433D03*
Y1631D03*
Y1830D03*
Y2029D03*
Y2228D03*
X-6902Y1071D03*
Y1270D03*
Y1469D03*
Y1668D03*
Y1867D03*
Y2066D03*
Y2265D03*
Y2464D03*
Y2663D03*
X-7090D03*
X-7295Y2664D03*
X-7492Y2663D03*
X-7693D03*
X-7894D03*
X-8095D03*
X-8296D03*
X-8497D03*
X-8515Y2427D03*
X-6541Y1045D03*
X-6327Y1040D03*
X-6157Y1036D03*
X-5938Y1045D03*
X-5737D03*
X-5537D03*
X-5336D03*
X-5135D03*
X-4934D03*
X-4733D03*
X-4532D03*
X-4331D03*
X-4130D03*
X-3929D03*
X-3728D03*
X-3527D03*
X-3326D03*
X-3125D03*
X-2924D03*
X-2723D03*
X-2522D03*
X-2322D03*
X-2121D03*
X-1920D03*
X1919D03*
X2120D03*
X2321D03*
X2522D03*
X2723D03*
X2924D03*
X3125D03*
X3326D03*
X3527D03*
X3728D03*
X3928D03*
X4129D03*
X4330D03*
X4531D03*
X4732D03*
X4933D03*
X5134D03*
X5335D03*
X5536D03*
X5938D03*
X6139D03*
X6340D03*
X6541D03*
X6902Y1071D03*
Y1270D03*
Y1469D03*
Y1668D03*
Y1867D03*
Y2066D03*
Y2265D03*
Y2464D03*
Y2663D03*
X7090D03*
X7492D03*
X7693D03*
X7894D03*
X8095D03*
X8296D03*
X8496D03*
X8514Y2427D03*
Y2228D03*
Y2029D03*
Y1830D03*
Y1631D03*
Y1433D03*
Y1234D03*
Y1035D03*
Y836D03*
Y637D03*
Y-637D03*
Y-836D03*
Y-1035D03*
Y-1233D03*
Y-1432D03*
Y-1631D03*
Y-1830D03*
Y-2029D03*
Y-2228D03*
Y-2427D03*
X8496Y-2663D03*
X8296D03*
X8095D03*
X7894D03*
X7693D03*
X7492D03*
X7294Y-2664D03*
X7090Y-2663D03*
X6902Y-2662D03*
Y-2463D03*
Y-2265D03*
Y-2066D03*
Y-1867D03*
Y-1668D03*
Y-1469D03*
Y-1270D03*
Y-1071D03*
X6537Y-1045D03*
X6336D03*
X6135D03*
X5934D03*
X5733D03*
X5533D03*
X5332D03*
X5131D03*
X4930D03*
X4729D03*
X4528D03*
X4327D03*
X4126D03*
X3925D03*
X3724D03*
X3523D03*
X3322D03*
X3121D03*
X2920D03*
X2719D03*
X2518D03*
X2318D03*
X2117D03*
X1916D03*
X7294Y2664D03*
X5737Y1045D03*
M02*
