M48
INCH,LZ
VER,1
FMAT,2
T01C0.008F0B1S0H2000
T02C0.01F0B1S0H2000
T03C0.012F0B1S0H2000
T04C0.02F0B1S0H2000
T05C0.078F0B1S0H2000
T06C0.086F0B1S0H2000
T07C0.1F0B1S0H2000
T08C0.12F0B1S0H2000
T10C0.064F0B1S0H2000
DETECT,ON
ATC,ON
%
T01
X-001647Y-001018
X-001441Y-001036
X-001418Y-001208
X-001246Y-001152
X-001238Y-001295
X-001072Y-001156
X-001079Y-000963
X-001254Y-001005
X-000859Y-000924
Y-001111
X000295Y-001151
X000884Y-001111
X000855Y-000924
X001075Y-000963
X00125Y-000959
X001242Y-001152
X001231Y-001295
X001407Y-001208
X00143Y-001036
X001643Y-001018
X001068Y-001156
X001097Y-000797
X000932Y-000737
X001176Y-000067
X001169Y000138
Y000324
X001348Y000333
X001341Y000537
X001176Y000518
X001169Y000722
X001344Y00074
X00151Y000696
X001509Y000862
X001518Y001045
X001317
X001249Y000895
X001068Y000874
X000868
Y001074
X001068
X001157Y001223
X001329Y00128
X001527Y001277
X001517Y000492
X00151Y000263
X001346Y000099
X00039Y001151
X-000868Y001074
Y000874
X-001068
Y001074
X-001157Y001223
X-001329Y00128
X-001527Y001277
X-001518Y001045
X-001509Y000862
X-00151Y000696
X-001344Y00074
X-001169Y000722
X-001176Y000518
X-001341Y000537
X-001348Y000333
X-001169Y000324
Y000138
X-001176Y-000067
X-001346Y000099
X-00151Y000263
X-001517Y000492
X-001249Y000895
X-001317Y001045
X-000907Y-000737
T02
X007693Y-002663
X007894
X008095
X008296
X008496
X008514Y-002427
Y-002228
Y-002029
Y-00183
Y-001631
Y-001432
Y-001233
Y-001035
Y-000836
X006902Y-001071
Y-00127
Y-001469
Y-001668
Y-001867
Y-002066
Y-002265
Y-002463
Y-002662
X00709Y-002663
X007294Y-002664
X007492Y-002663
X006537Y-001045
X006336
X006135
X005934
X005733
X005533
X005332
X005131
X00493
X004729
X004528
X004327
X004126
X003925
X003724
X003523
X003322
X003121
X00292
X002719
X002518
X002318
X002117
X001916
X-00192
X-002121
X-002322
X-002522
X-002723
X-002924
X-003125
X-003326
X-003527
X-003728
X-003929
X-00413
X-004331
X-004532
X-004733
X-004934
X-005135
X-005336
X-005537
X-005737
X-005938
X-006139
X-00634
X-006541
X-006902Y-001071
Y-00127
Y-001469
Y-001668
Y-001867
Y-002066
Y-002265
Y-002463
Y-002662
X-00709Y-002663
X-007295Y-002664
X-007492Y-002663
X-007693
X-007894
X-008095
X-008296
X-008497
X-008515Y-002427
Y-002228
Y-002029
Y-00183
Y-001631
Y-001432
Y-001233
Y-001035
Y-000836
Y-000637
Y000637
Y000836
Y001035
Y001234
Y001433
Y001631
Y00183
Y002029
Y002228
Y002427
X-008497Y002663
X-008296
X-008095
X-007894
X-007693
X-007492
X-007295Y002664
X-00709Y002663
X-006902
Y002464
Y002265
Y002066
Y001867
Y001668
Y001469
Y00127
Y001071
X-006541Y001045
X-006327Y00104
X-006157Y001036
X-005938Y001045
X-005737
X-005537
X-005336
X-005135
X-004934
X-004733
X-004532
X-004331
X-00413
X-003929
X-003728
X-003527
X-003326
X-003125
X-002924
X-002723
X-002522
X-002322
X-002121
X-00192
X001919
X00212
X002321
X002522
X002723
X002924
X003125
X003326
X003527
X003728
X003928
X004129
X00433
X004531
X004732
X004933
X005134
X005335
X005536
X005737
X005938
X006139
X00634
X006541
X006902Y001071
Y00127
Y001469
Y001668
Y001867
Y002066
Y002265
Y002464
Y002663
X00709
X007294Y002664
X007492Y002663
X007693
X007894
X008095
X008296
X008496
X008514Y002427
Y002228
Y002029
Y00183
Y001631
Y001433
Y001234
Y001035
Y000836
Y000637
Y-000637
T03
X-000556Y-000554
Y-000332
Y-00011
Y000112
Y000334
Y000556
X-000334
Y000334
Y000112
Y-00011
Y-000332
Y-000554
X-000112
Y-000332
Y-00011
Y000112
Y000334
Y000556
X00011
Y000334
Y000112
Y-00011
Y-000332
Y-000554
X000332
Y-000332
Y-00011
Y000112
Y000334
Y000556
X000554
Y000334
Y000112
Y-00011
Y-000332
Y-000554
T04
X007937Y-009691
X008437
Y-009191
Y-008191
Y-007691
X007937
Y-007191
X008437
Y-006691
Y-006191
X007937
Y-006691
Y-005691
X008437
Y-005191
Y-004691
Y-004191
Y-003691
X007937
Y-004191
Y-004691
Y-005191
X007965Y-002994
X008465
X007465
X006965
X006461Y-002923
Y-002423
Y-001923
Y-001423
X005961
Y-001923
Y-002423
Y-002923
X005461
Y-002423
Y-001923
Y-001423
X004961
Y-001923
Y-002423
Y-002923
X004461
Y-002423
Y-001923
Y-001423
X003961
Y-001923
Y-002423
Y-002923
X003461
Y-002423
Y-001923
Y-001423
X002961
Y-001923
X002552Y-001651
X002127Y-001415
Y-001915
X001714Y-002002
X001581Y-001523
X001461Y-004153
X001044Y-004156
X000626Y-004153
X-000389
X-000806Y-004156
X-001224Y-004153
X-003036Y-003025
X-003465Y-002923
Y-002423
Y-001923
Y-001423
X-003965
X-004465
X-004965
X-005465
X-005965
X-006465
Y-001923
X-005965
X-005465
X-004965
X-004465
X-003965
Y-002423
X-004465
X-004965
X-005465
X-005965
X-006465
Y-002923
X-005965
X-005465
X-004965
X-004465
X-003965
X-004437Y-003691
X-004937
X-005437
X-005937
X-006437
X-006937
X-007437
X-007937
Y-004191
X-007437
X-006937
X-006437
X-005937
X-005437
X-004937
X-004437
Y-004691
Y-005191
Y-005691
Y-006191
X-004937
Y-005691
Y-005191
Y-004691
X-005437
X-005937
X-006437
X-006937
X-007437
X-007937
Y-005191
X-007437
X-006937
X-006437
X-005937
X-005437
Y-005691
X-005937
X-006437
X-006937
X-007437
X-007937
Y-006191
X-007437
X-006937
X-006437
X-005937
X-005437
X-005937Y-006691
Y-007191
Y-007691
Y-008191
X-005437
X-004937
X-004437
Y-007691
Y-007191
Y-006691
X-00356Y-007393
X-003143Y-007396
X-002726Y-007393
X-00171
X-001293Y-007396
X-000876Y-007393
X000809
X001226Y-007396
X001643Y-007393
X002659
X003076Y-007396
X003493Y-007393
X004437Y-007191
Y-007691
Y-008191
X004937
X005437
X005937
X006437
X006937
Y-007691
X006437
X005937
Y-007191
Y-006691
Y-006191
X005437
X004937
X004437
Y-006691
Y-005691
X004937
X005437
X005937
X006437
Y-006191
Y-006691
Y-007191
X006937
Y-006691
Y-006191
X007437
Y-006691
Y-007191
Y-007691
Y-009691
X006937
X006437
X005937
X005437
X004937
X004437
Y-009191
X004937
X005437
X005937
X006437
X006937
X006437Y-008691
X005937
X005437
X004937
X004437
Y-005191
X004937
X005437
X005937
X006437
X006937
X007437
Y-005691
X006937
Y-004691
X007437
Y-004191
Y-003691
X006937
Y-004191
X006437
Y-004691
X005937
Y-004191
Y-003691
X006437
X005437
Y-004191
Y-004691
X004937
Y-004191
Y-003691
X004437
Y-004191
Y-004691
X003032Y-003025
X-001585Y-001523
X-002131Y-001415
Y-001915
X-002556Y-001651
X-002965Y-001423
Y-001923
X-006965Y-002994
X-007465
X-007965
X-007937Y-006691
X-007437
X-006937
X-006437
Y-007191
Y-007691
Y-008191
Y-008691
X-005937
X-005437
X-004937
X-004437
Y-009191
X-004937
X-005437
X-005937
X-006437
X-006937
Y-009691
X-007437
X-007937
X-006437
X-005937
X-005437
X-004937
X-004437
X-006937Y-008191
Y-007691
Y-007191
X-007437
Y-007691
X-007937
Y-007191
X-008437
Y-006691
Y-006191
Y-005691
Y-005191
Y-004691
Y-004191
Y-003691
X-008465Y-002994
X-008437Y-007691
Y-008191
Y-009191
Y-009691
X-00855Y-000325
X-008151Y-000353
Y000353
X-00855Y000325
X-008465Y002994
X-008437Y003691
Y004191
Y004691
Y005191
Y005691
X-008401Y006116
X-008437Y006691
Y007191
Y007691
Y008191
Y009191
Y009691
X-007937
X-007437
X-006937
Y009191
X-006437
Y009691
X-005937
Y009191
Y008691
Y008191
X-005437
X-004937
X-004437
Y007691
Y007191
Y006691
Y006191
Y005691
Y005191
Y004691
Y004191
X-004937
Y003691
X-005437
Y004191
Y004691
X-004937
Y005191
Y005691
Y006191
X-005437
Y005691
Y005191
X-005937
Y005691
Y006191
Y006691
X-006437
Y006191
Y005691
Y005191
Y004691
X-005937
Y004191
Y003691
X-006437
Y004191
X-006937
Y003691
X-007437
Y004191
Y004691
X-006937
Y005191
Y005691
Y006191
Y006691
Y007191
X-006437
X-005937
Y007691
X-006437
Y008191
X-006937
Y007691
X-007437
Y007191
Y006691
Y006191
Y005691
Y005191
X-007937
Y004691
Y004191
Y003691
X-007965Y002994
X-007465
X-006965
X-006465Y002923
X-005965
X-005465
X-004965
X-004465
X-003965
X-003465
Y002423
X-003965
X-004465
X-004965
X-005465
X-005965
X-006465
Y001923
X-005965
X-005465
X-004965
X-004465
X-003965
X-003465
Y001423
X-002965
Y001923
X-002556Y001651
X-002131Y001415
Y001915
X-003036Y003025
X-00442Y003692
X-004465Y001423
X-003965
X-004965
X-005465
X-005965
X-006465
X-006945Y000641
X-007353Y000455
X-00775Y000393
Y-000392
X-007353Y-000454
X-006945Y-000641
X-007937Y005691
Y006191
Y006691
Y007191
Y007691
X-006437Y008691
X-005437
X-004937
X-004437
Y009191
Y009691
X-004937
X-005437
Y009191
X-004937
X-00356Y007393
X-003143Y007396
X-002726Y007393
X-00171
X-001293Y007396
X-000876Y007393
X000809
X001226Y007396
X001643Y007393
X002659
X003076Y007396
X003493Y007393
X004437Y007191
Y007691
Y008191
Y008691
X004937
X005437
X005937
X006437
Y008191
X006937
Y007691
X007437
Y007191
Y006691
Y006191
Y005691
Y005191
Y004691
Y004191
Y003691
X006937
Y004191
Y004691
Y005191
Y005691
Y006191
Y006691
Y007191
X006437
Y007691
X005937
Y007191
Y006691
X006437
Y006191
Y005691
Y005191
Y004691
Y004191
Y003691
X005937
Y004191
Y004691
Y005191
Y005691
Y006191
X005437
X004937
X004437
Y006691
Y005691
X004937
X005437
Y005191
Y004691
Y004191
Y003691
X004937
Y004191
Y004691
Y005191
X004437
Y004691
Y004191
Y003691
X004465Y002923
X003965
X003465
Y002423
Y001923
X002965
Y001423
X003465
X003965
Y001923
Y002423
X004465
Y001923
Y001423
X004965
Y001923
Y002423
Y002923
X005465
Y002423
Y001923
Y001423
X005965
Y001923
Y002423
Y002923
X006465
Y002423
Y001923
Y001423
X006945Y000641
X007353Y000455
Y-000454
X006945Y-000641
X006965Y002994
X007465
X003036Y003025
X002556Y001651
X00213Y001415
Y001915
X001461Y004153
X001044Y004156
X000626Y004153
X-000389
X-000806Y004156
X-001224Y004153
X004937Y008191
X005437
X005937
Y009191
X005437
X004937
X004437
Y009691
X004937
X005437
X005937
X006437
Y009191
X006937
Y009691
X007437
X007937
X008437
Y009191
Y008191
Y007691
Y007191
Y006691
Y006191
Y005691
Y005191
Y004691
Y004191
Y003691
X007937
Y004191
Y004691
Y005191
Y005691
Y006191
Y006691
Y007191
Y007691
X007965Y002994
X008465
X00855Y000325
X00815Y000353
X00775Y000393
Y-000392
X00815Y-000353
X00855Y-000325
T05
X00768Y-001875
X-00768
Y001875
X00768
T06
X-00525Y-00725
X00525
Y00725
X-00525
T07
X-0025Y-0025
X0025
Y0025
X-0025
T08
X00768Y-00884
X-00768
Y00884
X00768
T10
X00263Y-00375
X-00263Y00375
M30
