G04 CAM350/DFMSTREAM V12.1 (Build 1022) Date:  Fri Nov 06 13:38:26 2015 *
G04 Database: C:\Projects\3894_EVB_TGP2105_MArnold_102015\Gerbers\110615\GBR_1138089-A.cam *
G04 Layer 7: SOLDERMASK_TOP *
%FSLAX24Y24*%
%MOIN*%
%SFA1.000B1.000*%

%MIA0B0*%
%IPPOS*%
%ADD10C,0.07800*%
%ADD11C,0.08600*%
%ADD12C,0.10000*%
%ADD13C,0.12000*%
%ADD14C,0.06400*%
%LNSOLDERMASK_TOP*%
%LPD*%
G36*
X-1210Y11000D02*
G01Y11384D01*
X-1159*
Y11046*
X-969*
Y11000*
X-1210*
G37*
G36*
X-521D02*
G01Y11384D01*
X-243*
Y11339*
X-470*
Y11221*
X-257*
Y11176*
X-470*
Y11046*
X-234*
Y11000*
X-521*
G37*
G36*
X2640D02*
G01Y11384D01*
X2797*
X2806*
X2815Y11383*
X2825Y11382*
X2835Y11381*
X2843Y11380*
X2844*
X2848Y11379*
X2853Y11378*
X2860Y11376*
X2867Y11374*
X2875Y11370*
X2883Y11366*
X2890Y11362*
X2891Y11361*
X2893Y11360*
X2897Y11356*
X2901Y11352*
X2906Y11347*
X2911Y11341*
X2917Y11334*
X2921Y11325*
X2922Y11324*
X2923Y11321*
X2925Y11316*
X2927Y11310*
X2929Y11302*
X2931Y11293*
X2932Y11283*
X2933Y11273*
Y11272*
Y11270*
Y11268*
X2932Y11264*
Y11260*
X2931Y11255*
X2930Y11250*
X2929Y11244*
X2925Y11231*
X2923Y11224*
X2920Y11217*
X2916Y11210*
X2912Y11203*
X2907Y11196*
X2901Y11190*
Y11189*
X2900Y11188*
X2898Y11186*
X2895Y11185*
X2892Y11182*
X2887Y11179*
X2882Y11176*
X2876Y11173*
X2868Y11170*
X2860Y11166*
X2851Y11164*
X2841Y11162*
X2830Y11159*
X2817Y11158*
X2804Y11157*
X2789Y11156*
X2691*
Y11000*
X2640*
G37*
G36*
X1866Y11339D02*
G01Y11384D01*
X2170*
Y11339*
X2043*
Y11000*
X1992*
Y11339*
X1866*
G37*
G36*
X1012Y11123D02*
G01X1060Y11128D01*
Y11127*
Y11125*
Y11123*
X1061Y11118*
X1063Y11110*
X1065Y11103*
X1067Y11095*
X1071Y11087*
X1075Y11080*
X1076Y11079*
X1077Y11077*
X1080Y11073*
X1085Y11069*
X1090Y11064*
X1096Y11059*
X1105Y11054*
X1114Y11050*
X1115Y11049*
X1116*
X1118Y11048*
X1124Y11047*
X1131Y11044*
X1140Y11042*
X1150Y11041*
X1161Y11039*
X1173*
X1178*
X1183*
X1190Y11040*
X1198Y11041*
X1207Y11042*
X1216Y11044*
X1224Y11047*
X1225Y11048*
X1228Y11049*
X1232Y11051*
X1237Y11053*
X1242Y11057*
X1247Y11061*
X1253Y11065*
X1257Y11071*
X1258Y11072*
X1259Y11074*
X1261Y11077*
X1263Y11081*
X1265Y11085*
X1267Y11091*
X1268Y11097*
Y11104*
Y11107*
Y11110*
X1267Y11115*
X1266Y11119*
X1264Y11125*
X1261Y11130*
X1257Y11135*
Y11136*
X1255Y11138*
X1253Y11140*
X1249Y11143*
X1245Y11147*
X1238Y11150*
X1231Y11154*
X1223Y11158*
X1222*
X1220Y11159*
X1215Y11160*
X1212Y11161*
X1208Y11162*
X1205Y11164*
X1200Y11165*
X1194Y11166*
X1187Y11168*
X1181Y11170*
X1173Y11172*
X1164Y11174*
X1155Y11176*
X1154*
X1152Y11177*
X1150Y11178*
X1146Y11179*
X1142Y11180*
X1137Y11181*
X1126Y11184*
X1114Y11188*
X1101Y11192*
X1090Y11196*
X1085Y11198*
X1080Y11200*
X1079Y11201*
X1076Y11203*
X1071Y11206*
X1065Y11210*
X1059Y11215*
X1052Y11221*
X1045Y11229*
X1040Y11236*
X1039Y11238*
X1038Y11240*
X1035Y11245*
X1033Y11250*
X1031Y11258*
X1029Y11266*
X1027Y11275*
X1026Y11284*
Y11285*
Y11287*
Y11289*
X1028Y11295*
X1029Y11302*
X1030Y11310*
X1033Y11320*
X1037Y11329*
X1043Y11339*
Y11340*
X1046Y11343*
X1050Y11347*
X1055Y11353*
X1061Y11359*
X1070Y11366*
X1080Y11372*
X1091Y11377*
X1092Y11378*
X1094Y11379*
X1096Y11380*
X1099Y11381*
X1103Y11382*
X1111Y11384*
X1122Y11386*
X1134Y11388*
X1147Y11390*
X1161Y11391*
X1169*
X1172Y11390*
X1176*
X1187Y11389*
X1198Y11387*
X1211Y11385*
X1224Y11381*
X1236Y11377*
X1237*
X1238Y11376*
X1240Y11375*
X1242Y11374*
X1247Y11371*
X1255Y11366*
X1263Y11361*
X1271Y11354*
X1279Y11345*
X1286Y11336*
Y11335*
X1287*
X1288Y11333*
X1289Y11331*
X1292Y11326*
X1295Y11319*
X1299Y11310*
X1302Y11299*
X1304Y11288*
X1306Y11276*
X1257Y11272*
Y11273*
Y11274*
X1256Y11275*
Y11278*
X1254Y11284*
X1252Y11292*
X1248Y11301*
X1243Y11310*
X1237Y11319*
X1230Y11326*
X1228Y11327*
X1226Y11329*
X1220Y11332*
X1213Y11336*
X1203Y11339*
X1192Y11342*
X1178Y11345*
X1163*
X1155*
X1152*
X1147Y11344*
X1137Y11343*
X1126Y11341*
X1115Y11338*
X1105Y11334*
X1100Y11331*
X1096Y11328*
X1095Y11327*
X1092Y11325*
X1089Y11321*
X1086Y11317*
X1082Y11311*
X1079Y11304*
X1076Y11296*
X1075Y11287*
Y11286*
Y11284*
X1076Y11280*
X1077Y11276*
X1079Y11270*
X1081Y11265*
X1085Y11259*
X1090Y11254*
Y11253*
X1093Y11251*
X1095Y11250*
X1097Y11249*
X1101Y11247*
X1105Y11245*
X1110Y11243*
X1115Y11241*
X1121Y11239*
X1129Y11236*
X1136Y11234*
X1145Y11231*
X1155Y11229*
X1166Y11226*
X1167*
X1169Y11225*
X1172*
X1176Y11224*
X1181Y11223*
X1187Y11221*
X1193Y11219*
X1200Y11218*
X1215Y11214*
X1228Y11210*
X1235Y11208*
X1241Y11205*
X1247Y11204*
X1251Y11201*
X1252*
X1253*
X1255Y11200*
X1257Y11199*
X1263Y11195*
X1270Y11191*
X1278Y11185*
X1287Y11178*
X1294Y11170*
X1301Y11162*
X1302Y11161*
X1304Y11158*
X1306Y11153*
X1309Y11147*
X1312Y11139*
X1315Y11129*
X1317Y11119*
Y11108*
Y11107*
Y11105*
Y11103*
X1316Y11097*
X1315Y11089*
X1313Y11080*
X1310Y11070*
X1306Y11061*
X1299Y11050*
Y11049*
X1296Y11046*
X1292Y11041*
X1287Y11035*
X1279Y11028*
X1271Y11021*
X1261Y11014*
X1249Y11008*
X1248*
X1247*
X1246Y11007*
X1243Y11006*
X1240Y11005*
X1236Y11003*
X1227Y11001*
X1217Y10998*
X1204Y10996*
X1190Y10994*
X1175Y10993*
X1166*
X1162Y10994*
X1157*
X1151*
X1145Y10995*
X1131Y10997*
X1116Y10999*
X1102Y11003*
X1088Y11008*
X1087*
X1086Y11009*
X1085Y11010*
X1082Y11011*
X1076Y11014*
X1068Y11019*
X1059Y11026*
X1050Y11034*
X1041Y11043*
X1033Y11054*
X1031Y11056*
Y11057*
X1029Y11059*
X1028Y11062*
X1026Y11065*
X1023Y11074*
X1019Y11084*
X1015Y11096*
X1013Y11109*
X1012Y11123*
G37*
G36*
X-2000D02*
G01X-1952Y11128D01*
Y11127*
Y11125*
Y11123*
X-1951Y11118*
X-1949Y11110*
X-1947Y11103*
X-1945Y11095*
X-1941Y11087*
X-1937Y11080*
X-1936Y11079*
X-1935Y11077*
X-1932Y11073*
X-1927Y11069*
X-1922Y11064*
X-1916Y11059*
X-1907Y11054*
X-1898Y11050*
X-1897Y11049*
X-1896*
X-1894Y11048*
X-1888Y11047*
X-1881Y11044*
X-1872Y11042*
X-1862Y11041*
X-1851Y11039*
X-1839*
X-1834*
X-1829*
X-1822Y11040*
X-1814Y11041*
X-1805Y11042*
X-1796Y11044*
X-1788Y11047*
X-1787Y11048*
X-1784Y11049*
X-1780Y11051*
X-1775Y11053*
X-1770Y11057*
X-1765Y11061*
X-1759Y11065*
X-1755Y11071*
X-1754Y11072*
X-1753Y11074*
X-1751Y11077*
X-1749Y11081*
X-1747Y11085*
X-1745Y11091*
X-1744Y11097*
Y11104*
Y11107*
Y11110*
X-1745Y11115*
X-1746Y11119*
X-1748Y11125*
X-1751Y11130*
X-1755Y11135*
Y11136*
X-1757Y11138*
X-1759Y11140*
X-1763Y11143*
X-1767Y11147*
X-1774Y11150*
X-1781Y11154*
X-1789Y11158*
X-1790*
X-1792Y11159*
X-1797Y11160*
X-1800Y11161*
X-1804Y11162*
X-1807Y11164*
X-1812Y11165*
X-1818Y11166*
X-1825Y11168*
X-1831Y11170*
X-1839Y11172*
X-1848Y11174*
X-1857Y11176*
X-1858*
X-1860Y11177*
X-1862Y11178*
X-1866Y11179*
X-1870Y11180*
X-1875Y11181*
X-1886Y11184*
X-1898Y11188*
X-1911Y11192*
X-1922Y11196*
X-1927Y11198*
X-1932Y11200*
X-1933Y11201*
X-1936Y11203*
X-1941Y11206*
X-1947Y11210*
X-1953Y11215*
X-1960Y11221*
X-1967Y11229*
X-1972Y11236*
X-1973Y11238*
X-1974Y11240*
X-1977Y11245*
X-1979Y11250*
X-1981Y11258*
X-1983Y11266*
X-1985Y11275*
X-1986Y11284*
Y11285*
Y11287*
Y11289*
X-1984Y11295*
X-1983Y11302*
X-1982Y11310*
X-1979Y11320*
X-1975Y11329*
X-1969Y11339*
Y11340*
X-1966Y11343*
X-1962Y11347*
X-1957Y11353*
X-1951Y11359*
X-1942Y11366*
X-1932Y11372*
X-1921Y11377*
X-1920Y11378*
X-1918Y11379*
X-1916Y11380*
X-1913Y11381*
X-1909Y11382*
X-1901Y11384*
X-1890Y11386*
X-1878Y11388*
X-1865Y11390*
X-1851Y11391*
X-1843*
X-1840Y11390*
X-1836*
X-1825Y11389*
X-1814Y11387*
X-1801Y11385*
X-1788Y11381*
X-1776Y11377*
X-1775*
X-1774Y11376*
X-1772Y11375*
X-1770Y11374*
X-1765Y11371*
X-1757Y11366*
X-1749Y11361*
X-1741Y11354*
X-1733Y11345*
X-1726Y11336*
Y11335*
X-1725*
X-1724Y11333*
X-1723Y11331*
X-1720Y11326*
X-1717Y11319*
X-1713Y11310*
X-1710Y11299*
X-1708Y11288*
X-1706Y11276*
X-1755Y11272*
Y11273*
Y11274*
X-1756Y11275*
Y11278*
X-1758Y11284*
X-1760Y11292*
X-1764Y11301*
X-1769Y11310*
X-1775Y11319*
X-1782Y11326*
X-1784Y11327*
X-1786Y11329*
X-1792Y11332*
X-1799Y11336*
X-1809Y11339*
X-1820Y11342*
X-1833Y11345*
X-1849*
X-1857*
X-1860*
X-1865Y11344*
X-1875Y11343*
X-1886Y11341*
X-1897Y11338*
X-1907Y11334*
X-1912Y11331*
X-1916Y11328*
X-1917Y11327*
X-1920Y11325*
X-1923Y11321*
X-1926Y11317*
X-1930Y11311*
X-1933Y11304*
X-1936Y11296*
X-1937Y11287*
Y11286*
Y11284*
X-1936Y11280*
X-1935Y11276*
X-1933Y11270*
X-1931Y11265*
X-1927Y11259*
X-1922Y11254*
Y11253*
X-1919Y11251*
X-1917Y11250*
X-1915Y11249*
X-1911Y11247*
X-1907Y11245*
X-1902Y11243*
X-1897Y11241*
X-1891Y11239*
X-1883Y11236*
X-1876Y11234*
X-1867Y11231*
X-1857Y11229*
X-1846Y11226*
X-1845*
X-1843Y11225*
X-1840*
X-1836Y11224*
X-1831Y11223*
X-1825Y11221*
X-1819Y11219*
X-1812Y11218*
X-1797Y11214*
X-1784Y11210*
X-1777Y11208*
X-1771Y11205*
X-1765Y11204*
X-1761Y11201*
X-1760*
X-1759*
X-1757Y11200*
X-1755Y11199*
X-1749Y11195*
X-1742Y11191*
X-1734Y11185*
X-1725Y11178*
X-1717Y11170*
X-1711Y11162*
X-1710Y11161*
X-1708Y11158*
X-1706Y11153*
X-1703Y11147*
X-1700Y11139*
X-1697Y11129*
X-1695Y11119*
Y11108*
Y11107*
Y11105*
Y11103*
X-1696Y11097*
X-1697Y11089*
X-1699Y11080*
X-1702Y11070*
X-1706Y11061*
X-1713Y11050*
Y11049*
X-1716Y11046*
X-1720Y11041*
X-1725Y11035*
X-1732Y11028*
X-1741Y11021*
X-1751Y11014*
X-1763Y11008*
X-1764*
X-1765*
X-1766Y11007*
X-1769Y11006*
X-1772Y11005*
X-1776Y11003*
X-1785Y11001*
X-1795Y10998*
X-1808Y10996*
X-1822Y10994*
X-1837Y10993*
X-1846*
X-1850Y10994*
X-1855*
X-1861*
X-1867Y10995*
X-1881Y10997*
X-1896Y10999*
X-1910Y11003*
X-1924Y11008*
X-1925*
X-1926Y11009*
X-1927Y11010*
X-1930Y11011*
X-1936Y11014*
X-1944Y11019*
X-1953Y11026*
X-1962Y11034*
X-1971Y11043*
X-1979Y11054*
X-1981Y11056*
Y11057*
X-1983Y11059*
X-1984Y11062*
X-1986Y11065*
X-1989Y11074*
X-1993Y11084*
X-1997Y11096*
X-1999Y11109*
X-2000Y11123*
G37*
G36*
X1385Y11000D02*
G01Y11384D01*
X1436*
Y11193*
X1626Y11384*
X1695*
X1534Y11228*
X1702Y11000*
X1635*
X1499Y11194*
X1436Y11133*
Y11000*
X1385*
G37*
G36*
X-909D02*
G01Y11384D01*
X-761*
X-751*
X-740Y11383*
X-729Y11382*
X-718Y11380*
X-709Y11379*
X-708*
X-707Y11378*
X-705*
X-703Y11377*
X-697Y11375*
X-689Y11372*
X-680Y11369*
X-671Y11364*
X-661Y11358*
X-652Y11351*
Y11350*
X-651*
X-650Y11348*
X-647Y11346*
X-642Y11341*
X-635Y11333*
X-628Y11324*
X-620Y11312*
X-613Y11300*
X-607Y11285*
X-606Y11284*
X-605Y11281*
Y11278*
X-603Y11274*
X-602Y11270*
X-601Y11265*
X-599Y11259*
X-598Y11253*
X-596Y11245*
X-594Y11230*
X-592Y11213*
X-591Y11194*
Y11193*
Y11192*
Y11189*
Y11186*
X-592Y11183*
Y11178*
X-593Y11168*
X-594Y11155*
X-596Y11143*
X-599Y11129*
X-602Y11116*
Y11115*
X-603Y11114*
Y11113*
X-604Y11110*
X-606Y11104*
X-609Y11097*
X-613Y11088*
X-617Y11079*
X-622Y11069*
X-628Y11061*
X-629Y11059*
X-631Y11057*
X-634Y11053*
X-639Y11048*
X-644Y11042*
X-650Y11037*
X-656Y11031*
X-663Y11026*
X-664Y11025*
X-666Y11023*
X-670Y11021*
X-676Y11018*
X-682Y11015*
X-690Y11012*
X-699Y11009*
X-709Y11006*
X-710*
X-712*
X-714Y11005*
X-719Y11004*
X-727Y11003*
X-736Y11002*
X-746Y11001*
X-758*
X-771Y11000*
X-909*
G37*
G36*
X-163D02*
G01Y11384D01*
X15*
X20*
X25*
X36Y11383*
X49Y11381*
X62Y11380*
X74Y11377*
X80Y11375*
X85Y11374*
X86*
Y11373*
X90Y11371*
X95Y11369*
X101Y11365*
X107Y11360*
X115Y11354*
X121Y11346*
X128Y11337*
Y11336*
X131Y11332*
X133Y11327*
X136Y11320*
X139Y11311*
X142Y11301*
X143Y11291*
X144Y11279*
Y11278*
Y11275*
X143Y11273*
Y11269*
Y11265*
X141Y11255*
X137Y11244*
X133Y11233*
X126Y11221*
X122Y11215*
X117Y11210*
Y11209*
X116*
X115Y11207*
X112Y11205*
X110Y11203*
X106Y11201*
X102Y11198*
X97Y11195*
X92Y11192*
X86Y11189*
X79Y11186*
X72Y11183*
X63Y11181*
X55Y11178*
X46Y11176*
X36Y11175*
X37Y11174*
X39Y11173*
X42Y11171*
X47Y11169*
X57Y11163*
X62Y11159*
X66Y11155*
X67Y11154*
X70Y11152*
X75Y11147*
X80Y11142*
X86Y11134*
X93Y11125*
X101Y11115*
X108Y11104*
X174Y11000*
X111*
X61Y11080*
X60Y11082*
X58Y11083*
X57Y11085*
X53Y11092*
X48Y11099*
X42Y11108*
X36Y11117*
X30Y11125*
X24Y11133*
X22Y11135*
X19Y11139*
X15Y11143*
X7Y11151*
X2Y11155*
X-2Y11158*
X-3Y11159*
X-4*
X-6Y11160*
X-9Y11162*
X-13Y11164*
X-16Y11165*
X-25Y11168*
X-26*
X-27Y11169*
X-29*
X-32*
X-36Y11170*
X-40*
X-46*
X-112*
Y11000*
X-163*
G37*
G36*
X629D02*
G01X776Y11384D01*
X831*
X988Y11000*
X930*
X885Y11117*
X724*
X683Y11000*
X629*
G37*
G36*
X222D02*
G01Y11384D01*
X298*
X389Y11112*
Y11111*
X390Y11110*
Y11108*
X391Y11105*
X394Y11099*
X396Y11090*
X399Y11081*
X403Y11072*
X405Y11063*
X408Y11055*
Y11056*
X409Y11059*
X410Y11064*
X413Y11070*
X415Y11079*
X419Y11090*
X423Y11102*
X428Y11117*
X520Y11384*
X589*
Y11000*
X540*
Y11321*
X428Y11000*
X382*
X271Y11327*
Y11000*
X222*
G37*
G36*
X2207Y11186D02*
G01Y11187D01*
Y11188*
Y11191*
Y11196*
Y11203*
X2209Y11210*
X2210Y11220*
X2211Y11230*
X2214Y11241*
X2216Y11253*
X2219Y11265*
X2224Y11278*
X2229Y11290*
X2234Y11302*
X2241Y11315*
X2249Y11326*
X2258Y11336*
X2259Y11337*
X2260Y11339*
X2264Y11341*
X2267Y11345*
X2272Y11349*
X2279Y11354*
X2286Y11359*
X2294Y11364*
X2303Y11369*
X2313Y11374*
X2324Y11378*
X2336Y11382*
X2348Y11386*
X2362Y11388*
X2376Y11390*
X2391Y11391*
X2396*
X2399Y11390*
X2404*
X2409*
X2416Y11388*
X2423Y11387*
X2437Y11385*
X2454Y11380*
X2470Y11374*
X2478Y11370*
X2487Y11365*
X2488Y11364*
X2491Y11362*
X2494Y11361*
X2497Y11358*
X2502Y11355*
X2511Y11347*
X2521Y11337*
X2532Y11325*
X2543Y11310*
X2552Y11294*
X2553Y11292*
X2554Y11290*
X2555Y11286*
X2557Y11282*
X2559Y11277*
X2561Y11271*
X2563Y11264*
X2565Y11257*
X2567Y11249*
X2569Y11240*
X2571Y11231*
X2573Y11212*
X2574Y11191*
Y11190*
Y11188*
Y11185*
Y11181*
Y11176*
X2573Y11170*
X2572Y11163*
Y11156*
X2569Y11140*
X2564Y11122*
X2558Y11104*
X2555Y11095*
X2550Y11087*
Y11086*
X2549Y11084*
X2548Y11082*
X2546Y11079*
X2544Y11075*
X2541Y11071*
X2533Y11061*
X2524Y11049*
X2513Y11038*
X2499Y11027*
X2484Y11017*
X2483*
X2482Y11016*
X2479Y11014*
X2476Y11013*
X2472Y11011*
X2468Y11009*
X2462Y11007*
X2456Y11005*
X2449Y11003*
X2442Y11001*
X2426Y10997*
X2409Y10994*
X2391Y10993*
X2385*
X2382Y10994*
X2377*
X2371Y10995*
X2365Y10996*
X2358Y10997*
X2343Y11000*
X2327Y11004*
X2310Y11011*
X2302Y11015*
X2293Y11019*
Y11020*
X2292Y11021*
X2290Y11022*
X2286Y11024*
X2283Y11027*
X2279Y11030*
X2270Y11038*
X2259Y11048*
X2248Y11061*
X2238Y11074*
X2229Y11090*
Y11091*
X2227Y11093*
X2226Y11095*
X2225Y11098*
X2224Y11103*
X2222Y11108*
X2220Y11113*
X2218Y11119*
X2216Y11127*
X2214Y11134*
X2210Y11150*
X2208Y11168*
X2207Y11186*
G37*
G36*
X-1640D02*
G01Y11187D01*
Y11188*
Y11191*
Y11196*
Y11203*
X-1639Y11210*
X-1638Y11220*
X-1636Y11230*
X-1634Y11241*
X-1631Y11253*
X-1628Y11265*
X-1624Y11278*
X-1619Y11290*
X-1613Y11302*
X-1606Y11315*
X-1598Y11326*
X-1589Y11336*
Y11337*
X-1587Y11339*
X-1584Y11341*
X-1580Y11345*
X-1575Y11349*
X-1569Y11354*
X-1562Y11359*
X-1553Y11364*
X-1544Y11369*
X-1534Y11374*
X-1523Y11378*
X-1512Y11382*
X-1499Y11386*
X-1486Y11388*
X-1472Y11390*
X-1457Y11391*
X-1452*
X-1448Y11390*
X-1443*
X-1438*
X-1431Y11388*
X-1424Y11387*
X-1410Y11385*
X-1393Y11380*
X-1377Y11374*
X-1369Y11370*
X-1361Y11365*
X-1360*
X-1359Y11364*
X-1357Y11362*
X-1353Y11361*
X-1350Y11358*
X-1346Y11355*
X-1336Y11347*
X-1326Y11337*
X-1315Y11325*
X-1305Y11310*
X-1296Y11294*
X-1295Y11292*
X-1293Y11290*
X-1292Y11286*
X-1290Y11282*
X-1288Y11277*
X-1286Y11271*
X-1284Y11264*
X-1282Y11257*
X-1280Y11249*
X-1278Y11240*
X-1276Y11231*
X-1274Y11212*
X-1273Y11191*
Y11190*
Y11188*
Y11185*
X-1274Y11181*
Y11176*
Y11170*
X-1275Y11163*
X-1276Y11156*
X-1278Y11140*
X-1283Y11122*
X-1289Y11104*
X-1292Y11095*
X-1297Y11087*
Y11086*
X-1298Y11084*
X-1299Y11082*
X-1301Y11079*
X-1303Y11075*
X-1306Y11071*
X-1314Y11061*
X-1323Y11049*
X-1335Y11038*
X-1348Y11027*
X-1363Y11017*
X-1364*
X-1365Y11016*
X-1368Y11014*
X-1371Y11013*
X-1375Y11011*
X-1380Y11009*
X-1385Y11007*
X-1391Y11005*
X-1398Y11003*
X-1405Y11001*
X-1421Y10997*
X-1438Y10994*
X-1457Y10993*
X-1462*
X-1466Y10994*
X-1471*
X-1476Y10995*
X-1482Y10996*
X-1489Y10997*
X-1504Y11000*
X-1520Y11004*
X-1537Y11011*
X-1545Y11015*
X-1554Y11019*
Y11020*
X-1555Y11021*
X-1558Y11022*
X-1561Y11024*
X-1564Y11027*
X-1568Y11030*
X-1578Y11038*
X-1588Y11048*
X-1599Y11061*
X-1609Y11074*
X-1619Y11090*
Y11091*
X-1620Y11093*
X-1621Y11095*
X-1622Y11098*
X-1624Y11103*
X-1625Y11108*
X-1628Y11113*
X-1629Y11119*
X-1631Y11127*
X-1634Y11134*
X-1637Y11150*
X-1639Y11168*
X-1640Y11186*
G37*
G36*
X-8800Y-10050D02*
G01Y10050D01*
X-50*
X8800*
Y-10050*
X-50*
X-8800*
G37*
%LPC*%
G36*
X2794Y11201D02*
G01X2798Y11202D01*
X2802*
X2806Y11203*
X2817Y11204*
X2828Y11206*
X2840Y11209*
X2851Y11214*
X2856Y11216*
X2860Y11220*
X2861Y11221*
X2863Y11223*
X2866Y11228*
X2870Y11233*
X2874Y11240*
X2877Y11249*
X2880Y11259*
X2881Y11271*
Y11272*
Y11275*
X2880Y11280*
X2879Y11285*
X2878Y11291*
X2876Y11299*
X2872Y11305*
X2868Y11312*
X2866Y11315*
X2863Y11317*
X2860Y11321*
X2855Y11325*
X2850Y11329*
X2843Y11332*
X2836Y11335*
X2833*
X2830Y11336*
X2826Y11337*
X2819*
X2811Y11338*
X2801Y11339*
X2691*
Y11201*
X2794*
G37*
G36*
X-767Y11046D02*
G01X-763D01*
X-755Y11047*
X-745*
X-735Y11048*
X-725Y11050*
X-717Y11052*
X-716Y11053*
X-713*
X-709Y11055*
X-704Y11057*
X-699Y11061*
X-693Y11064*
X-687Y11068*
X-682Y11072*
X-681Y11073*
X-679Y11075*
X-676Y11079*
X-672Y11085*
X-667Y11092*
X-662Y11100*
X-658Y11110*
X-654Y11120*
Y11121*
Y11122*
X-653Y11124*
X-652Y11126*
Y11129*
X-651Y11133*
X-650Y11137*
X-649Y11141*
X-647Y11152*
X-645Y11165*
X-644Y11179*
Y11195*
Y11198*
Y11200*
Y11205*
Y11210*
X-645Y11215*
Y11222*
X-646Y11229*
X-649Y11244*
X-652Y11259*
X-657Y11274*
X-660Y11281*
X-664Y11287*
X-665Y11289*
X-666Y11290*
X-667Y11292*
X-671Y11298*
X-677Y11305*
X-684Y11312*
X-692Y11319*
X-702Y11325*
X-712Y11330*
X-713Y11331*
X-716*
X-721Y11333*
X-728Y11335*
X-737Y11336*
X-748Y11337*
X-755Y11338*
X-762*
X-769Y11339*
X-858*
Y11046*
X-767*
G37*
G36*
X2Y11214D02*
G01X9Y11215D01*
X17*
X26Y11216*
X35Y11217*
X44Y11219*
X51Y11221*
X52*
X55Y11223*
X58Y11224*
X62Y11226*
X67Y11230*
X72Y11234*
X77Y11239*
X81Y11244*
X82Y11245*
X83Y11247*
X85Y11250*
X87Y11255*
X88Y11260*
X90Y11265*
X91Y11272*
X92Y11279*
Y11280*
X91Y11283*
Y11288*
X90Y11295*
X87Y11301*
X83Y11309*
X78Y11316*
X72Y11324*
X71*
X68Y11326*
X63Y11329*
X56Y11332*
X48Y11336*
X37Y11339*
X24Y11341*
X9*
X-112*
Y11214*
X2*
G37*
G36*
X869Y11158D02*
G01X829Y11264D01*
Y11266*
X828Y11269*
X827Y11272*
X825Y11276*
X823Y11281*
X822Y11286*
X819Y11292*
X815Y11305*
X811Y11318*
X806Y11331*
X802Y11344*
Y11342*
Y11340*
X801Y11338*
X800Y11334*
X799Y11330*
X797Y11321*
X794Y11310*
X790Y11297*
X786Y11284*
X781Y11270*
X739Y11158*
X869*
G37*
G36*
X2260Y11174D02*
G01Y11169D01*
X2261Y11162*
X2262Y11154*
X2264Y11147*
X2268Y11129*
X2271Y11120*
X2275Y11110*
X2279Y11102*
X2284Y11093*
X2290Y11084*
X2296Y11077*
X2297Y11076*
X2298Y11075*
X2300Y11073*
X2303Y11070*
X2307Y11067*
X2311Y11064*
X2316Y11061*
X2322Y11057*
X2328Y11053*
X2336Y11049*
X2343Y11046*
X2352Y11043*
X2361Y11041*
X2370Y11038*
X2380Y11037*
X2390*
X2393*
X2396*
X2399*
X2404Y11038*
X2410Y11039*
X2417Y11040*
X2423Y11042*
X2431Y11044*
X2438Y11047*
X2447Y11049*
X2454Y11053*
X2462Y11058*
X2470Y11063*
X2478Y11069*
X2485Y11077*
X2486*
X2487Y11078*
X2488Y11081*
X2491Y11084*
X2494Y11088*
X2497Y11093*
X2500Y11099*
X2504Y11106*
X2507Y11114*
X2510Y11123*
X2513Y11132*
X2517Y11142*
X2519Y11153*
X2520Y11165*
X2522Y11178*
Y11191*
Y11192*
Y11194*
Y11196*
Y11199*
Y11203*
Y11208*
X2521Y11213*
X2520Y11219*
X2518Y11232*
X2515Y11245*
X2512Y11260*
X2506Y11273*
Y11274*
X2505Y11275*
X2504Y11276*
X2503Y11279*
X2499Y11285*
X2494Y11293*
X2488Y11302*
X2479Y11311*
X2470Y11320*
X2459Y11327*
X2458Y11329*
X2457*
X2454Y11331*
X2451Y11332*
X2448Y11334*
X2439Y11337*
X2429Y11341*
X2418Y11344*
X2404Y11346*
X2391Y11347*
X2386*
X2382Y11346*
X2377*
X2372Y11345*
X2366Y11344*
X2359Y11342*
X2345Y11338*
X2337Y11335*
X2329Y11331*
X2321Y11327*
X2313Y11322*
X2305Y11316*
X2298Y11310*
X2297Y11309*
X2296Y11308*
X2295Y11306*
X2292Y11302*
X2289Y11299*
X2286Y11294*
X2282Y11287*
X2279Y11280*
X2275Y11273*
X2271Y11263*
X2268Y11253*
X2265Y11242*
X2262Y11230*
X2261Y11216*
X2260Y11201*
X2259Y11186*
Y11185*
Y11183*
Y11179*
X2260Y11174*
G37*
G36*
X-1587Y11169D02*
G01X-1586Y11162D01*
X-1585Y11154*
X-1584Y11147*
X-1579Y11129*
X-1576Y11120*
X-1573Y11110*
X-1568Y11102*
X-1563Y11093*
X-1558Y11084*
X-1551Y11077*
X-1550Y11076*
X-1549Y11075*
X-1547Y11073*
X-1544Y11070*
X-1540Y11067*
X-1536Y11064*
X-1531Y11061*
X-1525Y11057*
X-1519Y11053*
X-1512Y11049*
X-1504Y11046*
X-1496Y11043*
X-1487Y11041*
X-1478Y11038*
X-1468Y11037*
X-1457*
X-1454*
X-1452*
X-1448*
X-1443Y11038*
X-1437Y11039*
X-1431Y11040*
X-1424Y11042*
X-1416Y11044*
X-1409Y11047*
X-1401Y11049*
X-1393Y11053*
X-1385Y11058*
X-1377Y11063*
X-1370Y11069*
X-1362Y11077*
X-1361Y11078*
X-1359Y11081*
X-1356Y11084*
X-1353Y11088*
X-1351Y11093*
X-1347Y11099*
X-1343Y11106*
X-1340Y11114*
X-1337Y11123*
X-1334Y11132*
X-1331Y11142*
X-1328Y11153*
X-1327Y11165*
X-1326Y11178*
X-1325Y11191*
Y11192*
Y11194*
Y11196*
Y11199*
X-1326Y11203*
Y11208*
Y11213*
X-1327Y11219*
X-1329Y11232*
X-1332Y11245*
X-1336Y11260*
X-1341Y11273*
Y11274*
X-1342Y11275*
X-1343Y11276*
X-1344Y11279*
X-1348Y11285*
X-1353Y11293*
X-1360Y11302*
X-1368Y11311*
X-1377Y11320*
X-1388Y11327*
X-1389Y11329*
X-1391*
X-1393Y11331*
X-1396Y11332*
X-1399Y11334*
X-1408Y11337*
X-1418Y11341*
X-1429Y11344*
X-1443Y11346*
X-1457Y11347*
X-1462*
X-1466Y11346*
X-1471*
X-1476Y11345*
X-1482Y11344*
X-1488Y11342*
X-1503Y11338*
X-1510Y11335*
X-1518Y11331*
X-1527Y11327*
X-1534Y11322*
X-1542Y11316*
X-1549Y11310*
X-1550Y11309*
X-1551Y11308*
X-1553Y11306*
X-1555Y11302*
X-1558Y11299*
X-1562Y11294*
X-1565Y11287*
X-1569Y11280*
X-1572Y11273*
X-1576Y11263*
X-1579Y11253*
X-1582Y11242*
X-1585Y11230*
X-1587Y11216*
X-1588Y11201*
Y11186*
Y11185*
Y11183*
Y11179*
Y11174*
X-1587Y11169*
G37*
G36*
X-8519Y-5980D02*
G01X-4352D01*
Y-9970*
X-50*
X6002*
Y-8571*
X4342*
Y-4691*
X2119*
Y-3862*
X1656Y-3199*
Y-2330*
X1125*
Y-1674*
X-1028*
Y-2079*
X-1698*
Y-4691*
X-3907*
Y-3919*
X-8519*
Y-5980*
G37*
G36*
X1186Y-1187D02*
G01Y-635D01*
X1023*
Y-1024*
X-1023*
Y-635*
X-1186*
Y-1187*
X1186*
G37*
G36*
X-1023Y-344D02*
G01Y1025D01*
X1023*
Y-344*
X1186*
Y1188*
X-1186*
Y-344*
X-1023*
G37*
G36*
X777Y-777D02*
G01Y778D01*
X-778*
Y-777*
X777*
G37*
G36*
X-8576Y4005D02*
G01X-3854D01*
Y4691*
X-1698*
Y1674*
X1656*
Y3386*
X2290Y4017*
Y4691*
X4342*
Y8441*
X5947*
Y9970*
X-50*
X-4352*
Y5894*
X-8576*
Y4005*
G37*
%LPD*%
G36*
X-3754Y8200D02*
G01Y8600D01*
X-2504*
Y8200*
X-3754*
G37*
G36*
Y9200D02*
G01Y9600D01*
X-2504*
Y9200*
X-3754*
G37*
G36*
X-1904Y7200D02*
G01Y7600D01*
X-654*
Y7200*
X-1904*
G37*
G36*
Y8200D02*
G01Y8600D01*
X-654*
Y8200*
X-1904*
G37*
G36*
Y9200D02*
G01Y9600D01*
X-654*
Y9200*
X-1904*
G37*
G36*
X-1417Y3959D02*
G01Y4359D01*
X-167*
Y3959*
X-1417*
G37*
G36*
Y4959D02*
G01Y5359D01*
X-167*
Y4959*
X-1417*
G37*
G36*
Y5959D02*
G01Y6359D01*
X-167*
Y5959*
X-1417*
G37*
G36*
X433Y3959D02*
G01Y4359D01*
X1683*
Y3959*
X433*
G37*
G36*
Y4959D02*
G01Y5359D01*
X1683*
Y4959*
X433*
G37*
G36*
Y5959D02*
G01Y6359D01*
X1683*
Y5959*
X433*
G37*
G36*
X587Y7200D02*
G01Y7600D01*
X1837*
Y7200*
X587*
G37*
G36*
Y8200D02*
G01Y8600D01*
X1837*
Y8200*
X587*
G37*
G36*
Y9200D02*
G01Y9600D01*
X1837*
Y9200*
X587*
G37*
G36*
X2437Y7200D02*
G01Y7600D01*
X3687*
Y7200*
X2437*
G37*
G36*
Y8200D02*
G01Y8600D01*
X3687*
Y8200*
X2437*
G37*
G36*
Y9200D02*
G01Y9600D01*
X3687*
Y9200*
X2437*
G37*
G36*
X-3754Y7200D02*
G01Y7600D01*
X-2504*
Y7200*
X-3754*
G37*
G36*
Y-8600D02*
G01Y-8200D01*
X-2504*
Y-8600*
X-3754*
G37*
G36*
Y-7600D02*
G01Y-7200D01*
X-2504*
Y-7600*
X-3754*
G37*
G36*
X-1904Y-9600D02*
G01Y-9200D01*
X-654*
Y-9600*
X-1904*
G37*
G36*
Y-8600D02*
G01Y-8200D01*
X-654*
Y-8600*
X-1904*
G37*
G36*
Y-7600D02*
G01Y-7200D01*
X-654*
Y-7600*
X-1904*
G37*
G36*
X-1417Y-6359D02*
G01Y-5959D01*
X-167*
Y-6359*
X-1417*
G37*
G36*
Y-5359D02*
G01Y-4959D01*
X-167*
Y-5359*
X-1417*
G37*
G36*
Y-4359D02*
G01Y-3959D01*
X-167*
Y-4359*
X-1417*
G37*
G36*
X433Y-6359D02*
G01Y-5959D01*
X1683*
Y-6359*
X433*
G37*
G36*
Y-5359D02*
G01Y-4959D01*
X1683*
Y-5359*
X433*
G37*
G36*
Y-4359D02*
G01Y-3959D01*
X1683*
Y-4359*
X433*
G37*
G36*
X587Y-9600D02*
G01Y-9200D01*
X1837*
Y-9600*
X587*
G37*
G36*
Y-8600D02*
G01Y-8200D01*
X1837*
Y-8600*
X587*
G37*
G36*
Y-7600D02*
G01Y-7200D01*
X1837*
Y-7600*
X587*
G37*
G36*
X2437Y-9600D02*
G01Y-9200D01*
X3687*
Y-9600*
X2437*
G37*
G36*
Y-8600D02*
G01Y-8200D01*
X3687*
Y-8600*
X2437*
G37*
G36*
Y-7600D02*
G01Y-7200D01*
X3687*
Y-7600*
X2437*
G37*
G36*
X-3754Y-9600D02*
G01Y-9200D01*
X-2504*
Y-9600*
X-3754*
G37*
G36*
X-678Y-677D02*
G01Y678D01*
X678*
Y-677*
X-678*
G37*
G54D10*
X-7680Y1875D03*
Y-1875D03*
X7680Y1875D03*
Y-1875D03*
G54D11*
X-5250Y7250D03*
X5250D03*
Y-7250D03*
X-5250D03*
G54D12*
X-2500Y-2500D03*
Y2500D03*
X2500D03*
Y-2500D03*
G54D13*
X-7680Y-8840D03*
X7680D03*
Y8840D03*
X-7680D03*
G54D14*
X-2630Y3750D03*
X2630Y-3750D03*
M02*
